<svg id="Handrawn" enable-background="new 0 0 512 512" height="512" viewBox="0 0 512 512" width="512" xmlns="http://www.w3.org/2000/svg"><path d="m215.515 259.601c-3.591-1.976 1.8.978 0 0zm295.821 13.73c2.084 13.723-1.921 27.201-12.558 36.61-25.255 22.338-63.479 4.203-65.132-28.02-4.839 1.152-20.032.235-21.693 3.609 1.927 15.826.06 32.048-1.509 47.814-1.049 13.125-.531 14.96 6.289 26.171 4.126 6.782 8.285 13.486 12.675 20.103 1.314 1.981 11.267 16.75 12.379 16.371-33.681 14.893-65.166 33.524-98.427 49.301-33.421 15.852-67.665 29.372-102.506 41.729.034-.013.067-.028.098-.047-.056.03-.115.055-.177.075-.008.006.018-.003.052-.017-6.139 2.851-11.509 3.117-12.076 9.563-2.895-2.472-6.481-1.664-9.085.608-2.696-8.273-18.745-11.687-26.82-14.895-20.429-8.606-40.715-17.484-60.942-26.551-38.782-17.782-76.744-37.225-114.657-56.784.039.021-.3-.154-1.395-.719-5.273-2.736-10.562-5.439-15.852-8.137 3.436-5.704 42.816-71.278 46.609-68.859 2.736 1.741-31.918 60.068-34.188 65.143 12.449 4.711 23.938 11.562 36.492 16.116 19.963 7.362 39.726 15.149 59.247 23.617 37.979 16.585 74.08 36.771 111.032 55.461-.398-13.982-.908-27.967-.995-41.955-.044-7.348.125-14.676.488-22.014.458-9.781-1.981-9.146-10.669-13.897-26.954-14.745-54.211-29.153-82.045-42.181-14.293-6.796-28.611-13.513-43.055-19.988-9.84-4.412-25.124-8.305-33.061-15.845-5.424-5.151 43.626-23.91 49.419-24.91-2.474-1.135-27.015-11.901-26.063-14.039 1.061-2.374 25.286 7.064 27.866 7.975.033.013-.161-.07-.063-.03.19.074.541.1.682.223-.012-.041-.052-.061-.063-.06 1.57-.182 3.152.065 4.598.697.052.024-.226-.108-.093-.046 38.234 14.905 74.025 32.938 110.604 51.326-2.385-16.932-.789-34.419.577-51.368.212-2.614 3.561-20.262 1.931-21.156-5.363-2.942-10.7-5.934-16.087-8.834-28.068-15.115-57.581-27.518-85.554-42.676-2.322 8.031-38.82 66.766-46.366 60.998-8.262-6.321 35.772-58.4 43.003-63.108-8.099-6.798 45.158-24.82 48.412-25.327-2.819-1.398-26.296-11.354-25.399-14.045.547-1.635 4.399.853 5.72-2.299.777-1.859 1.666-3.674 2.565-5.477 3.033-6.081 6.289-12.05 9.545-18.013 9.175-16.799 18.764-33.391 27.679-50.331 9.901-18.458 19.622-37.006 28.827-55.824 3.916-8.005 10.865-22.284 5.479-31.375 1.935 2.581 3.858 5.17 5.803 7.744l5.163-10.958c.398 5.74-.743 14.391 1.366 19.687 5.616 7.504 11.057 14.827 15.667 22.834 2.65 7.69 10.432 15.273 15.069 21.95 5.944 8.557 11.258 17.406 16.435 26.437-.409-12.541-2.82-27.572-.781-39.995 52.372-.844 105.638-2.852 157.838 3.999.412-8.127 2.825-16.5 8.787-22.404 2.088-2.259 30.54-18.514 30.84-10.82.077 1.133-14.612 6.805-16.121 7.801-4.304 2.84-7.71 6.49-10.487 10.797-2.219 4.356-3.614 8.648-3.419 13.623.329 15.337 7.235 25.329 22.305 30.367 15.615 5.181 31.488-6.728 35.816-21.495 2.411-8.228.893-17.351-4.039-24.37-2.591-3.872-24.031-16.984-24.055-16.724.432-5.739 23 5.081 24.797 6.579 7.525 5.768 12.498 14.637 13.737 23.994 1.665 16.609-6.874 31.793-21.285 39.848-25.347 13.906-56.478-6.506-56.89-34.289-44.104 9.32-92.436 2.222-137.259 2.857.058 0 .125-.012.17-.029-3.106.575-7.145-.079-10.089.813-.728 16.745-4.35 36.729 3.208 51.76-.013-.032-.044-.062-.026-.029 2.567 4.291 30.033 50.342 25.984 52.358-2.015 1.006-28.643-41.542-31.298-45.433-.103 1.536-.65 21.787-3.189 21.787-3.214 0-3.491-34.062-5.823-37.045-.02-.007.027.063-.004.024-12.059-15.116-21.991-31.999-33.397-47.654-3.897-5.35-6.588-12.19-10.976-17.052-1.451.415 1.923 65.539 1.915 72.264-.031 28.436-.962 57.183-4.267 85.439 7.34-2.769 81.273-34.869 83.094-31.345 1.344 2.591-17.944 13.014-20.161 14.277 9.118 2.294 51.709 18.375 38.873 28.262-16.739 12.892-36.591 22.233-55.737 30.883-9.813 4.434-19.737 8.592-29.72 12.628-4.768 1.927-9.556 3.796-14.346 5.66-5.438 2.116-2.901 6.674-2.703 12.027.777 21.037-.438 42.872-3.146 63.757 49.642-17.915 96.528-41.629 145.568-60.717-6.888-6.133-11.604-15.054-15.849-23.079-.021.116-.885 7.032-2.377 6.956-.498-.025-5.696-23.74-6.801-26.267-1.401-3.208-11.755-23.654-7.979-25.958 2.754-1.676 8.851 7.639 10.195 9.551-.411-19.945.058-39.482-1.414-59.445.841-4.105 79.27 2.365 87.057 3.793.373-8.642 4.247-15.838 9.59-22.381 4.963-5.722 11.771-9.482 19.135-11.059.874-.168 11.424-1.707 11.412.712 0-.66-22.213 12.069-24.396 15.201-1.55 2.422-3.449 5.343-4.425 7.953-7.461 19.931 8.676 41.189 29.436 40.431 14.501-.966 26.468-12.936 28.074-27.423 1.346-12.106-5.048-21.8-13.983-29.294-2.14-1.487-14.925-5.805-14.705-6.868.714-3.445 15.013.408 17.369 1.47 6.7 3.981 12.097 9.02 16.448 15.51 9.686 16.782 3.436 39.214-11.965 50.246-25.736 17.782-60.357.911-61.977-30.972-17.969 3.301-36.98 3.065-55.183 3.473-3.854.086-20.157-3.297-19.747 2.164 1.311 19.124-.958 37.825-1.786 56.905-.668 15.37 15.51 31.178 17.786 47.052 4.328-1.06-3.091 4.19-3.454 4.446-4.994 3.525-10.185 6.823-15.464 9.904 14.011 3.482 27.659 11.073 39.329 19.444 4.013 2.878 3.224 5.883.438 8.688 1.642.981 5.227 6.082 5.396 6.304 0-19.764-.871-40.953.439-60.625 10.873.311 22.145.347 32.771 2.886.27-8.012 2.694-16.214 8.626-21.989 2.104-2.277 31.264-18.312 30.973-10.458.01 1.326-10.679 4.289-11.874 4.879-5.079 2.511-9.638 6.073-13.042 10.625-2.762 3.208-4.734 8.091-5.037 12.329-1.116 16.624 6.297 31.882 24.14 35.185 18.399 3.406 34.492-11.772 34.976-29.73-.031-7.424-2.932-14.565-7.7-20.229-2.179-2.587-21.464-12.968-21.462-13.058 0-6.269 23.183 4.906 24.901 6.315 6.717 5.507 11.282 13.175 13.174 21.633zm-116.901 55.805c.123-.08.306-.045.525.07-.185-.143-.36-.176-.525-.07zm-240.477-145.019c24.238 7.315 47.117 18.694 69.414 30.53l-.002-.003c5.198-.557-2.704-143.742-3.545-157.133-13.024 25.694-27.15 50.941-42.595 75.265-10.179 16.005-19.957 35.386-33.715 48.723 3.414.643 6.722 1.516 10.052 2.502-.224-.067-.262-.08.187.054 2.032.609.968.291.204.062zm69.447 79.777c-.004-.004-.021-.012-.014-.011 35.709-13.724 70.637-30.652 106.634-43.366-10.865-1.416-21.787-5.257-31.369-10.512-4.261-2.329-8.27-5.126-12.484-7.542-5.188-3.361-8.853.746-14.002 3.401-11.901 6.137-24.38 11.247-36.835 16.118-2.895 1.11-9.098 4.967-12.721 4.872-4.29.525-14.309-7.657-18.05-9.667-10.893-5.925-21.897-11.64-32.931-17.298-4.021-2.063-22.204 10.298-28.276 12.606-7.659 2.907-15.55 5.213-23.344 7.659 33.364 6.827 65.861 23.14 95.501 39.449 2.632 1.427 5.262 2.857 7.891 4.291zm-.974 135.006c-.005-.004-.011-.008-.019-.012 3.067.368 10.625-4.036 13.587-5.16 5.869-2.226 11.737-4.451 17.606-6.677 9.94-3.77 19.836-7.606 29.705-11.563 11.599-4.65 25.944-7.831 36.08-15.279 24.336-11.463 49.153-23.638 74.116-33.729-13.153-.527-26.402-8.728-37.521-15.093-1.671-.921-3.78-2.793-5.648-3.284-5.896-3.515-10.486 1.954-16.069 4.84-22.621 11.885-45.719 22.512-69.271 32.417-14.205 6.025-28.804 11.161-43.303 16.419-13.614-5.757-26.543-13.805-39.446-20.965-24.965-13.853-51.068-25.424-76.659-38.053-6.031 13.294-37.098 21.449-49.854 23.254 53.134 13.383 105.466 39.342 153.296 65.624 4.468 2.419 8.937 4.835 13.4 7.261zm186.463-40.33c-.137 1.222-.545 7.999-2.635 8.01-2.621.013-8.129-34.361-11.216-37.305-4.396 4.414-13.741 8.328-17.203 10.458-18.662 11.478-38.863 22.908-58.776 31.778-29.077 16.153-63.063 26.354-94.015 38.298-6.112 6.491-.32 29.715.53 39.7.882 10.367 1.521 20.768 2.553 31.121 65.846-30.343 130.988-64.457 199.712-88.265 1.218-2.968-16.836-29.758-18.95-33.795zm-199.863 33.07c2.85 1.542-5.677-3.12 0 0z"/><path d="m238.109 483.241c.008-.003.018-.007.028-.011-.009.002-.019.006-.028.011z"/></svg>