<svg id="Layer_1" enable-background="new 0 0 500 500" viewBox="0 0 500 500" xmlns="http://www.w3.org/2000/svg"><path clip-rule="evenodd" d="m67.645 238.59c3.944 3.437 7.146 8.802 8.574 13.814 1.152-5.246 5.095-10.336 9.233-13.642-4.165-2.908-7.247-6.782-9.623-11.24-2.001 4.279-4.633 7.927-8.184 11.068zm-6.938 12.04c-5.166-4.131-5.498-3.822-11.513-5.792-6.402-2.119-6.194-11.291.233-13.19 13.615-2.19 16.896-17.575 18.42-29.163.867-7.997 12.63-9.206 14.412 0 1.167 6.032 3.03 16.524 6.228 21.506 3.667 5.714 6.11 6.476 12.025 8.245 5.682 1.563 6.246 10.177-.101 12.121-21.397 3.534-17.493 29.936-25.358 31.352.463-.951 1.429-1.614 1.885-3.218-.748.954-.316.218-.74-.679-.36.061-.436.664-.679.725l-.223-1.779c-.872.993-.668 2.584-.243 3.659-1.428-1.173-1.295-.23-1.936-1.485-5.01-7.747-5.405-16.57-12.41-22.302zm302.537-117.636c3.963 3.453 7.131 8.78 8.569 13.814 1.484-5.55 4.815-10.096 9.238-13.637-4.224-3.008-7.172-6.666-9.618-11.239-1.952 4.133-4.693 8.046-8.189 11.062zm-22.814-2.503c1.3-3.881 4.167-4.28 7.52-5.34 19.302-5.291 9.271-36.078 23.457-34.678 10.112.892 6.564 22.457 13.755 29.492 3.82 7.556 17.152 4.261 15.166 14.554-3.814 8.922-13.724-.385-22.854 21.71-.854 1.552-.289 4.066-1.146 4.408-1.051.802-1.168 9.305-5.675 9.481.501-1.02 1.413-1.593 1.89-3.223-.87.936-.242.326-.745-.679-.355.061-.431.664-.684.725l-.218-1.779c-.854.973-.674 2.601-.243 3.659-1.933-1.56-.692.753-3.411-3.856-3.718-7.512-4.995-16.41-13.312-21.825-5.355-3.912-16.015-3.479-13.5-12.649zm3.537 280.098c-4.233-3.015-7.175-6.651-9.628-11.24-2.029 4.342-4.606 7.878-8.184 11.067 3.945 3.438 7.142 8.797 8.574 13.809 1.342-5.374 4.922-10.243 9.238-13.636zm19.267 1.347c-3.244 7.733-18.944 2.645-23.998 26.118-1.039.739-1.156 9.336-5.677 9.48.502-1.022 1.4-1.576 1.895-3.223-.813.95-.293.261-.75-.679-.355.061-.431.664-.684.725l-.208-1.774c-.867.951-.676 2.614-.253 3.654-2.089-1.747-.395 1.097-3.405-3.851-.332-.555-.36-1.877-1.647-3.132-.765-.746-.575-2.873-1.728-5.123-3.368-9.233-9.239-15.034-19.079-17.472-6.377-2.134-6.221-11.241.243-13.186 13.69-2.229 16.78-17.542 18.405-29.163 1.13-8.418 12.71-8.526 14.3-.618 1.338 6.657 3.015 16.83 6.349 22.119 4.177 9.656 18.361 5.485 16.237 16.125zm36.46-194.392-2.245.73c-.058.142-.031-.286-.228-.015-1.427-.018-3.089 2.366-3.993 5.645.216.456-.443 3.767.487 3.395.151-.246.375.709.38.704.695-.598.036-.247 1.292.496.004.002.427.077.461.345.085.655.197.273.319.309 1.58.498 2.922.409 4.89 1.171 1.14.402 1.177.679 2.392.273.112-.036.228-.096.339-.041.182.091.38-.289.563-.046l4.439-.289c.857.454 1.547-.405 2.113-.542.581-1.157.607-.561.714-1.059.091-.422.571-.085.953-.75.283-.493.559.038.659-.522 1.198-2.526.695-10.377-3.217-11.027-3.105-1.486-6.85 1.267-10.318 1.223zm55.808 6.056c-.271-11.042-9.58-7.15-16.854-5.326-.066.134-.032-.288-.243-.015-.137.177-1.328.121-1.824.917-3.486 5.59-1.722 5.028-2.296 6.354-.257.594.236 2.299.527 1.769l.395.704c.824-.631.002-.185 1.312.496.003.002.444.08.481.345.092.655.21.274.324.309 2.582.149 5.038 1.881 7.834 1.404 1.743-.264 6.8.315 7.688-1.424.083-.416.238-.018.365-.512.103-.431.588-.086.973-.75.283-.487.58.036.674-.522.598-2.433.626-.549.644-3.749zm-23.807-18.4c-1.296-3.299-1.195-5.749-2.316-8.919-.132-.058.29-.043.015-.228-.17-.114-.111-1.261-.917-1.738-5.688-3.37-4.978-1.628-6.35-2.189-.605-.247-2.283.206-1.769.502l-.704.37c.627.691.164.087-.497 1.256-.003.005-.083.42-.35.461-.673.105-.263.187-.309.304-.924 3.361-3.012 13.355.537 15.142 1.376 3.83 9.333 1.562 10.748.587 1.977-.679 2.116-4.18 1.912-5.548zm0 42.197c-1.293-3.236-1.187-5.624-2.316-8.772-.134-.058.291-.043.015-.228-.173-.117-.104-1.226-.917-1.708-5.476-3.243-5.098-1.645-6.35-2.154-.594-.242-2.282.197-1.769.492l-.704.365c.623.683.174.072-.497 1.237-.002.004-.08.409-.35.451-.674.105-.262.185-.309.304-.247 2.156-1.965 5.966-1.358 7.895.249 3.849-.446 5.494 2.64 7.915 3.169 3.13 13.897.422 11.915-5.797zm-178.02-160.167c.27 1.169.661-.063.745.897.067.769.36-.329.552.066.283.581 1.237.77 1.282 1.064.103.675.189.261.309.309 4.872 1.278 10.268 2.185 14.686.522.43-.929.631-.651.72-1.059 3.908-1.371 2.265-11.896-1.652-12.314-3.691-1.185-8.482 1.26-12.471 1.972-.059.122-.045-.29-.238-.015-.114.162-1.286.124-1.769.917-3.365 5.536-1.692 5.09-2.219 6.349-.198.471-.045.741.055 1.292zm41.001-.188c.37 2.054.626 1.285.714 1.343.499.324.211.831.375.689.76-.657.113-.099 1.328.456.001 0 .449.063.496.329.12.667.211.264.329.299l3.958.674 2.63.735c.736-.028 1.72-.507 1.875-.329 2.106-.437 6.078.23 7.064-1.606 3.759-2.908 2.879-6.843.618-11.285-3.317-4.363-11.14.329-15.177.892-.049.175-.023-.295-.233 0-.329.463-1.453-.763-3.116 3.567-.274.714-.867 1.558-.801 2.199.222 2.135 0 1.125-.06 2.037zm-17.361-24.734c.681 2.205-.085 5.909 1.069 7.692 1.164.569.555.595 1.059.704.43.093.085.57.75.937.486.269-.034.547.522.649 6.897 2.287 14.202-1.782 10.55-9.248 0 0-.192-1.262-.192-1.262-.736-.906-.338-3.111-1.282-5.057-.14-.067.295-.038.01-.233-.156-.107-.102-1.255-.917-1.748-5.565-3.366-5.14-1.658-6.35-2.204-.563-.254-2.277.202-1.769.502l-.699.375c.64.705.069.166-.502 1.267-.001.001-.075.426-.35.461-.658.084-.266.201-.299.314-.31 2.233-1.418 4.706-1.6 6.851zm0 42.227c.681 2.136-.084 5.77 1.069 7.479 1.161.556.551.564 1.059.684.435.103.081.543.75.912.492.272-.036.539.522.628 6.369 2.254 14.344-1.564 10.55-8.985-.614-1.99-.617-4.169-1.474-6.147-.141-.055.292-.031.01-.223.063-1.365-2.451-2.992-5.64-3.826-.518.216-3.736-.439-3.395.471l-.699.365c.645.687.047.175-.502 1.231-.002.005-.076.411-.35.446-.655.084-.27.195-.299.304-.129 1.999-1.554 4.8-1.601 6.661zm-108.722 7.607c7.395 31.658 57.458 12.065 37.007-15.006-2.015-.505-1.712-1.377-2.584-1.164-.677.166-.676-.355-.932-.243-.456.198-.684.086-.993.046-7.026 42.213-39.403.326-2.94.034 3.342.741 1.17-.195 2.347-.744.257-.12.304.049.304-.441l1.196.233c.684-2.332-1.796-2.713-2.853-4.368-14.787-10.92-34.075 4.778-30.552 21.653zm251.411 205.92c-1.227-6.256-8.17-10.201-8.757-9.309-.144.219.303.467-.461.785l-.365.395c-1.204-.387-.95-.242-1.221.907-.245 1.035.566 1.414.623 1.546.5 1.149-.399.905-.081 1.241 1.177 1.245.642.941.588 3.659-4.088 19.705-28.937.215-9.03-7.987.324.016.525-.737 2.047-.354 1.28.322.99-.571 2.914.471.259.14.794-.62 1.794-.223.524.208.804-.403 1.166-.132.294.221-.006-.132 1.16-.172 2.192-4.282-.784-7.388-4.262-9.963-12.253-6.255-25.897 4.478-26.786 16.651-1.986 28.14 41.366 31.687 40.671 2.485zm-64.382 17.159c.198.208.395.431.598.639-2.586-20.431 2.339-42.197 17.174-57.237-34.482.369-73.578 3.248-102.96 22.353l11.594 11.341s.01 0 .01-.005c26.775-10.417 55.111 3.329 73.584 22.909zm-92.774 25.884c-15.515-15.478-31.507-30.58-47.147-46.104 4.06 13.431 7.753 27.3 10.281 41.118.001 0 2.18 9.719 2.18 9.719.427.699-.23.911-.182 1.262l.563 4.991c10.952-3.672 22.864-8.313 34.305-10.986zm-46.246 15.886c-6.063 2.532-18.237 7.859-24.152 10.632-2.816-44.013-22.89-87.645-33.82-130.244 13.49 13.628 26.785 27.682 40.413 41.163-1.682 9.044 3.452 21.321 5.751 30.207 6.325 14.782 7.999 32.638 17.139 45.977-1.789.735-3.567 1.485-5.331 2.265zm-37.55 16.52 5.969-2.696c-18.036-47.065-29.391-97.794-39.156-146.652-6.068 17.344-11.886 35.983-19.368 52.737 16.104 32.688 23.348 70.954 29.741 106.756zm-28.859 12.948-27.374 12.805c-.502-9.057-3.566-19.196-6.75-27.658-5.108-12.355-6.471-27.175-14.544-38.117 5.663-12.792 13.206-29.952 18.608-42.121 2.302 13.514 6.979 29.268 11.371 42.262 6.491 17.548 8.698 36.821 18.689 52.829zm-37.423 17.558c-9.125-17.547-12.7-39.022-16.789-58.022-4.446 11.903-20.274 39.741-21.786 51.9-.457 10.221 10.864 18.578 20.545 14.756 0 .001 18.03-8.634 18.03-8.634zm130.963-148.962c-.274-.228-.568-.507-.775-.781l-13.332-13.069c22.356-25.197 37.755-57.813 45.009-90.763 16.591 74.492-13.394 46.477 61.205 62.73-31.608 7.191-65.392 22.512-87.717 46.058-1.425-1.434-2.844-2.888-4.39-4.175zm-34.686-33.309c17.537-33.284 21.4-72.823 21.263-109.893-14.554 15.828-36.994 22.253-58.164 19.601 19.966 18.235 36.252 48.29 22.038 74.588-.598.284-1.084.937-1.581 1.591zm170.732 123.408c3.614 7.897-8.115 14.357-12.856 7.175-18.724-27.35-44.758-56.562-80.785-55.914l19.165 19.069c24.226 28.171-17.471 58.401-39.045 28.864-50.915 30.066-110.087 54.799-163.947 80.289-24.064 11.2-51.333-13.284-38.802-39.562 24.351-50.317 53.805-114.408 79.229-164.18-29.055-24.478 9.655-59.202 24.531-33.298-16.624-9.891-31.959 8.976-20.908 20.067 28.236 24.651 59.567 57.624 86.557 84.14 15.304 14.605 34.143 34.445 49.397 48.936 9.173 6.412 20.554-3.129 15.973-13.145-39.183-43.974-94.356-93.379-131.936-139.081.856.337 2.991 2.239 3.836 2.944-.671-1.338-.71-.714.826-.547-5.48-7.259 17.909 14.125 19.667 15.096 4.497-37.913-24.717-64.711-53.659-84.145l.091-.162c-9.003-4.813-1.732-17.653 6.998-12.542l.086-.152c78.195 35.186 87.764-44.409 98.887-13.602-.489 43.816-2.024 93.759-31.211 128.861 5.314 4.754 9.932 9.348 15.025 14.29 20.232-32.98 35.911-75.043 39.997-113.394l.046-.01c-.075-10.217 10.55-10.837 12.527-1.536l.051-.005c8.052 21.785 13.798 46.14 15.496 69.384 9.834-.902 104.499 12.345 71.198 29.437-40.815 4.206-79.561 20.767-115.644 39.206l16.768 16.317c31.62-30.337 79.832-31.288 121.36-31.783v.005l3.958-.005c5.524-.004 8.101 7.216 3.182 10.637-31.92 20.153-30.907 57.452-16.058 88.346zm-64.417-199.688c-21.698 5.931-18.519 37.986 3.477 40.504 14.79 3.52 30.662-16.812 17.564-27.725-4.818-3.385-3.774-1.555-4.064-1.291-.419.38-.582.024-.75.618l-.968-.132c-1.055 2.223.86 2.188.396 3.466-.554.518.833.851.648 1.561.43 20.829-29.876 6.398-10.601-4.678.254-.303.537-.734.872-.617.123.037-.065-.252.522-.233.353.011.463-.735 2.057-.355.907.217 1.436-.322 2.098.096 1.543.977 1.198-.405 2.61.152.517.204.803-.403 1.16-.137.314.234.007-.147 1.155-.167 3.515-8.776-9.325-14.002-16.176-11.062z" fill-rule="evenodd"/></svg>