<svg id="Layer_1" enable-background="new 0 0 75 75" height="512" viewBox="0 0 75 75" width="512" xmlns="http://www.w3.org/2000/svg"><g id="_x36_1"><path d="m9.7236338 15.4162159c-.1508789.9501953.0708008 1.9726563.2666016 2.875.1556702.7209988-.5228567-2.8020048 8.8452139 46.3681641.4018555 2.1796875.9516602 5.1650391 3.0214844 6.5742188 2.3788548 1.6210327 6.2921314-.041626 8.6054688-.4863281 1.2108612-.231041 29.5957298-5.6533585 30.230957-5.7412109 3.002861-.4155731 4.6265106-1.8468781 4.6328125-5.0605469.003418-1.5205078-.3525391-3.0820313-.6967773-4.5917969-.4532089-1.9874077-8.7200928-45.5553055-8.7612305-45.8066406-.1499023-.9101563-.3198242-1.9423828-.8095703-2.7705078-.6860352-1.1611328-2.3989258-1.3583984-3.5722656-.9726563l-8.8979492 1.6969604c-.1695786-.9061375-.1492004-.7378597-.1669922-.9118042-.040844-.3866701-.1042023-.6325912-.3735352-.921875-.4794922-.5126953-1.1489258-.7197266-1.8862305-.5771484l-3.0759277.5862427c-.1759224-1.2788491-.1762772-1.7874832-.5661621-2.1946411-.5166016-.5419922-1.2597656-.4091797-1.5400391-.3583984-8.5451031 1.5186019-8.2777271 1.4240093-8.862793 1.6972656-1.3288879.6227717-1.3674355 1.7224026-1.1644287 3.1681519-1.6391125.3015795-1.2425194.2565107-1.9200439.3435669-.8305664.1054688-1.8642578.2373047-2.3710938.9296875-.0029297.0039063-.0053711.0078125-.0078125.0107422-.5440121.7715683-.1996403 1.592989-.0200195 2.4152222l-7.854003 1.4978638c-1.3237305.0859372-2.8447266.8974607-3.0556641 2.2304685zm17.0283193-9.2363281c.4063606-.1901765 8.5668945-1.5975213 8.6679688-1.6044922.0073395.0503359.1761703 1.278708.1831055 1.3291016l-9.1928711 1.7519531c-.034668-.2861328-.0498047-.5654297-.0444336-.8349609.0053691-.3194805.0241699-.4722501.3862304-.6416016zm-5.8425903 6.97583.0901489.479248c.0991211.609375.2353516 1.4453125.9228516 1.9833984.6486626.5081196 1.259531.4572163 2.0097656.3144531l17.800293-3.3916016c.5253906-.1035156.987793-.4794922 1.2368164-1.0039063.3074036-.6462831.1766472-1.1610126-.098999-2.569519l8.9862061-1.7136841c.58815-.1890874 1.6271248-.1956024 1.9111328.2861328.544529.921627 8.4811134 44.1253586 9.3994141 48.1474609.3256836 1.4277344.6621094 2.9042969.6591797 4.2539063-.0056229 2.5557823-1.2059021 3.2825966-3.3388672 3.578125-.7069473.0986977-30.2049122 5.7355118-30.3061523 5.7548828-2.1702213.413002-5.7765484 1.8808517-7.4799805.71875-1.5522461-1.0566406-2.0170898-3.5791016-2.390625-5.6054688-9.7167044-50.9678383-9.2337351-47.9302139-9.1054678-48.7373047.0722656-.4541016.8691406-.9160156 1.7631836-.9804688z"/><path d="m30.3598633 41.3097687c-.9370117.3378906-1.4946289 1.4638672-1.2685547 2.5634766.1978893.9627075.9549179 1.8251953 1.9960938 1.8251953.3509827 0 23.4220886-4.7922325 23.5224609-4.8154297 1.6584778-.4025993 2.2575226-1.5625076 2.0307617-2.6650391-.2607422-1.2705078-1.5566406-1.9746094-3.0751953-1.6757813-.9902001.1954384-23.0891628 4.7262536-23.2055664 4.7675782zm23.4951172-3.2949219c.5244446-.1062164 1.2068138-.0283775 1.315918.5048828.1430817.6912994-.5795135.8245811-.9091797.9042969-.3272171.0713539-8.0204887 1.6579552-17.440979 3.6043091l-.2988892-1.4556885c6.0794678-1.2527466 16.1630249-3.3278198 17.3331299-3.5578003z"/><path d="m55.4916992 45.931839c-.6816406.1344414-22.6011238 4.6330376-22.6621094 4.6513672-1.2470703.375-2.0537109 1.4970703-1.8369141 2.5527344.3645 1.7747154 2.1085129 1.7234077 3.8916016 1.3544922.1002121-.0210953 21.4705429-4.43293 21.5996094-4.4628906.0009766 0 .0019531-.0009766.0029297-.0009766 1.6854439-.4125175 2.2667694-1.5188293 2.0551758-2.5449219-.25-1.21875-1.5019531-1.859375-3.050293-1.5498047zm.6479492 2.6357422c-.2493896.0533447-5.375 1.1112061-10.5181274 2.1724854l-.2471313-1.2046509c4.8840332-1.0046387 9.6358643-1.9803467 10.4083252-2.1328735 1.3733825-.2687035 1.9291534.7777938.3569335 1.165039z"/><path d="m57.3701172 55.0822296c-1.682045.3316154-22.0748215 4.5341225-22.1767578 4.5498047-1.8426208.2860222-2.7165375 1.9107399-2.2077637 3.0141602.3100967.8069916 1.1088181 1.394043 2.1638184 1.394043.5904236 0 22.7044716-4.6167336 23.2446289-4.7294922.2695885-.0676918.5394821-.1323662.8066406-.2490234.9755859-.4208984 1.3999023-1.5537109 1.2338867-2.3613281-.2583008-1.2578126-1.5170898-1.9267579-3.0644531-1.6181642zm1.2353516 2.6025391c-.3483162.1525192-.7799759.2144203-5.5198364 1.1934814l-.2739258-1.3343506c2.4934082-.5117798 4.3874512-.8991089 4.848938-.9899902 1.4577216-.2964821 1.6043472.8469009.9448242 1.1308594z"/><path d="m28.034668 22.1515675c-.1590996-1.4318962-1.2788715-2.5804367-2.7231445-2.7158203-2.7078323-.2458496-4.5230675 2.8329887-2.4223633 5.1679688 1.7192649 1.9076766 5.4691524.4112853 5.1455078-2.4521485z"/><path d="m20.6757813 35.8097687c.354784 0-.3082752.0836983 12.9863281-2.4990234 1.5078392-.2939529 2.0638962-2.1180305 1.0385742-3.23242-4.0649872-4.4111538-13.9595871-2.3803272-15.8935547 3.2783184-.3820019 1.2412719.5971642 2.453125 1.8686524 2.453125zm12.921875-4.7148419c.2387543.2588234.1231346.6757298-.2226563.7431641l-12.6186523 2.4638653c-.3243351.0597115-.5963287-.2401161-.5214844-.4853516 1.528368-4.4642143 9.9867935-6.3656139 13.362793-2.7216778z"/><path d="m39.03125 20.0128956 11.7495117-2.4033203c.4057617-.0830078.6674805-.4785156.5844727-.8847656s-.4799805-.6708984-.8852539-.5839844l-11.7495117 2.4033203c-.4057617.0830078-.6674805.4785156-.5844727.8847656.0849991.4153004.4917831.6672192.8852539.5839844z"/><path d="m47.4711914 21.7043018-5.1425781 1.0849609c-.4052734.0849609-.6645508.4833984-.5791016.8886719.0877266.4139824.4986534.6656055.8886719.578125l5.1425781-1.0849609c.4052734-.0849609.6645508-.4833984.5791016-.8886719-.0859375-.4052734-.4858399-.6689453-.8886719-.578125z"/><path d="m24.1113281 46.7951202 1.9189453-4.1669922c.1733398-.3759766.0087891-.8212891-.3676758-.9951172-.3779297-.1738281-.8217773-.0078125-.9946289.3681641l-1.9189453 4.1669922c-.2086334.4523849-.7501125.6159668-1.1665039.390625l-1.1357422-.6113281c-.3647461-.1972656-.8188477-.0595703-1.0161133.3046875-.1962891.3642578-.0595703.8193359.3051758 1.015625l1.1357422.6113281c1.1734047.6333733 2.669096.1567459 3.2397461-1.0839844z"/><path d="m25.7275391 55.5470734 1.9189453-4.1669922c.1733398-.3759766.0087891-.8212891-.3676758-.9951172-.3779297-.1748047-.8217773-.0078125-.9946289.3681641l-1.9189453 4.1669922c-.204916.4443245-.739645.6196251-1.1665039.390625l-1.1357422-.6113281c-.3647461-.1972656-.8188477-.0605469-1.0161133.3046875-.1962891.3642578-.0595703.8193359.3051758 1.015625l1.1357422.6113281c1.1702747.6316833 2.6681003.1587257 3.2397461-1.0839844z"/><path d="m29.1069336 59.1369171c-.3764648-.1748047-.8217773-.0087891-.9946289.3681641l-1.9189453 4.1679688c-.2011948.4364243-.7327862.6243668-1.1665039.3896484l-1.1357422-.6113281c-.3637695-.1982422-.8193359-.0605469-1.0161133.3046875-.1962891.3642578-.0595703.8193359.3051758 1.015625l1.1357422.6113281c1.1746826.6331635 2.669096.1577225 3.2397461-1.0830078l1.9189453-4.1679688c.1733398-.3759766.008789-.8212891-.3676758-.9951172z"/></g></svg>