<svg id="Layer_1" enable-background="new 0 0 73 73" height="512" viewBox="0 0 73 73" width="512" xmlns="http://www.w3.org/2000/svg"><g id="_x31_06"><path d="m57.8408432 10.8957548-.4912109 5.4335928c-.0391731.4360676.3026314.8173828.7480469.8173828.3837891 0 .7109375-.2929688.7460938-.6826172l.4912109-5.4335928c.0371094-.4121094-.2666016-.7773438-.6796875-.8144531-.4160157-.040039-.7773438.2666016-.8144532.6796875z"/><path d="m61.9111557 17.9162617c.2236328 0 .4453125-.0996094.5927734-.2890625l3.6210938-4.6552725c.2548828-.3271484.1953125-.7988281-.1308594-1.0527344-.3300781-.2548828-.7988281-.1943359-1.0527344.1308594l-3.6210938 4.6552725c-.3855895.494915-.0259017 1.2109375.5908204 1.2109375z"/><path d="m68.852562 20.366457c-.1015625-.4023438-.5087891-.6464844-.9101563-.5449219l-5.171875 1.2978516c-.4013672.1005859-.6455078.5087891-.5449219.9101563.1020355.4046593.513073.6457691.9101563.5449219l5.171875-1.2978516c.4013672-.100586.6455078-.5087891.5449219-.9101563z"/><path d="m6.3310776 62.7873573 54.4356689-.4979248c.6456299-.0059814 1.3884277-.0587158 1.7728271-.5773926.4606934-.621582.0721436-1.5731201-.5883789-1.9760742-.6313477-.385376-1.4071045-.4078369-2.1501465-.4055176.182724-1.5714264-.828064-28.8045597-.9475098-40.0294189-.0048828-.4111328-.3378906-.7412109-.7490234-.7421875-2.9554481-.0056477-48.5225467-.092699-51.6289062-.0986347-.3489656 0-.6710868.2279968-.7282715.6524658-.7730103 1.0998535-1.4430542 2.852417-1.3703003 4.0549316.7598267 12.5589619.5574341 24.6335469-.2476806 37.2823506-.0809326 1.2709961.9281616 2.348999 2.2017212 2.3374023zm50.3295898-42.7308368c-7.8597031 6.8884907-15.1574783 15.2728062-22.7836914 21.8753681-9.293457-6.4061279-18.0335693-14.5888691-25.5043335-21.9675312zm-49.2631225 2.7142334c5.9000244 6.9885254 12.5789185 13.255373 19.857605 18.6323261 1.5976563 1.1801758 3.8292236 2.498291 5.7780762 2.6607666 1.6591797.1383057 8.1021729-6.1959229 10.8364258-9.5217285 4.3408813-4.3390923 8.8335037-8.9916058 13.5148926-13.121706.1889725 12.9987583.771122 24.3702602.9250488 37.095459-17.043026.4325218-33.843338.1496315-50.9326172.5800781.3399047-11.296751.5466918-23.4897442-.0036012-36.5522461z"/></g></svg>