<svg id="Layer_1" enable-background="new 0 0 68 68" height="512" viewBox="0 0 68 68" width="512" xmlns="http://www.w3.org/2000/svg"><g id="_x34_9"><path d="m28.3 63.9c-2.5.3-4 .6-4 1 0 .8 7.4 1.5 16.4 1.5 9.1 0 16.4-.7 16.4-1.5 0-.7-4.7-1.2-11.3-1.4 7.1-3.2 13.1-9.1 16-16.4 3.4-8.4 2.8-18.3-1.8-26.1-3.4-5.8-9-10.3-15.5-12.5-3.5-1.5-7.4-2.4-11.5-2.4-16 0-29.1 13.1-29.1 29.1 0 14.5 10.6 26.5 24.4 28.7zm4.7-56.3c15.2 0 27.6 12.4 27.6 27.6s-12.4 27.6-27.6 27.6-27.6-12.4-27.6-27.6 12.4-27.6 27.6-27.6z"/><path d="m33 60.1c13.7 0 24.9-11.2 24.9-24.9s-11.2-24.9-24.9-24.9-24.9 11.2-24.9 24.9 11.2 24.9 24.9 24.9zm-19.1-38.4 2 2c.3.3.8.3 1.1 0s.3-.8 0-1.1l-2.1-2.1c3.7-4.6 9.1-7.7 15.3-8.5v1.9c0 .4.3.8.8.8s.8-.3.8-.8v-2.1c6-.3 11.6 1.6 16 5.1l-1.1 1.1c-.3.3-.3.8 0 1.1s.8.3 1.1 0l1.2-1.2c4.3 4 7.2 9.6 7.6 15.8h-1.7c-.4 0-.8.3-.8.8s.3.8.8.8h1.8c0 6.3-2.6 12.1-6.7 16.3-.1-.5-.3-.5-1.6-1.8-.3-.3-.8-.3-1.1 0s-.3.8 0 1.1c1.4 1.3 1.4 1.5 1.8 1.6-3.7 3.4-8.6 5.7-13.9 6.2.1-.3 0 .4 0-2.4 0-.4-.3-.8-.8-.8s-.8.3-.8.8v2.5c-6.1.1-11.7-2-16.1-5.9l1.3-1.4c.3-.3.3-.8 0-1.1s-.8-.3-1.1 0l-1.4 1.4c-3.3-3.3-5.5-7.6-6.4-12.3h2c.4 0 .8-.3.8-.8s-.3-.8-.8-.8h-2.1c-.7-5.9.9-11.6 4.1-16.2z"/><path d="m29.8 19.9 1.6-1.6.2 13.9c-1 .4-1.9 1.3-2.1 2.4-.3 1.5.6 3.1 2.1 3.7 1.7.7 3.9-.2 4.6-2.1l9.8-.4c-.4.5-.7 1-1.1 1.3-.3.3-.3.8 0 1.1s.8.3 1.1 0c.7-.8 1.7-2.2 2.4-2.9.3-.3.3-.8-.1-1.1-.9-.8-2-1.5-3.1-1.9-.4-.2-.8 0-1 .4s0 .8.4 1c.5.2.9.4 1.3.7l-9.7.4c-.3-1.4-1.4-2.1-2.8-2.2-.1-.2-.3-.3-.4-.4-.1-3.5-.2-10.5-.2-13.9.7.5 1.3 1 1.9 1.6.3.3.8.3 1.1 0s.3-.8 0-1.1c-1-1-2.2-1.9-3.4-2.7-.3-.2-.7-.2-1 .1l-2.8 2.8c-.3.3-.3.8 0 1.1.4.1.9.1 1.2-.2zm5.1 14.8c.5 1.2-1.1 2.7-2.6 2.1-.8-.3-1.3-1.2-1.2-2 .1-.5.5-1 1-1.2.1.2.4.3.6.3.9-.1 1.9.1 2.2.8z"/><path d="m47 7.3c.4 0 .8-.3.8-.7.1-1.4.5-2.7 1.2-3.9.2-.4.1-.8-.3-1s-.8-.1-1 .3c-.8 1.4-1.3 2.9-1.4 4.5 0 .5.3.8.7.8z"/><path d="m50.7 9.5c.4.2.8.1 1-.2.9-1.4 1.9-2.6 3.2-3.7.3-.3.4-.7.1-1.1-.3-.3-.7-.4-1.1-.1-1.4 1.2-2.5 2.5-3.5 4-.1.4 0 .9.3 1.1z"/><path d="m53.9 12.4c.2.3.7.5 1 .2l3.8-2.4c.3-.2.5-.7.2-1-.2-.3-.7-.5-1-.2l-3.8 2.4c-.3.1-.4.6-.2 1z"/></g></svg>