<svg id="Layer_1" enable-background="new 0 0 500 500" viewBox="0 0 500 500" xmlns="http://www.w3.org/2000/svg"><path clip-rule="evenodd" d="m444.617 243.096.867-.649c-.573.431 1.119-.83-.867.649zm.131 3.927-.679-3.588c-.988-.988-2.476-.948-4.079-.608-6.194 33.968-25.06 89.816-68.366 60.098-7.675-2.957-16.727-5.493-24.91-8.496-9.88-2.598-21.977-11.06-32.842-8.123 6.935-5.227 15.172-4.197 23.118-2.108-30.177-65.827 18.076-98.755 49.155-150.575 4.181-7.96-5.649-10.428-9.188-3.272-26.49 28.083-59.514 99.347-101.719 56.965-7.268-3.441-15.056-6.382-21.821-10.467-4.205 6.586-8.306 12.026-10.12 19.738 17.472 8.747 32.196 11.778 31.326 34.723 3.425 30.822-5.082 60.723-10.164 90.742 24.66-.192 53.104-.949 77.339 1.784 0-2.295-.04-4.626.4-6.871-7.225-3.003-17.022-8.765-23.847-12.405-1.901-.832-8.041-3.661-10.003-5.402-4.441-3.94-1.671-12.201 4.966-14.022-2.441 1.908-4.704 3.7-5.245 7.257.089-.242.702-1.973.801-1.454.096.504-.351.306.091 1.976.239-.407 1.113-2.806 1.728-3.056.611-.248-2.405 4.099.634 6.284 1.061.763 46.599 20.167 50.391 21.815 5.73 2.517 7.547 12.095 7.87 12.517 1.221.266 4.247 5.374 1.357 8.772-1.458 27.351-4.234 62.229-5.964 89.546 1.856 2.854 10.015 2.78 11.012-1.023 0 0 5.022-20.893 5.022-20.893s7.657-30.932 7.657-30.932c1.483-6.004 10.892-5.753 12.192-.036l13.525 51.992c.935 2.203 9.326 3.23 9.314.011-13.431-116.857-2.86-81.387 21.049-180.889zm-79.913 181.815-.066-.036c.005 0 .061 0 .162.01-.035.011-.071.016-.096.026zm-31.479-7.834c-.158 8.322-8.004 11.414-9.755 1.256-.96-7.884-3.152-26.704-3.983-34.879-1.579-17.261-4.938-34.146-8.716-51.151 6.07-.311 14.674-.514 20.64-1.363-.583 27.531 1.174 58.106 1.814 86.137zm-41.731-83.897c-9.15 25.857-9.836 55.218-12.639 82.467-.282 3.996-.057 6.949-3.84 9.481-12.957 4.465-5.653-28.006-6.604-33.643.454-19.01 2.279-40.252-1.296-59.011.502-.115 23.376-.116 24.699-.137-.112.281-.218.565-.32.843zm46.449-52.833c.071.041.137.086.203.121-.086-.01-.157-.02-.243-.025.014-.035.024-.071.04-.096zm.952.223c-.01-.096.015-.182.025-.279.036.096.066.193.101.294-.04-.01-.085-.015-.126-.015zm95.512-46.159c-.548-.157-1.217-.35 0 0zm.126.035c.568.162.35.102 0 0zm-.223-.066.096.03c-.035-.014-.06-.014-.096-.03zm-274.99 44.001c.203-3.709.405-7.414.598-11.118-7.086-1.477-7.342-3.022-11.093 3.35-40.453 71.531-79.442 29.645-89.202-32.118-4.971.623-5.213 15.239-3.847 19.21 30.605 69.006 28.17 93.91 21.061 166.436 1.847 1.305 5.554.505 6.907-.628 2.959-10.95 10.911-40.858 13.819-51.916 1.718-7.009 12.869-6.686 14.32.152 4.148 17.275 8.11 35.012 12.522 52.194.517 2.012 6.855 2.953 9.06.639-1.117-20.368-5.828-71.587-5.488-91.407 1.179-10.846 6.444-18.211 12.522-26.477 5.427-8.768 13.045-19.501 18.821-28.317zm-82.523 146.454c0-.025 0-.051 0-.066zm15.39-351.62c-.015-.122-.025-.238-.03-.355.004.117.025.234.03.355zm366.923 176.413c2.448-17.098-9.388-30.821-26.727-23.275-4.989 2.414-5.429 5.243-6.516 9.897-2.735 11.703-4.799 20.993-8.564 32.376-3.558-6.923-11.65-10.209-19.15-8.792-3.758.624-1.839 1.228-1.844 1.439-.014.566-.542.377-.111.973-.461.167-.936.231-1.13.573.513.897 1.885 1.873 3 1.647.038-.008 1.245.253 1.297.735 13.048 5.566 13.613 25.906-2.62 28.139-16.66 2.565-19.711-20.992-6.987-27.896 3.119-.927.826-1.22 3.167-2.022.764-.262.494-.9 1.12-.953.547-.046-.148-.078 1.024-.948-2.487-5.252-9.324-4.253-13.941-3.015-10.737 4.283-15.839 18.205-13.053 28.96-8.873-1.683-18.722-4.953-27.526-6.689.437-3.929-2.581-12.115-2.174-13.256.458-1.253-1.924-5.186-1.54-8.458.128-4.475 1.341-23.9 1.364-27.851-.627-16.89 13.556-28.626 21.744-41.988 11.068-15.536 26.4-35.842 37.474-51.82 8.606-12.474.105-27.493-12.177-28.986-16.481-2.558-25.922 19.185-36.203 29.746.001.001-19.985 24.106-19.985 24.106-.397-12.874-11.223-25.05-24.831-22.534-4.231.57-2.053 1.197-2.062 1.418-.023.559-.637.429-.112.958-.506.153-1.089.236-1.297.563.501.887 2.297 1.92 3.476 1.703.07-.013 1.466.311 1.535.79 18.235 7.658 14.268 35.162-7.546 33.521-11.341-1.792-16.499-14.424-11.562-24.293 1.132-1.488.767-2.507 2.148-3.983.577-.531.037-1.162 2.645-2.792 1.966-1.229 1.549-1.892 4.672-2.686.482-.122.465-1.138 2.149-1.627.894-.26.534-.865 1.308-.963.649-.082-.174-.079 1.176-.958-3.043-5.425-10.406-4.017-15.37-2.609-12.115 5.128-17.607 20.991-13.849 33.115-4.959-1.539-9.56-2.721-15.42-3.314 15.746-24.301 40.038-61.894 55.737-85.939 13.674-20.465-13.886-40.626-29.245-24.272-14.932 18.757-37.337 48.134-51.535 67.366-.903-11.601-10.091-23.569-22.551-23.325-.596.185-8.949-.074-6.161 1.545-.467.969-.496.586-.122.963-.511.138-1.19.229-1.424.562 23.611 6.425 26.632 38.603-1.339 40.186-17.86-2.282-20.632-20.223-11.517-32.726.123-.55 2.006-1.921 2.498-2.23 2.546-1.596 1.855-2.014 5.225-2.914.561-.15.464-1.108 2.397-1.667 1.001-.289.609-.888 1.449-.978.712-.076-.168-.091 1.287-.968-13.098-12.324-31.378 6.316-32.239 20.467-15.116-18.832-29.362-36.726-45.233-55.184-5.646-8.074-15.803-16.72-25.478-9.112 5.886-3.477 14.279-.978 17.006 5.468 7.951 12.358 18.305 26.196 26.999 38.395 17.584 19.585 29.6 56.311 60.453 55.176 5.819-1.787 15.062 1.625 29.859-14.95 14.733-18.339 41.266-51.969 55.502-70.189 2.435-2.691 4.235-6.694 7.906-7.623 4.028-.827 6.526 3.162 5.392 6.294.552.423-57.966 88.716-59.461 91.469-8.003 12.375-13.626 20.279-13.707 36.778-1.116 66.19 6.26 142.928 9.238 208.905-.038 4.436 2.594 14.246-4.272 15.612-5.636 1.081-9.329-4.54-9.126-9.815-5.409-42.12-11.049-84.556-16.414-126.751-.666-6.823-12.081-6.875-12.754.035 0 0-15.628 129.798-15.628 129.798-1.261 11.901-17.054 8.682-15.354-1.627 2.247-55.962 6.771-121.512 7.942-177.309-1.454-23.005 4.658-48.199-10.587-67.827-1.931-5.447-73.488-99.399-67.344-103.767.166-1.493-.626.265-.727 2.757l.056 3.066c-1.147-2.316-.636-2.171-.932-3.157-.27-.899-.156 2.426-.137 2.741-1.239-5.431 1.213-11.081 5.351-14.538-16.705 10.366.545 28.694 7.12 39.602 14.532 23.711 30.461 47.493 45.044 71.096 12.303 15.713 13.218 29.387 12.094 48.952-1.023 16.406-.003 30.947-1.417 47.517-9.242-9.255-13.3-3.009-19.677 5.139 0-.001-8.701 10.21-8.701 10.21 2.26-13.676-15.817-30.397-27.308-22.996.986 2.837 5.562 5.874 7.531 8.807 16.721 17.81-9.408 40.054-21.847 16.632-2.942-9.675 4.259-18.904 11.402-23.275 3.65-1.674 1.578-1.322 1.541-1.793-.037-.473.576-.606-.005-.968.517-.207 1.137-.345 1.378-.699-1.876-2.276-5.487-.299-6.684-.851-.687-.641-2.604 1.163-3.932 1.408l-3.608 1.399-4.444 3.309c-1.802.611-2.255 1.938-3.917 4.226-4.215-11.77-5.916-22.557-9.035-34.753-2.787-8.266-16.196-10.863-23.254-4.793-28.483 30.33 26.362 88.505 18.359 129.514-.396 5.592-2.513 34.168-2.742 39.242.295 8.23-4.446 27.433-.255 34.818 7.33 11.874 28.494 9.219 32.063-4.176 1.874-7.946 5.843-23.767 7.86-31.661 1.318 3.606 7.63 34.118 10.433 36.319 8.332 10.683 28.482 6.485 29.863-5.194-1.695-28.111-5.227-62.356-7.813-90.626-.948-13.598 16.186-35.276 21.607-47.071 1.358 7.989-12.631 140.489-3.058 142.522 9.035 11.545 27.004 9.716 33.422-4.293 2.238-1.904 10.552-78.736 11.523-83.05 3.155 24.989 6.251 51.933 9.653 76.772 3.835 27.788 43.577 22.587 40.995-3.493-2.821-68.082-10.343-150.989-8.944-219.018 17.604 15.49 22.312 10.969 20.827 37.768 1.883 24.649-8.172 51.568-11.755 75.779-2.374 11.844-7.079 22.704 10.742 20.954-.09.698-.131 2.044-.532 2.351-1.971 16.747-4.381 39.328-5.27 56.71-.563 14.097-8.009 38.958 9.39 46.356 5.462 2.576 12.091 1.89 17.061-1.494 10.892-7.414 10.029-17.205 11.108-28.986 2.499-24.292 5.487-51 4.216-75.252l6.182.076c-3.569 18.036.177 40.533 1.389 59.025 3.123 15.072-.616 34.904 13.691 44.741 46.768 19.066 19.691-84.399 16.683-105.641 12.985-.32 18.078.405 12.43-13.88l9.542 5.103c5.255 9.89 2.171 16.66 1.388 27.309-1.482 17.749-4.232 51.803-5.751 69.404-6.436 20.911 27.848 28.868 33.826 8.229-.001 0 6.896-26.897 6.896-26.897l6.613 27.111c4.204 18.498 37.215 16.673 36.42-3.076-11.46-99.774-5.117-84.378 21.645-174.13zm-15.182-10.114c-.025.01 0-.005-.015 0z" fill-rule="evenodd"/></svg>