<svg id="Layer_1" enable-background="new 0 0 73 73" height="512" viewBox="0 0 73 73" width="512" xmlns="http://www.w3.org/2000/svg"><g id="_x31_25"><path d="m4.1126876 27.1566906c.0390625.2838135.2321167.5078125.4830322.6009521.203064.2840576.5422363.65979 1.241333 1.2160645.975647-.081543 2.2411494-.0877686 3.3057246-.0583496.3659945.8547592.696125 1.5151825 1.2015381 2.6046143-.56777.7410069-2.0964947 2.7191601-2.2576904 2.9472637-.2060037.3144264-.1717706.7518921.1372681 1.0054932 1.1517601 1.5428734 2.6669178 2.9822197 3.5306396 3.5692139.2627306.1506844.4889097.1930466.77948.0310059.3572998.1472168.727356.2735596 1.1417847.3483887 1.0831299-1.0075684 2.230957-1.9931641 3.158021-2.7875977.7407227.5166016 1.4451904.8830566 2.1272583 1.1243896.0525513 1.4786377.25177 2.9493408.6115723 4.3790283.1148911.4543419.6488094.7423477 1.1219482.4428711 1.7302856-.1601563 3.4636841-.4294434 5.1544189-.8061523.2871246-.0644455.5105438-.2730064.5917969-.6777344.2509155-1.2419434.3661499-2.5100098.3740845-3.7736816l.8561401-.315918c-.4749775 9.2574654-.4507675 18.9347267-.2459106 23.3353271.1585083 3.4021187.2110806 6.9700661 3.5805664 7.5907021.3110962.1066895.6390991.1772461.9859009.1772461h33.9980469c1.6884766 0 3.0625-1.3740234 3.0625-3.0625v-33.9980489c0-1.6884766-1.3740234-3.0625-3.0625-3.0625h-30.1940328c.1997681-.4692383.3660278-.9462891.5067749-1.4313965l3.861084-.4572754c.4282036-.0508556.7927971-.4800568.602356-.9980469-.4592247-4.6302681-.4355049-5.0800552-.5406494-5.1535645-.1266174-.2626152-.3706856-.4663067-.6779175-.4743652l-3.6959839-.0932617-2.1189575-3.2108154 3.2680664-3.3453379c.3681641-.3768396.2531853-1.0362263-.2861328-1.2268066-1.3439789-1.441473-2.920269-2.7011795-3.8740234-3.7810059-.3095131-.3511758-.8925934-.2858076-1.1523418-.0253906l-3.2420654 3.2241211c-.3153858-.0959702 1.1422482.3484745-3.0840454-.9399414-.4958496-1.2796631-.7846069-2.6590576-.8408813-4.0385742.2092533-.5066538-.1650162-1.0238471-.6748047-1.034668l-5.2353516-.109375c-.3140869-.0155029-.5842285.1755371-.7020874.447998-.2667255.3836832-.0942764.3147802-.3045654 4.4130859-1.129509.6637449-1.7912092 1.1165953-2.9400034 1.7963867l-3.3101198-2.5908202c-.4125319-.7565937-1.2564068-.1653318-1.156311-.1955566-1.177906 1.0686598-2.5370135 2.7601643-3.4853511 4.5654297-.1155396.2199707-.098938.4658203.0026855.6733398.0196533.1276855.0643921.2504883.1511841.3571777-.0146346.2381449-.112267 1.8187971-.1190796 1.9731455.6676521.5328255.8899617.6972408 2.7394404 2.3236084-.0298872.0603523-.6205101 1.2580109-.9142456 1.8560791l-3.9654536.6467285c-.6448631.1049061-.6505368.8693142-.6162112.7685547-.0395391 2.6300889-.1129262 3.512642.1220706 5.2304688zm24.860352.53125-.6191406 1.0839844c-1.9824219 2.5205078-5.6357422 3.4003887-8.7089844 2.0917969-.0009766 0-.0019531 0-.0029297-.0009766-3.0039063-1.2646484-4.9345713-4.7021484-4.4921885-7.9960938.1757021-1.3088646.6661501-2.3487148 1.4189463-3.4082031 3.7525139-5.2376328 10.942585-3.4136124 12.8251953 1.5322266.9208985 2.4121093.8085938 4.1142578-.4208984 6.6972656zm38.5790997 3.3613281v33.9980469c0 .8613281-.7011719 1.5625-1.5625 1.5625h-33.998045c-.8613281 0-1.5625-.7011719-1.5625-1.5625v-33.9980469c0-.8613281.7011719-1.5625 1.5625-1.5625h33.9980469c.8613262 0 1.5624981.7011719 1.5624981 1.5625zm-49.0509014-20.085206c.3209839-.074707.5706177-.34375.5831299-.689209l.1473389-3.8701172 3.8170166.0797119c.1077271 1.5581055.4603271 3.1132813 1.0649414 4.536499.1210938.2861328.3984375.4570313.6904297.4570313.00354 0 .007019-.0020752.0105591-.0021973 3.7340088 1.1393652 3.6864357 1.2001667 4.0343018 1.0593262.4450188-.0873804.2315922-.1159115 3.3873272-3.1757813 1.0974693 1.1124449 1.7536964 1.5831432 3.1243286 2.9954834l-2.9022217 2.9708252c-.0478516.0187988-.0979614.0280762-.1425781.0576172-.3457012.2275391-.4414043.6933603-.2128906 1.0390635 2.6557999 3.9089546 2.4571609 3.9759407 2.9277344 4.1503906.1331177.1737061.331665.2946777.5673828.3007813l3.2675781.0823975.3545532 3.7426758-3.1868286.3776855c-.0342407-.0136719-.0623779-.0368652-.0993652-.0455322-.4023438-.09375-.8066406.15625-.9013672.5595703-.192627.8222656-.5020752 1.6223145-.8844604 2.3964844-1.6288986.108017-2.7216988-.3136635-3.9652691.6044922l.1182861-.2080078c1.4257813-2.9892578 1.5595703-5.1376953.4941406-7.9267578-2.258852-5.9368782-10.8280792-8.1584072-15.4550791-1.8789063-4.3394489 5.9544544-.0362482 14.3847637 7.2617197 14.3847637 2.1679688 0 4.2861328-.7775879 5.8946533-2.1910381-.5451527 1.4071026-.6656647 3.0942478-.7415161 4.6051006l-1.8943481.7001953c-.2947998.1088867-.4781494.3835449-.4877319.6790771-.1459045.4664307.1081104 1.1206551-.3443604 3.6468506-1.3709717.2872314-2.7640991.5048828-4.1602783.6453857-.2380371-1.1239014-.3761597-2.2694092-.4120483-3.4217529.2737026-.4577065.0046921-1.00597-.4754639-1.1149902-.9873047-.2236328-2.0722656-.84375-3.3173828-1.8974609-.3322239-.2816658-.8997288-.2521324-1.1445932.2476807-1.0483398.9459229-2.1737061 1.8096924-3.3466187 2.5921631-.9289551-.7678223-1.7704468-1.6322021-2.5133057-2.5808105l2.1676025-2.8195801c.2068481-.2694073.1919556-.6292706.0021362-.8911114-.8512173-1.8434772-1.2007627-2.506815-1.6409912-3.6645508-.0044556-.3728027-.274231-.6958008-.6550903-.7373047l-4.0044551-.4438477c-.1265889-1.2710896-.06736-2.1557446-.0446168-3.7817383l3.2990718-.5380859c.0780029.0262451.156189.0546875.2353516.0546875.2659912 0 .5178833-.144043.6533203-.3894043.078186-.0926514.1369019-.1984863.163208-.3190918.6601877-1.3478184 1.2332067-2.4908981 1.7537842-3.5600586.1575928-.3237305.0514526-.6936035-.2196045-.9072266l.0106201-.0117188c-.3610353-.3384724-1.9236126-1.8736649-3.1268311-3.2045908.6763306-1.2077637 1.5041504-2.3101807 2.4672852-3.2932129 3.5420294 2.7023067 3.5134506 2.9089355 3.973999 2.9089355.2236328 0 .4433594-.0986328.5917969-.2880859.0214233-.0273438.027771-.0603027.0447998-.0895996 1.1747827-.6896467 2.0589361-1.2875461 3.1708994-1.9331054z"/><path d="m58.226944 50.8461418c0-.4140625-.3359375-.75-.75-.75h-3.578125c-.4140625 0-.75.3359375-.75.75v2.828125h-19.0664063c-.4140625 0-.75.3359375-.75.75s.3359375.75.75.75h19.0664063v2.2773438c0 .4140625.3359375.75.75.75h3.578125c.4140625 0 .75-.3359375.75-.75v-2.2773438h2.1855469c.4140625 0 .75-.3359375.75-.75s-.3359375-.75-.75-.75h-2.1855469z"/><path d="m33.2572174 40.1293449h2.2773438v2.5527344c0 .4140625.3359375.75.75.75h3.5771484c.4140625 0 .75-.3359375.75-.75v-2.5527344h18.9755859c.4140625 0 .75-.3359375.75-.75s-.3359375-.75-.75-.75h-18.9755859v-2.5527344c0-.4140625-.3359375-.75-.75-.75h-3.5771484c-.4140625 0-.75.3359375-.75.75v2.5527344h-2.2773438c-.4140625 0-.75.3359375-.75.75s.3359375.75.75.75z"/><path d="m45.8949127 11.93501c-.4052734-.0263672-.7783203.2646484-.8164063.6777344-.1875 2.0175781-.7207031 3.9707041-1.5830078 5.8046885-.1757813.375-.015625.8222656.359375.9980469.1035156.0488281.2119141.0712891.3183594.0712891.2822266 0 .5517578-.1591797.6796875-.4306641.9365234-1.9921875 1.5146484-4.1123056 1.7197266-6.3046885.0380859-.4121095-.2646484-.7773438-.6777344-.8164063z"/><path d="m47.2015533 21.6889172c.2001953 0 .4003906-.0800781.5478516-.2382813l3.8535156-4.1279297c.2832031-.3027344.2666016-.7773438-.0361328-1.0595703-.3017769-.2841806-.7773438-.2675791-1.0595703.0361328l-3.8535156 4.1279297c-.2832031.3027344-.2666016.7773438.0361328 1.0595703.1445312.1357422.328125.2021485.5117187.2021485z"/><path d="m49.4085846 25.5551281c.0996094 0 .1992188-.0195313.2958984-.0605469l3.8515625-1.6552734c.3808594-.1640625.5566406-.6044922.3935547-.9853516-.1640625-.3818359-.6074219-.5537109-.9853516-.3935547l-3.8515625 1.6552734c-.3808594.1640625-.5566406.6044922-.3935547.9853516.1220704.2841797.3994141.4541016.6894532.4541016z"/></g></svg>