<svg id="Layer_1" enable-background="new 0 0 68 68" height="512" viewBox="0 0 68 68" width="512" xmlns="http://www.w3.org/2000/svg"><g id="_x31_17"><path d="m32.3588715 37.4933281c7.5683594 0 13.7255859-6.1567402 13.7255859-13.7246113s-6.1572266-13.7250977-13.7255859-13.7250977c-7.5673828 0-13.7246094 6.1572266-13.7246094 13.7250977s6.1572265 13.7246113 13.7246094 13.7246113zm0-25.9497089c6.7412109 0 12.2255859 5.484375 12.2255859 12.2250977s-5.484375 12.2246113-12.2255859 12.2246113c-6.7402344 0-12.2246094-5.4838886-12.2246094-12.2246113s5.484375-12.2250977 12.2246094-12.2250977z"/><path d="m27.562973 25.7692051-.890625 5.1938477c-.0478516.2817383.0673828.565918.2988281.7338867.2285156.1665039.5361328.1894531.7890625.0571289l4.6640625-2.4526367 4.6650391 2.4526367c.109375.0576172.2294922.0859375.3486328.0859375.1552734 0 .3105469-.0483398.4404297-.1430664.2314453-.1679688.3466797-.4521484.2988281-.7338867l-.890625-5.1938477 3.7734375-3.6787109c.2041016-.1992188.2783203-.4975586.1894531-.769043-.0878906-.2714844-.3222656-.4692383-.6054688-.5102539l-5.2148438-.7578125-2.3320313-4.7255859c-.2539063-.5117188-1.0917969-.5117188-1.3457031 0l-2.3310547 4.7255859-5.2148438.7578125c-.2832031.0410156-.5175781.2387695-.6054688.5102539-.0888672.2714844-.0146484.5698242.1894531.769043zm2.4628906-4.2880859c.2451172-.0356445.4560547-.1889648.5654297-.4101563l1.8330078-3.7163086 1.8339844 3.7163086c.109375.2211914.3203125.3745117.5654297.4101563l4.1015625.5961914-2.9677734 2.8930664c-.1767578.1723633-.2578125.4204102-.2158203.6640625l.7001953 4.0844727-3.6689453-1.9287109c-.109375-.0571289-.2285156-.0859375-.3486328-.0859375s-.2402344.0288086-.3486328.0859375l-3.6679688 1.9287109.7001953-4.0844727c.0419922-.2436523-.0390625-.4916992-.2158203-.6640625l-2.9677734-2.8930664z"/><path d="m13.3600922 31.2879429c-.7840576 1.8095722-.5003662 4.0370502.7121582 5.5922871 1.2125244 1.5552979 3.3034668 2.3737183 5.2495728 2.0548096.2414551 1.6146851 1.0238647 3.131958 2.159668 4.3026733-2.7634029 6.2481651-5.4112072 12.2761879-9.3042603 17.822998-.3291016.4702148-.3623047 1.0732422-.0849609 1.5737305.2705078.4892578.7910156.7822266 1.3457031.746582 3.6210842-.2232323 5.2374725-1.8280983 7.7216797-3.4350586.3623047-.234375.7285156-.5688477 1.0302734-.9272461-.1513672 1.8310547-.2197266 4.6313477-.1992188 6.2836876.0189629 1.168251 1.3436146 1.8559036 2.3212891 1.1816406 4.7224045-3.3123093 5.9889355-8.9054298 7.7988281-13.7651329.4052734-1.1481934.8101196-2.2975464 1.21521-3.4466553 1.8826027 6.0226402 3.122818 11.6754723 7.6343994 15.0941124.2607422.1938477.5703125.2929688.8828125.2929688.7817116 0 1.4485474-.6129761 1.4746094-1.3998985.0791016-1.6196289.1113281-4.4106445-.0292969-6.2573242.9118843.9158363.7546654.6932564 2.8818359 2.2651367l.5351563.394043c1.4892578 1.1137695 3.296875 1.8007813 5.2275391 1.9858398 1.2193108.1162796 2.0218697-1.2403183 1.3505859-2.2783203-3.5117188-5.3792725-5.9543457-11.3406982-8.2739258-17.1547852.5628777-.8372383.9121246-1.7545662 1.2426758-2.6801147 2.2280273.40625 4.6516113-.6107178 5.9226074-2.4852905 1.270874-1.8745728 1.3186035-4.5023193.1164551-6.4218159 2.108345-1.182169 3.3962212-4.0555859 1.9945068-6.7363892-.3244629-.8369141-.8803711-1.581665-1.5941162-2.1260986 1.2519531-1.4658203 1.7089844-3.6040039 1.0791016-5.4379883-.5966797-1.7392578-2.2802734-3.527832-4.2861328-4.0107422.5546875-1.9487305-.0087891-4.2143555-1.4912109-5.6123047-1.4804688-1.394043-3.7685547-1.824707-5.6787109-1.159668-.5878906-2.1425781-2.4873047-3.9155273-4.7001953-4.2397461-2.0585938-.2988281-4.2158203.6762695-5.4541016 2.3300781-1.0507814-1.4541015-2.8789064-2.3364256-4.6914064-2.116699-1.9580078.2353516-3.6376953 1.7265624-4.2041016 3.5874023-3.4408054-1.2204719-7.9327679 2.6364784-6.859375 6.769043-1.2753906.2880859-2.7666016 1.2475586-2.9433594 1.3881836-.6429443.5088501-1.1587524 1.1280518-1.5234985 1.8097534-1.3833084 2.0757961-1.4349785 4.7533264-.402771 6.809082-2.8650388 2.8844394-1.9226036 7.7977866 1.8239747 9.4072265zm17.3366699 20.9314594c-1.7462444 4.7041359-2.9709053 10.0214043-7.2060547 13.0610313-.0205078-1.614254.046875-4.3515587.1933594-6.1318321.123003-1.3346786-1.4723263-2.1045456-2.453125-1.2026367-.9630127.8779488-.3679028.3476944-3.1572266 2.2763672-.1030579.0523987-1.8434906 1.452076-4.6679688 1.6992188 3.8757324-5.5221558 6.625061-11.6953125 9.2718506-17.6799927 2.104166 1.4318466 4.7225189 1.6823425 6.9121704.9307861.7588501.7712402 1.8037109 1.2441406 2.8876343 1.3936768.0335693.1062012.0658569.2111816.0996704.3173218-.6243286 1.7792968-1.2526245 3.5585937-1.88031 5.3360595zm16.3652344 5.8408203c-2.2211418-1.6382256-1.8911743-1.2950325-2.71875-2.1240234-.9704552-.950058-2.5735397-.1944008-2.4941406 1.1103516.0791016 1.800293.0458984 4.5888672.0117188 6.1201172-4.267601-3.2332344-5.2563858-8.6001205-7.8162842-16.6179199 1.507019-.2562866 2.876709-1.2350464 3.593689-2.5859985 1.878933 1.0180855 4.4286499.9369736 6.2478638-.5206909 2.2679443 5.6688843 4.6912842 11.4520874 8.1915283 16.7119141-3.0544702-.2923166-4.6805307-1.9006197-5.0156251-2.0937502zm-30.0410157-44.7744159c.0058594 0 .0107422.0004883.015625.0004883.2353516.2460938.6162109.3081055.9228516.128418.3574219-.2094727.4765625-.6689453.2666016-1.0263672 0 0 0 0 0-.0004883-1.9692307-3.3539104 2.5016022-7.3905525 5.1640625-5.5449219.2226563.1547852.5117188.1762695.7548828.0585938.2441406-.1181641.4052734-.3583984.421875-.6289063.0986328-1.6083984 1.4814453-3.0737305 3.0820313-3.2661133 1.5898438-.1938477 3.2900391.9033203 3.7685547 2.4428711.2118034.6845388 1.1730423.7023506 1.4189453.0390625.6669922-1.7905273 2.6660156-2.9746094 4.5615234-2.7001953 1.890625.2768555 3.4707031 1.987793 3.5966797 3.8950195.0356903.5615921.6564102.8804836 1.1347656.5932617 1.4921875-.8994141 3.5693359-.6743164 4.8349609.5185547 1.2666016 1.1933594 1.6123047 3.2553711.8046875 4.7963867-.2612038.4973297.0993309 1.0981445.6640625 1.0981445h.0048828c1.7001953 0 3.3964844 1.6142578 3.9150391 3.1240234.5419922 1.5805664-.0224609 3.4707031-1.34375 4.4946289-.4450645.3447685-.3642845 1.0437984.1513672 1.2763672.9628906.434082 1.6855469 1.3476563 1.8867188 2.3842773.1533203.7871094-.0859375 1.8374023-.640625 2.8540039-.2041016.3046875-1.2265625 1.3999023-1.7021484 1.715332-.6466064-.1448135-1.1540375.5687447-.796875 1.1328125 1.2070313 1.9077168.7539063 4.899416-.9306641 6.1567402-.96875.7226563-2.3662109.8876953-3.4755859.4111328-.5188293-.2247581-1.0932579.1907234-1.0429688.7543945.1396484 1.5917969-.7978516 3.265625-2.2275391 3.9794922-1.4316406.7148438-3.3330078.4570313-4.5205078-.6103516-.453701-.4070625-1.1783409-.1304283-1.2460938.4750977-.1533203 1.3754883-1.2919922 2.6186523-2.6484375 2.8916016-1.3574219.2744141-2.8867188-.4321289-3.5595703-1.6401367-.2128277-.3820801-.7088184-.5042686-1.0771484-.2558594-1.6289063 1.1079102-3.9960938 1.1054688-5.6230469-.0083008-1.6279297-1.1132813-2.4892578-3.3164063-2.046875-5.237793.1298847-.5666733-.4055176-1.0606079-.9677734-.8798828-1.5957031.5292969-3.5263672-.0385742-4.5810547-1.3496094-1.0566406-1.3120117-1.2001953-3.3154297-.3408203-4.7641621.2810163-.4760494-.0315971-1.0814285-.5800781-1.1293945-1.75-.1523438-3.3105469-1.7612305-3.4082031-3.5141602-.1005859-1.7822266 1.2753906-3.5292969 3.0673828-3.8950195.8454695-.1724758.7717686-1.4160709-.09375-1.4829102-1.3188505-.1002045-3.1322536-3.82131-.2109375-6.1347656.4589843-.363281 2.071289-1.1513669 2.626953-1.1513669z"/><path d="m53.6762543 4.5577793c-.375-.168457-.8222656-.0004883-.9902344.378418l-1.0634766 2.3793945c-.1689453.378418 0 .8217773.3789063.9907227.3720207.167593.8203888.0034018.9902344-.378418l1.0634766-2.3793945c.1689452-.378418-.0000001-.8217774-.3789063-.9907227z"/><path d="m55.5043793 7.3019199c-.59375.7045898-1.2851563 1.3168945-2.0537109 1.8203125-.6219215.4064388-.3345146 1.3774414.4111328 1.3774414.140625 0 .2832031-.0395508.4091797-.1225586.8916016-.5830078 1.6923828-1.2924805 2.3798828-2.1083984.2675781-.3168945.2265625-.7900391-.0898438-1.0571289-.3164063-.2651367-.7890625-.2265625-1.0566406.090332z"/><path d="m54.5063324 12.2877598c-.0146484.4140625.3095703.7617188.7236328.7763672.1148491.004096 2.0447426.0726089 2.1582031.0766602.4023438 0 .7353516-.3183594.75-.7231445.0146484-.4140625-.3095703-.7617188-.7236328-.7763672l-2.1318359-.0761719c-.4111328-.0180665-.7607422.3095702-.7763672.7226562z"/></g></svg>