<svg id="Layer_1" enable-background="new 0 0 500 500" viewBox="0 0 500 500" xmlns="http://www.w3.org/2000/svg"><path clip-rule="evenodd" d="m441.304 146.694c-.054.035-.079 0-.144-.01h.148zm-18.741 51.585-.075-.232.079.25zm-50.531-.138c-.03.155-.114.347 0 0zm-19.133-50.42h.188c-.059.01-.118.018-.188 0zm1.229-3.613.129.112-.164-.12c.01 0 .025.008.035.008zm94.699-5.285c-6.209-6.708-25.852-1.29-35.114-1.791-1.119 1.135-12.635-29.164-11.561-21.168-1.053-.433-.996-1.052-.996.172-.332-.731-1.184-2.713-1.7-3.174-.979 5.132 3.64 13.719 3.057 15.462 4.012 23.674 16.603 16.466 35.57 18.36-25.56 18.455-28.265 13.453-17.443 45.342-24.642-19.069-22.001-18.672-46.551-.31 10.167-29.377 9.576-26.689-15.283-44.107 10.479-1.464 28.767 3.12 30.961-11.061 2.022-7.867 5.257-16.393 6.245-24.241.279-.771 1.162-.559 1.823-1.038.65-.471 1.18.302 1.442.269.6-.113 1.006.362 1.437.916l-.069-2.507c-.096-.226-1.25-2.352-1.71-2.604-10.384-5.965-16.201 19.764-20.481 26.506-8.657.599-28.03-3.383-33.984 2.577-14.655 15.012 11.534 26.198 20.769 34.109l-7.295 23.246c-3.516 12.062 9.938 20.673 19.257 13.492 5.559-4.058 14.551-10.956 20.03-14.971 5.514 4.054 14.557 10.036 20.168 14.133 9.573 6.876 20.324-1.953 17.77-11.607-2.549-7.703-5.544-17.51-8.434-25.209 7.628-7.897 33.138-16.947 22.092-30.796zm-65.571 190.951c.509.839-.076 1.791.025 1.973.159.288-.215.078-.124.197-1.224 4.139-1.444 8.879-4.762 12.118-3.989 1.83-11.358-1.962-11.175-5.916-.387-.389.142-.027-.57-1.132.153-.52-.241-1.54.545-1.928-.007-.1.882-1.757.976-1.895.153-.336-.225-.084.664-1.461.055-.087 0-.234.183-.252.374-.028.036-1.311 1.115-2.118 1.964-1.469 2.382-2.149 3.732-3.831 1.331.059.887-.6 1.918-.546.448.024-.43-.734.292-.432 1.025.429-.298-.799 1.789-.009.899.529.837.678 1.61 1.012.934-.14 3.15 3.523 3.782 4.22zm-164.352-249.334c.205-1.309 1.538-5.894 3.553-5.958.185-.295.167.161.238.007 9.437-3.389 17.593-4.727 15.263 8.494-.242.173-.31 1.516-.729 1.245-.194-.126-.392.656-.659.614-.385-.061-1.064 1.066-1.224 1.391-.567.138-1.093.976-1.938.494l-4.039.234c-2.114.706-5.359-1.234-7.577-1.212-.606-1.197-1.046-.598-1.432-1.392-.199-.408-.413.748-.52-.035-.135-.983-.445.284-.738-.89-.376-1.505.089-.843-.198-2.992zm-85.486 23.548c-.189-2.359.903-2.154.922-2.594.015-.35.219.039.198-.112 3.072-2.915 5.743-7.041 10.173-8.131 4.38.385 8.848 7.364 6.745 10.69.144.486-.162.011-.079 1.264-.407.395-.496 1.412-1.427 1.402l-3.38 2.222c-.338-.166-.683 1.118-2.022 1.28-2.587.312-3.013.703-5.144 1.461l-.481-.302c-.455 0-.977.131-1.457-.182-.362-.236.003.851-.466.232-.607-.801-.221.482-1.085-.406-1.232-1.267-.282-.529-1.363-2.153-.25-.376-.544-.285-.689-1.539zm-35.402 28.869c-.284-.915.527-1.704.481-1.902-.079-.338.231-.021.168-.164 4.653-9.318 8.83-15.791 16.799-4.784-.047.291.851 1.314.366 1.392-.233.038.182.738-.03.892-.327.239.001 1.517.119 1.858-.284.464-.139 1.526-1.021 1.72-.01.089-1.312 1.47-1.432 1.574-.224.279.172.182-1.021 1.247-.074.067-.064.232-.238.199-.384-.076-.337 1.212-1.625 1.754-2.535 1.066-2.677 1.35-4.594 2.743l-.545-.164c-1.605.528-1.576-.186-1.576.674-2.677.102-4.964-3.898-5.851-7.039zm-25.55 39.262c-2.728-3.044.344-5.895.555-9.003 1.385-9.208 8.196-8.527 13.578-3.52.036.311 1.168 1.044.718 1.253-.28.13.309.11.139 1.22l.357.83c-.178.027.139.354.292.579-.149.539.269 1.477-.54 1.93.065.04-.926 1.797-.981 1.893-.164.383.25.024-.659 1.461-.054.087-.005.242-.183.252-.607 1.371-.278 1.475-1.115 2.118-2.115 1.627-2.205 1.945-3.731 3.833-1.349-.065-.868.6-1.923.544-.438-.023.434.737-.292.432-1.011-.424.306.796-1.789.009-2.125-1.174-2.921-1.717-4.426-3.831zm-2.369 31.489-1.075 5.223c-.355.12.312 1.209-.525 2.335-1.788 2.405-1.467 2.175-2.607 4.661-1.007.236-.573.29-1.179.761-.821.431-.692.249-.401.745.093.158-.358-.188-.768.147-.144.117.716.369-1.259.337-2.604-.887-2.317-.111-5.268-2.544-3.403-2.026-1.172-5.755-1.838-8.405-.955-9.443 5.069-10.986 12.23-7.36.117.303 1.387.703 1.016 1.029-.176.155.521.545.416.787-.191.439.446.716.426.821 1.176 1.415.193.335.832 1.463zm-16.794 57.344c-3.129-1.224-2.073-2.116-2.542-2.42-.292-.189.153-.17.005-.234-.991-4.14-3.214-8.481-1.943-12.869 2.576-3.587 10.762-3.995 12.632-.484.439.112.069.223 1.055.701.131.503.98 1.17.496 1.936.023 1.615.324 1.94.233 4.04-.317.219.626 1.105.094 2.396-1.059 2.57-.89 2.691-1.313 5.188l-.501.26c-.234.412-.377.909-.887 1.167-.409.207.765.416-.04.519-1.018.13.573.629-1.541.908-1.036-.068-1.741-.096-2.666.028 0-.002-3.082-1.136-3.082-1.136zm16.125 41.149c-1.018.916-.174 1.033-.971 1.746-.32.287.836.219.099.511-.923.366.399.32-.669.933-1.52.873-.581.128-2.438.763-.405.139-.431.45-1.665.267-1.672-.198-4.723-.113-5.406-1.945-.327-.1.099-.216-.054-.225-2.082-4.079-5.286-6.901-5.209-11.943 1.514-4.128 9.42-6.622 12.082-3.729.52-.016-.067.146 1.199.407.275.497 1.239.857.981 1.738l1.263 3.84c1.249 1.91.183 5.377.788 7.637zm197.138-216.93c-.101-.431.381-.629.604-.761-.07-.502.132-.431.258-.96.083-.348-.591-.686 1.021-1.462 8.163-5.555 17.312.317 26.076 1.798-1.479-3.73-1.132-8.556 2.597-12.09.96.099.931-.208 1.07.01.188.294.787-.18 1.1.13.743.735 1.671-.218 2.171 1.158.236.651 1.129.625 1.556 1.402.769 1.399 1.452 1.199 1.635 1.487.201.349.973.875 1.521 1.022 8.496 12.96 25.146 29.752-1.903 30.7 0 0-13.275 1.522-13.275 1.522-.487.332-.636-.354-.862-.354-.625 0-3.005.096-3.736-.234-.637-.288-1.311.986-1.635.252-.951-.862-1.849.838-2.978-1.289l.476-.751c-.313-.348-.077-.517-.163-.987-.063-.342-1.067-.293.486-1.789 4.118-3.969 2.925-4.375 8.484-6.167-5.673-1.641-12.846-5.844-19.009-7.948-.468.102-.247-.568-.426-.656-.33-.18-2.069-1.131-2.369-1.618-.311-.506-1.255.401-1.189-.379.054-.646-.725-.476-1.12-.735zm-91.919 3.285c.062-1.301.04-5.756 1.977-6.355.094-.323.204.092.223-.052 8.799-5.397 14.446-9.68 16.967 3.355-.01.374-.02 2.445-.406 2.301-.276-.102.059.456-.758.96l-.337.838c-.149-.102-.154.354-.208.623-.716.389-.347.965-1.74.978-.462.004-3.601 1.471-3.84 1.262-1.905 1.237-5.359.194-7.631.786-.738-.801-.486-.304-1.249-.639-.771-.498-.563-.488-.837.017l-.56-.58c-.739.627-1.286-3.08-1.601-3.494zm245.735 186.092c.737 4.411-.895 8.204-4.177 10.671-.962-.198-.939.091-1.065-.129-.183-.317-.781.104-1.08-.252-.685-.815-1.689.024-2.017-1.401-.142-.617-1.076-.787-1.397-1.564-.623-1.508-1.286-1.323-1.457-1.661-.049-.198-.181-.348-.446-.432-.02-.312-.367-.467-.694-.623-.56 4.808-5.119 13.789-7.25 18.827.066.515-.585.229-.679.414-.158.264-1.315 2.044-1.878 2.344-.511.272.251 1.336-.525 1.195-.633-.115-.575.705-.877 1.072-.149.174-1.887.62-2.022-.459-8.531-3.869-.617-20.085-.595-27.423l-1.125.952c-.227.534-.723.051-.927.162-.935.512-2.214 1.657-3.271 1.808-.697.099-.569 1.533-1.244 1.09-1.225-.258-1.118 1.712-3.201.511l-.01-.892c-.402-.085-.409-.48-.664-.743-.24-.247-1.055.318-.555-1.773.637-9.555 9.011-14.783 14.663-21.603 10.964-15.796 19.806 11.12 22.493 19.909zm-228.847 138.743c.461 2.269-2.457 8.566-5.491 8.293-.261.239-.116-.213-.228-.06-4.134.118-6.245.078-10.644-.147 0 0-2.289-1.307-2.289-1.307-2.427-1.294-.683-9.936-.084-9.936.208-.337 1.231-2.095 1.497-1.78.196.232.09-.379 1.14-.459l.719-.563c.064.164.302-.224.48-.432.574.019 1.355-.647 1.997.025.061-.05 1.953.409 2.086.451.315.053.125-.223 1.591.259.094.035.223-.062.282.113.122.361 1.219-.31 2.339.527 2.26 1.689 2.21 1.522 4.668 2.603l.119.554c1.32 1.182.603 1.434 1.378 1.03l.198.778c.113-.149.173-.036.242.051zm44.322 6.761c-.197 1.282-1.527 5.895-3.563 5.96-.168.296-.177-.159-.228-.01-9.928 2.9-16.444 5.56-15.52-7.627.112-.375.637-2.338.986-2.112.188.122.39-.643.649-.614.687.077 1.23-2.376 3.161-1.885 1.123.132 2.971-.452 4.039-.232.207.312 1.095-.61 2.398-.095 2.778 1.099 2.489.852 5.188 1.313l.258.503c.365.205.937.391 1.179.881.198.4.411-.751.515.044.127.97.458-.292.738.881.361 1.506.001.931.2 2.993zm44.262-8.016c-.077 1.347-.04 5.735-1.982 6.355-.092.318-.206-.078-.223.052-1.373 1.388-3.461 1.547-4.465 2.663-1.554.64-4.643 3.108-6.893 2.464-.015-.025-.035-.015-.039-.008-3.846.228-5.728-7.31-5.546-9.382.194-.273-.08-1.545.377-1.384.291.102-.12-.326.763-.97l.337-.838c.139.113.149-.346.198-.613.539-.303.795-1.208 1.749-.978l3.84-1.27c1.658-1.212 5.427-.188 7.626-.788l.391.422c.4.122.995.122 1.358.546.293.341.2-.828.505-.095.376.902.369-.385.946.666.784 1.462.217 1.097 1.058 3.158zm41.224-15.524c.191 2.346-.895 2.129-.917 2.594-.016.337-.218-.037-.208.104-1.95 2.504-3.671 3.219-5.743 5.864 0 0-2.309 1.73-2.309 1.73-.418.067-1.769.319-2.116.544-3.573.123-6.943-5.833-7.295-7.843.123-.276-.487-1.456 0-1.436.307.012-.206-.322.486-1.132l.104-.898c.164.068.064-.381.035-.65.607-.576.099-1.033 1.427-1.4.525-.145 3.058-2.367 3.38-2.214 1.979-1.46.54-1.005 2.681-1.349 1.751-.281 2.94-.792 4.49-1.402l.486.304c.435 0 .988-.121 1.452.182.372.243-.017-.865.466-.227.592.783.229-.466 1.08.399 1.892 2.076 2.15 4.301 2.501 6.83zm35.407-28.875c.282.905-.538 1.71-.486 1.91.084.325-.234.008-.164.155-2.145 3.484-3.77 8.342-7.73 10.474-4.317.737-10.439-4.754-9.272-8.587-.232-.404.103-.239-.258-1.246.416-.677-.188-1.011 1.016-1.721l2.7-3.01c.363.065.342-1.223 1.616-1.764 2.675-1.137 2.431-1.195 4.604-2.741 1.32.422.926-.356 1.997-.027.411.126-.237-.825.387-.346.805.618.069-.524 1.149.113 1.539.907.788.862 1.214 1.107l1.278 1.1zm-20.853-177.486-.287.112.416-.182zm-5.337 5.421c-.231 2.491-15.671 11.68-17.586 13.64-2.398 1.725-3.462 4.943-2.334 7.808 3.839 8.298-3.88 13.889-10.58 7.714-2.609-2.458-6.485-2.662-9.583-.407-7.978 6.057-24.474 18.679-32.146 24.915-11.175 9.596-28.913 19.616-28.404 36.797-.094 29.028.491 70.477.257 99.688-13.965.03-27.283.863-41.185 1.437-1.675-36.685 8.207-80.065-35.987-94.992.226-.038.549.235.659-.069.876-2.432.221-.534 2.929-3.434.028-.03.886-1.175 1.224-1.14 10.178-12.066 22.597-23.839 36.433-32.198 0 0 .902-.527.902-.527.235-.471.485-.932.892-1.09.135-.572.653-.247.803-.943.113-.527 1.75-.924 2.666-2.016 14.693 3.6 33.048-8.083 37.577-18.239 29.527-12.167 64.001-26.674 93.579-40.057-.002 1.345.167 1.693-.116 3.113zm-203.45 189.862c16.169-.362 32.881-.207 48.98.242 1.883-46.796 5.621-93.778-55.58-90.797-42.703 15.535-32.145 54.555-33.315 90.607 10.539-.079 29.654.05 39.915-.052zm214.882-185.961c-1.103 6.933-13.493 13.342-18.236 17.453 4.123 19.072-14.329 28.721-28.538 20.685-10.53 11.168-53.147 35.974-50.879 49.354.539 31.817 1.116 65.065.586 96.776 1.139 19.165-4.686 16.774-20.729 16.308-46.962-1.259-96.614-.802-144.262.358-4.084.059-7.444-3.203-7.508-7.284.968-38.696-9.935-88.047 37.305-103.249-26.32-15.486-16.037-66.057 17.276-60.962 2.933.724 2.102 1.706 4.494 3.286-1.711.93-.712.929-1.531 1.012-1.008.102-.519.692-1.734 1.02-22.491 6.677-26.394 41.219-2.085 47.41 34.822 4.658 37.668-40.996 5.35-48.109.29-.348 1.096-.416 1.69-.563-.504-.442-.34-.047.134-.985-2.846-1.718 6.194-1.504 7.16-1.444 14.566.286 25.086 14.213 25.828 27.907 5.156-5.33 11.123-10.924 18.112-13.777-26.224-15.543-15.901-65.979 17.36-60.91 2.967.751 2.094 1.723 4.504 3.295-.431.234-.857.356-1.105.848-.145.301-.764-.072-1.239.614-.596.861-2.008.387-3.32 1.982-20.972 6.824-22.531 40.787.314 45.998 35.05 4.579 37.455-41.088 5.35-48.11.289-.345 1.247-.468 1.685-.561-.496-.435-.348-.043.134-.995-2.364-1.058 1.792-1.294 2.601-1.4 22.254-2.592 35.375 21.987 28.9 41.25 29.129-17.531 60.775-33.164 91.473-47.305 8.637-3.731 13.562 10.29 10.91 20.098z" fill-rule="evenodd"/></svg>