<svg id="Handrawn" enable-background="new 0 0 512 512" height="512" viewBox="0 0 512 512" width="512" xmlns="http://www.w3.org/2000/svg"><path d="m164.566 183.147c.027.011.053.023 0 0zm0 0c-.051-.022-.025-.01 0 0zm19.048 35.09c.388-.236-.382.232 0 0zm71.182-191.475c-.934.053.195 0 0 0zm181.667 199.847c-4.955 2.433-9.904 4.868-14.857 7.285 4.461 14.917 3.524 61.08 3.035 66.992-.603 6.834-2.872 86.41-6.441 86.769-.001 0-.002 0-.002 0s0 .001.001.002c5.234 9.188-88.776 44.897-91.224 39.101 3.958 6.767-39.741 24.391-43.469 25.771-4.352 1.648-45.372 17.959-47.759 14.324 0 0 0-.002-.001-.002.001.001.001.001.001.001.458.695.227.353.006.02 3.552 6.972-84.069 45.058-92.403 45.128-1.103.01-2.51-1.253-3.559-1.521-8.857-3.829-17.742-7.577-26.784-10.956-4.32-1.614-47.339-14.162-46.681-17.632l.001-.003-.001.003c-.162.853-.078.4-.003-.004-10.697-.031-7.18-75.152-.412-79.037-.465-1.269-.851-2.881-1.311-5.045 22.498-9.24 39.578-15.835 48.632-18.729-1.664-11.345 7.68-29.922 9.618-35.67-.09-8.257 6.081-17.011 9.273-24.313 7.819-17.884 15.962-35.602 24.284-53.257 3.097-6.556 5.115-49.054 7.549-69.6-1.01-4.53-1.82-14.132.61-13.091-.058-.024.236 2.177.676 4.804.425-1.852.868-2.872 1.335-2.798.594.097 1.035 5.065 1.361 12.077 2.199 2.357 5.433 3.793 8.357 4.878 9.402 2.839 18.879.761 28.101-1.833.057-.017 8.2-1.642 8.957-2.993.972-1.735-.31-5.868-.203-7.843.071-7.616 2.758-15.763 4.343-23.18 2.316-10.833 4.501-21.863 3.791-33.002 3.327-3.725 6.176-2.706 8.441-.365.145-.033.29-.067.434-.101.008.194.003.388.009.581 1.801 2.059 3.201 4.857 4.139 6.493 4.711 8.203 9.566 15.927 16.781 22.046.878-4.376 3.129-11.538 4.234-12.275.096-1.016.191-3.189.463-5.531-9.996-11.227-7.038-34.209-20.654-39.179-26.253-12.178-65.044-10.265-86.032 11.086-5.494 5.589-10.219 13.818-13.952 23.115 1.483.862 2.954 1.607 4.148 1.252 1.851-.501 6.829.112 10.224 1.19 5.633-8.129 13.191-14.068 23.925-19.492-2.917 2.438-2.207 62.917-8.877 61.069 1.487.408.179-48.242 2.446-50.25-9.556 5.795-14.709 15.067-17.625 25.658-4.322 16.006-8.83 31.694-16.624 46.359-6.503 7.187-12.443 2.177-14.702-4.571-4.201-21.106 1.718-41.391 7.403-61.625 6.26-30.151 33.366-48.758 62.803-51.549 4.775-.453 10.538-.733 16.64-.584-32.561-3.582-50.103-51.99-19.999-76.394 14.066-11.652 37.083-12.969 53.307-5.685 3.158 1.479 5.654 2.771 8.345 4.949 1.652 1.365 13.535 17.31 8.235 17.31-1.297.074-10.152-12.757-14.588-14.226-9.355-4.286-21.385-4.586-31.229-2.415-27.747 6.289-40.468 45.35-13.924 62.241 4.397 2.799 13.18 6.69 18.608 4.145.889-.908-1.333-8.674-1.441-9.886-.585-6.738.093-14.271 5.513-19.046 2.934-2.586 4.746-3.184 8.393-2.575 12.76 2.129 22.401-6.566 28.645-16.549-.017.11-.032.214-.048.315.371-.38-.65-3.426 1.524-1.25 4.165 4.054-3.794 13.349-9.163 18.272 3.557 6.79.423 16.617-3.407 22.401-1.456 2.156-12.088 11.809-18.483 12.968.179.664.334 1.276.452 1.813-5.535 2.492-10.879 3.689-15.927 3.823 15.36.967 31.792 4.98 39.736 16.009 5.157 7.539 5.032 23.35 11.122 29.075.427.646 1.54 2.74 2.162 2.945 15.963-7.981 20.139-28.909 36.468-37.204 4.591 8.27 5 13.247 3.251 22.679-1.444 7.787-4.078 15.604-7.673 22.668-2.965 6.442-7.289 19.622-14.236 23.108-16.416 27.371-38.707 3.543-51.396-17.133-1.803 12.229-5.533 24.19-8.069 36.298-.689 3.292-.112 8.635-.454 12.753 5.753-3.435 35.409 10.585 37.988 13.561 5.129 4.267 7.621 12.463 8.938 21.195 16.005-10.335 67.036-32.839 74.171-32.551 5.057.203 11.459 3.943 16.213 5.573 9.675 3.354 19.317 6.662 29.105 9.658 16.42 4.912 32.481 8.321 49.416 11.182zm-213.352-152.883c4.033-5.33 11.742-12.628 13.144-15.179.609-1.106 1.712-4.401 3.055-7.642-3.971 1.712-8.214 2.51-12.655 2.463-.887.472-1.917-.392-2.83.499-4.271 3.672-2.677 12.463-.714 19.859zm-91.839 76.586c-4.728 15.992-6.62 33.208-4.68 45.07 2.6 1.655 13.124-31.705 13.98-34.488 1.186-3.856 2.499-7.342 3.972-10.543-4.543 1.462-9.879 1.93-13.272-.039zm135.634-3.853c.212 2.318-.003 4.569-.675 6.251-.436 1.33-5.345 9.654-9.637 13.207 6.613 3.938 9.446 1.479 15.486-5.841 4.638-5.621 21.892-40.807 19.471-41.179-6.272 4.785-14.88 22.897-24.645 27.562zm1.138 89.96c.429 3.718.688 7.442.88 10.928 14.732 1.344 56.044 15.978 57.213 15.898 3.166-.211 8.06-3.948 10.926-5.347 9.863-3.707 19.74-7.338 29.5-11.314 11.574-4.716 23.479-9.346 34.491-15.24.015.004-.039-.011.047.014-9.604-2.721-19.358-5.535-28.71-9.025-11.958-4.466-25.511-13.646-38.1-10.004-6.368 1.842-50.836 19.601-66.247 24.09zm-125.271 130.58c4.224-1.837 8.734-3.628 11.816-4.829-1.503-1.629-2.455-4.48-2.846-7.666-.681.857-1.415 1.414-2.253 1.393-1.024 1.607-3.475 6.043-6.717 11.102zm18.758-6.248c8.58.663 19.571 6.677 27.302 9.036 11.083 3.384 22.326 6.091 33.453 9.28 1.663.408 5.041 1.895 8.731 3.452.705-12.702 1.722-25.318 3.167-30.936-6.079-.097-11.406-2.495-21.198-6.275-3.108-1.196-33.494-11.362-44.48-16.357-2.599 3.843-5.18 7.634-7.671 11.375 3.389 4.295 3.62 15.218.696 20.425zm38.173-94.721c-2.491 13.648-8.703 26.896-16.233 39.68 15.798-8.624 41.052-18.64 54.777-21.188-.635-3.574-1.184-7.165-1.673-10.757-1-7.325.12-20.709-3.395-27.177-2.579-4.745-3.18-3.782-9.865-5.073-7.36-1.419-14.847-2.793-21.794-5.672 1.293 6.174-1.413 28.534-1.876 30.407zm74.809 60.425c12.813-4.899 25.504-11.266 38.53-15.443-2.901 1.06-31.995-10.978-42.483-16.79-.067.771-.144 1.54-.229 2.306-.842 7.496 1.222 17.522-3.843 24.196-10.999 13.261-20.486-7.451-23.107-15.566-1.376-4.033-2.498-8.138-3.447-12.284-15.619 9.414-50.118 23.164-64.24 25.302-1.526 2.34-3.07 4.661-4.619 6.967 16.87 1.785 60.895 17.843 64.648 16.491 12.283-.941 27.192-10.767 38.79-15.179zm48.394-22.125c.759-13.572 1.68-26.113 2.747-32.166-9.608-2.16-43.371-15.119-56.533-21.013.131 2.692.249 5.159.411 7.25.814 10.493 1.809 21.47 1.273 32.123 9.675.673 34.717 8.807 52.102 13.806zm-197.374 66.78c3.421-6.823 10.006-14.003 14.429-20.498 1.08-1.865 2.216-3.365 3.638-3.319 12.428-19.427 26.761-37.964 38.385-57.866 4.584-7.449 9.239-16.298 11.606-24.754.586-1.862 4.338-24.771 6.391-29.524-.479-.217-.965-.418-1.438-.652-1.845-.91-18.97-13.817-14.929-16.259.588-.359 10.769 7.975 11.842 8.523 6.961 3.608 14.862 4.832 22.555 5.772 5.552.679 18.953-.136 22.004 6.198 3.015 6.04 3.632 12.611 4.704 19.242 2.905 17.982 5.461 35.97 13.017 52.715.139.208.285.415.441.611.003-.001.005-.004.006-.008 4.28-20.656 1.578-44.772.212-65.582-.5-7.623.306-23.388-5.733-29.134-2.671-3.682-27.594-14.858-32.218-17.025-.25 1.493-.69 2.725-1.47 3.474-14.212 3.493-32.226 10-46.08 2.246-1.629-.944-3.274-1.937-4.757-3.113.577 16.264.685 38.731.665 41.606-.116 17.182-4.01 26.487-10.804 42.354-7.927 18.517-17.579 37.226-23.816 56.372-3.451 8.301-7.557 19.45-8.65 28.621zm-11.436 11.17c-6.732 3.883-18.531 9.933-34.127 17.535 7.507 2.104 15.234 5.108 21.428 6.869 14.274 4.058 28.203 8.87 42.084 14.106-.017-.02-.033-.026-.054-.024 16.908-6.984 34.234-12.78 51.158-19.819 5.925-2.465 20.397-12.556 26.642-11.566-6.16-3.342-14.798-4.561-21.522-6.715-10.815-3.466-21.386-7.694-31.86-12.066-1.758-.751-6.701-4.056-9.365-3.376-1.704.509-12.362 4.01-19.77 5.773-6.802 9.434-15.389 18.103-21.971 12.858-1.195-.951-2.05-2.168-2.643-3.575zm27.272 116.745c-3.763-15.591-3.698-53.136.507-67.006-.186-.054-.375-.097-.556-.167-10.905-4.252-21.806-8.396-32.828-12.34-11.086-3.537-22.191-6.913-33.358-10.187-2.283-.813-3.961-1.433-5.256-2.082 4.594 15.263 2.575 64.099-2.03 73.179 9.584-3.427 60.836 13.917 73.521 18.603zm93.36-32.487c-6.372-4.107-5.196-47.548-5.104-49.591.086-1.896.295-9.854.695-19.71-21.865 13.414-48.453 21.652-71.654 29.713-3 1.043-6.675 3.271-10.265 4.505 3.492 13.23 3.682 50.891.53 67.02 18.057-6.536 77.183-31.948 85.798-31.937zm91.003-40.356c-6.085-6.382-5.761-64.327-5.21-70.975.261-2.974.84-19.725 1.705-37.734-23.729 11.668-47.932 21.735-73 30.843-4.427 1.607-7.92 2.579-11.011 3.009 2.081 5.618 3.225 19.174 3.62 35.113 1.545.349 2.771.421 3.451.056-1.106.938-2.241 1.851-3.389 2.747.519 27.235-1.048 60.26-3.808 72.619 8.402-7.255 33.945-17.099 36.708-18.155 3.95-1.513 43.137-18.422 50.934-17.523zm1.24.57s0 0 0 0zm86.432-126.896c.569-5.737.921-46.566 2.891-63.382-9.866 4.772-19.781 9.429-29.869 13.761-18.514 7.951-37.9 13.435-56.409 21.329 2.372 6.22 3.212 20.62 3.353 35.578 3.642.863 6.219 1.269 7.167.957-2.377 1.268-4.759 2.511-7.145 3.745.004 18.843-.958 37.299-1.236 40.204-.66 6.92-.764 57.329-3.616 71.183 11.339-11.624 76.858-36.996 88.103-36.184-7.971-7.424-3.827-81.016-3.239-87.191zm38.362-202.156c-.021 5.287-13.041 10.2-19.39 7.555.305.697.612 1.393.915 2.091-.457.274-1.469.229-2.85-.05 2.093 15.108 3.411 65.146 4.186 78.318.016.263.031.512.046.745.03.467.059.873.087 1.213.029.339.057.612.083.816-1.867.257-3.745.517-5.619.775.001.001.001.002.002.003 2.212 5.661-11.977 10.641-20.073 9.607.173 1.577.347 3.156.519 4.737-14.305-5.663-29.53-11.021-44.484-14.575-3.677-.946-7.39-1.639-11.116-2.382-.668-.73.063-2.591-.329-3.574-1.138-24.722-.656-49.26.822-73.963.297-4.98 3.801-22.039.799-25.202-8.201-2.545-16.143-5.651-24.115-8.835.44-1.395 6.407-6.467 6.354-6.414 7.129-7.168 14.142-14.376 21.009-21.797 8.391-9.654 16.647-19.407 24.831-29.238 1.209 1.012 2.368 2.313 3.48 3.774 5.973-3.228 17.067-5.836 20.231-6.472.788-.424 12.275 15.919 13.319 17.42 3.404 4.892 37.341 59.052 31.29 65.315.001.041.002.085.002.126.378-.186.28-.135.001.007zm-53.14 91.466c-6.801-7.429 4.688-93.23 6.538-93.231.023-.092.012-.047 0 0 .339-1.302 16.704 3.502 18.797 3.646-4.822-1.483-12.675-21.879-15.415-26.31-8.091-13.084-16.208-27.186-25.744-39.242 1.013 2.486-29.659 37.104-31.735 36.697 2.59.414 15.182 3.438 16.323 4.839 1.186 1.452.22 5.97.121 7.583-.864 14.091-1.796 28.18-2.525 42.279-.608 11.755-1.059 23.522-1.083 35.293-.024 11.805-3.087 15.698 7.809 19.231 8.757 2.829 18.876 5.003 26.914 9.215zm24.659-3.374c-.079-1.322-.161-2.897-.244-4.688-.885-19.249-1.708-62.892 3.141-74.99-7.334-2.406-17.844-7.238-20.427-9.374 2.043 6.192.163 46.099.072 49.743-.48 14.478.771 28.677 2.299 42.938 4.155-2.457 10.459-4.071 15.159-3.629zm22.069-92.45c-10.039-12.418-27.871-45.419-30.086-48.852-4.088-6.333-9.25-12.842-12.185-19.792-1.643-.501-7.671 1.074-12.688 1.845 2.209 3.714 4.192 7.642 5.954 10.593 5.73 9.539 11.672 19.045 17.074 28.77 5.915 10.794 11.185 21.878 16.194 33.102 2.109-3.659 9.975-6.057 15.737-5.666z"/></svg>