<svg id="Layer_1" enable-background="new 0 0 500 500" viewBox="0 0 500 500" xmlns="http://www.w3.org/2000/svg"><path clip-rule="evenodd" d="m213.738 51.733c.061-.111.122-.277.188-.443-2.807-2.824 13.409-1.495 14.748.277 15.506 7.596 16.237 31.387 5.03 42.596 7.547 3.698 14.274 9.401 17.751 17.381 2.39-7.088 8.424-12.803 15.941-16.593-13.05-12.444-9.713-41.379 10.02-46.762 1.759-.443 3.254-2.215 5.076-1.495 2.347-.332 5.016-1.273 6.909.664-.454.554-1.007.498-1.567.775.249.111.437.277.139.554l-.004-.004c-.044.149-.085.298-.134.447 1.434.72.133.941-.648 1.384-16.49 6.625-22.847 33.025-3.053 39.266 3.089-.437 6.214-.603 9.41-.251 8.03-2.378 12.941-11.809 11.325-19.86-1.712-9.062-10.426-14.118-15.468-20.927.387-.221.77-.277 1.046-.775.376-.277.891.055 1.251-.498 1.34-.609 3.106-.443 4.601-.941 23.617 3.386 31.283 32.461 15.061 48.909 10.21 5.735 17.017 14.96 19.702 25.417 25.463-2.329 36.105 31.073 18.955 48.031 27.639 12.636 28.297 44.887 26.178 71.078.589 10.905-2.406 13.95-13.451 12.566-44.437-1.608-89.392 2.358-133.854.332-16.291-1.935-36.575 3.734-51.652-2.25-11.638.582-23.382.495-34.845.977-5.16-.332-15.28 2.048-15.396-5.924-.356-28.954-6.272-60.993 24.429-77.122-12.539-10.507-10.939-38.113 6.01-45.781 5.463-1.827 13.197-3.322 16.591 2.436-.338.221-.67.388-.858.886-.288.277-.742 0-.952.554-.904.894-2.027.963-2.873 2.27-19 7.147-12.492 40.054 9.451 33.216 17.15-4.641 14.666-27.528.303-32.995-1.316-1.413-4.01-.438-5.071-2.546.36-.498.841-.388 1.318-.609-.331-.179-.226-.554-.017-.554h-.055c.061-.166.122-.277.183-.443-.602-.61-.318-1.026.51-1.285-.061-.031-.115-.08-.156-.154h.006c-.41-.664-1.041.332-1.234-.277-1.688-11.752 6.252-21.548 16.814-27.029-13.941-9.849-13.227-39.151 4.496-47.101 5.474-1.882 13.197-3.377 16.596 2.436-.338.221-.664.332-.858.83-.288.277-.748.055-.952.609-.92.829-2.103 1.005-2.873 2.215-19.023 7.223-12.458 40.017 9.451 33.272 17.215-4.726 14.594-27.52.303-33.051-1.346-1.32-4.011-.469-5.071-2.546.371-.498.842-.388 1.312-.609-.19-.11-.334-.331-.062-.553zm248.825 369.094c-.157-.056-.309-.164-.467-.218-.349.277-.149.775-.393 1.107-4.94-17.037-18.361-29.52-33.164-32.895-5.595 1.636-11.168 1.555-16.261.131-22.985 5.973-28.773 27.788-25.911 49.896 23.262-.447 46.914-.673 70.065 1.084 1.007-6.009 1.993-12.058 6.124-16.666 3.145 6.865 3.228 14.56 3.765 22.145.614 6.865-6.416 5.979-11.095 6.422-24.831 3.161-50.947 1.154-75.945 1.993-2.397-.044-4.054-.774-5.197-1.94-8.706.364-18.896.43-27.693.5-4.839.388-11.919.72-12.119-5.868-2.148-27.375-2.305-53.553 26.462-66.946-28.733-27.306 14.216-72.708 38.85-41.168 2.949-2.443 10.013-6.479 13.723-6.263 2.336-.332 5.01-1.329 6.904.664-.454.498-1.008.443-1.572.72.445.198.307.554.089.554h.061c-.039.166-.094.332-.149.498 1.439.72.133.886-.637 1.329-19.976 8.137-21.935 40.891 3.793 39.584 9.688-1.33 16.054-12.069 13.635-21.37-2.118-8.53-10.454-13.329-15.219-19.986 5.821-4.142 13.422-.822 18.84 2.879 15.826 9.064 14.634 32.218 2.628 44.232 13.478 7.051 26.498 26.707 22.224 42.021-.559-.775-.504-1.716-.797-2.657-.089.388-.288.775-.543.221zm-90.879 18.725c-.868-18.838.075-39.463 16.127-51.845-31.448.746-42.695 22.615-39.65 51.233 7.82.328 15.681.452 23.523.612zm24.599-57.645c.77-.416 1.55-.812 2.34-1.187-.453-.474-.891-.964-1.312-1.467-.512.753-1.08 1.467-1.695 2.137.226.167.449.34.667.517zm-2.877-8.631c-4.121-8.325-4.414-19.599.736-28.352-9.023-5.314-23.757-2.513-27.491 8.531-4.301 14.166 7.693 25.336 21.497 22.145 1.665-.856 4.001-.804 5.258-2.324zm-230.628 47.553c-.153-.056-.312-.165-.466-.22-.355.277-.15.775-.393 1.107-4.943-17.038-18.366-29.52-33.169-32.895-5.594 1.636-11.168 1.556-16.26.131-22.98 5.973-28.775 27.792-25.913 49.896 23.266-.447 46.918-.673 70.065 1.084 1.008-6.009 1.997-12.058 6.123-16.666 3.145 6.865 3.233 14.56 3.765 22.145.614 6.865-6.416 5.979-11.095 6.422-24.822 3.16-50.944 1.155-75.945 1.993-2.395-.044-4.052-.774-5.195-1.94-8.704.364-18.895.43-27.69.5-4.844.388-11.919.72-12.124-5.868-2.143-27.372-2.299-53.551 26.463-66.946-28.736-27.307 14.217-72.71 38.85-41.167 3.016-2.48 9.932-6.447 13.721-6.265 2.342-.332 5.01-1.329 6.904.664-.454.498-1.008.443-1.567.72.456.207.276.554.089.554h.061c-.044.166-.1.332-.15.498 1.428.72.127.886-.642 1.329-19.973 8.133-21.926 40.894 3.793 39.584 9.688-1.33 16.054-12.069 13.635-21.37-2.126-8.531-10.447-13.334-15.219-19.986 5.822-4.142 13.424-.824 18.84 2.879 15.826 9.064 14.634 32.218 2.629 44.232 13.483 7.054 26.483 26.708 22.229 42.022-.565-.775-.509-1.716-.797-2.657-.1.388-.294.775-.542.221zm-90.879 18.723c-.869-18.832.067-39.461 16.122-51.844-31.449.741-42.692 22.608-39.648 51.233 7.82.328 15.682.451 23.526.611zm24.595-57.645c.77-.416 1.551-.812 2.341-1.187-.453-.475-.891-.964-1.313-1.469-.513.753-1.08 1.468-1.695 2.138.227.168.45.341.667.518zm-2.876-8.633c-4.121-8.326-4.416-19.594.737-28.35-9.025-5.317-23.762-2.511-27.493 8.53-4.302 14.173 7.698 25.333 21.503 22.145 1.664-.855 3.997-.803 5.253-2.325zm219.062 47.556c-.155-.055-.315-.166-.482-.221-.349.277-.149.775-.382 1.107-4.942-17.037-18.366-29.52-33.17-32.895-5.595 1.636-11.168 1.555-16.26.13-22.99 5.972-28.774 27.785-25.916 49.896 23.268-.447 46.919-.674 70.068 1.083 1.01-6.009 1.997-12.057 6.12-16.665 3.145 6.865 3.239 14.56 3.77 22.145.615 6.865-6.416 5.979-11.105 6.422-24.812 3.162-50.953 1.154-75.94 1.993-2.393-.044-4.05-.774-5.192-1.94-8.697.364-18.912.43-27.687.5-4.844.388-11.93.72-12.13-5.868-2.129-27.381-2.311-53.549 26.466-66.945-28.745-27.311 14.232-72.711 38.85-41.167 2.949-2.442 10.011-6.479 13.718-6.266 2.347-.332 5.01-1.329 6.909.664-.454.498-1.013.443-1.567.72.452.206.273.554.089.554h.061c-.055.166-.094.332-.15.498 1.428.72.133.886-.648 1.329-8.127 3.709-14.765 12.346-15.623 21.204-.659 11.017 9.511 20.927 20.517 18.103 8.858-1.606 14.444-11.626 12.733-20.152-1.685-9.083-10.469-14.024-15.413-20.927 5.823-4.142 13.424-.824 18.84 2.879 15.821 9.064 14.628 32.219 2.626 44.233 13.472 7.052 26.506 26.713 22.221 42.021-.554-.775-.504-1.716-.786-2.657-.22.853-.551.368-.53.185zm-90.885 18.722c-.871-18.829.064-39.455 16.122-51.845-31.453.747-42.69 22.607-39.65 51.233 7.821.329 15.684.452 23.528.612zm24.592-57.643c.771-.417 1.554-.814 2.345-1.189-.454-.476-.894-.967-1.317-1.473-.513.755-1.081 1.471-1.698 2.143.228.167.452.34.67.519zm-2.871-8.635c-4.119-8.321-4.416-19.603.733-28.351-9.025-5.318-23.755-2.508-27.49 8.531-4.297 14.168 7.691 25.336 21.492 22.145 1.672-.855 4.007-.803 5.265-2.325zm173.748-63.444c-2.887.096-6.809-3.059-6.771-6.09-.637-6.764-4.005-14.317-1.474-21.002-50.014 2.84-100.23 1.702-150.319 2.651-.628 6.934 1.53 15.159-3.14 21.004.732 2.151-.28.584-.43 2.164.302.591-.404 1.251-1.418 1.884-.147-.265-.366-.514-.669-.721-.122.055-.355.111-.559 0h.011c-.651-.161-1.137.536-1.538-.183-.538.132-1.045.261-1.412.46-.105-.166-.747-.221-.941-.498-.194-.487-.857-.236-.892-.664.017-.443-.858-.775-1.234-1.163-.012-1.422-.88-2.651-.897-4.097-.66-.61-.45-1.517-1.274-2.27-1.162-5.083-.45-10.456-.813-15.662-50.7.928-101.723 2.502-152.17-1.013.036.267.056.517.069.731-.044 0-.033.055 0 .055.984 2.583.546 5.769 1.412 8.304.316 3.432 1.987 7.086.614 10.519-.041 4.289-7.031 6.83-10.474 5.26.017-.221-.875-.388-1.235-.609-.017-.111-.116-.277-.067-.443.089-.332-.731-.664-.642-.997.092-.701-.682-.989-.659-1.052.022-.166-.055-.221-.249-.332.144-.166-.31-.332-.565-.498-.11-.362-.173-.742-.437-1.052-1.011-7.091-.307-14.177.941-21.148-.249-.166.316-.277.521-.443.05-.111.039-.221.182-.332 1.602-1.951-2.909-9.072 8.039-8.858 42.466-2.862 86.31-1.959 128.949-2.379 64.554-.079 129.607.25 194.093 2.434 8.277-.332 8.909 2.375 8.743 7.32.182.166.358.236.33.486-.084.76.712.964.664 1.107-.033.111.044.166.249.277-.138.166.305.388.559.554.107.385.179.646.449 1.052.997 7.132.299 14.088-.947 21.148.244.166-.316.277-.526.388-.044.111-.039.277-.183.388-.067.554-.316.997-.764 1.439-.391.389.764.767-.072.83-.365.055-.36.221-.437.443.271.543-.665.895-1.38.868l-.031.073-.032-.077c-.279-.02-.516-.101-.621-.255-.122.055-.377.111-.565 0h.012zm-163.55.611c-.891.557-2.02 1.093-2.912 1.544 1.505 1.747 3.953.475 2.912-1.544zm-2.913 1.544-2.607-1.989c-2.181.609-.725 3.986 1.207 2.823.209-.213.74-.5 1.4-.834zm161.977-32.017c.214-.082.431-.158.648-.229l-.796-.8c.051.342.1.685.148 1.029zm-201.181-70.733c-.137-.109-.285-.165-.439-.329-.376.277-.227.83-.504 1.163-.78-4.447-.783-8.684-.134-12.653-15.346-21.644-49.573-28.675-64.989-3.069-8.445 13.549-3.303 29.257-5.145 44.351 21.36.944 42.259.31 63.496-.581 1.6-9.019 1.759-18.989 7.459-26.442 3.388 8.181 3.346 17.223 3.803 26.153 22.924 1.161 46.353.088 69.296.356-.914-16.221 3.275-34.966-7.865-48.432-22.325-25.892-58.793-8.8-63.883 21.923-.482-.775-.338-1.716-.526-2.547-.144.332-.371.664-.57.111zm.618-18.257c3.271-8.874 9.992-15.969 18.403-20.445-18.211-11.807-12.02-51.729 14.22-49.267-14.101-17.391-42.597-23.851-59.002-5.589-1.852 1.07-3.864 3.037-5.226 4.983-.266.388.017 1.329-.709 1.273-.254-.055-.315 0-.387.111.072.055-.675.719-.57.775-.007.192-.043.369-.103.531 24.863-2.123 30.806 31.129 15.852 45.106 8.578 4.522 15.426 12.913 17.522 22.522zm58.606-21.74c8.254 3.619 14.851 9.692 19.562 17.082 3.19-6.285 10.532-13.033 16.35-16.794-15.918-14.816-9.494-46.15 14.218-49.143.942-.133 1.935-.373 2.91-.485-8.631-6.401-16.983-15.051-28.049-15.902-7.585 1.335-14.478-.531-21.226 4.263-8.756 3.651-14.236 13.702-23.878 14.828-.211.284-.44.56-.691.829.336.381.648.806.928 1.282-.332.221-.67.388-.858.886-.282.277-.748 0-.958.554-.889.895-2.015.948-2.873 2.27-18.985 7.156-12.487 40.052 9.451 33.216 17.155-4.641 14.677-27.516.309-32.995-1.306-1.412-4.003-.436-5.071-2.546.365-.498.847-.388 1.318-.609-.331-.184-.21-.554-.016-.554h-.05c.061-.166.122-.277.183-.443-2.801-2.823 13.42-1.495 14.748.277 16.242 7.859 16.101 33.248 3.693 43.984zm23.297 24.08c6.485 13.068 4.205 30.712 4.814 44.89 8.882-.671 19.236-1.076 25.761 2.364 12.657-.226 25.359-.825 38.145-.96-1.283-14.467 2.088-29.762-4.759-42.886-13.811-25.065-45.97-22.188-63.961-3.408zm29.358-29.65c12.119 1.691 22.073-8.048 19.852-20.312-1.581-8.953-10.228-13.736-15.017-20.532-.251.614-.654.025-1.771-.861.108.175-.001.356-.158.356h.061c-.044.166-.1.332-.15.498 1.434.72.127.886-.648 1.329-16.95 7.09-22.939 33.829-2.169 39.522z" fill-rule="evenodd"/></svg>