<svg id="Layer_1" enable-background="new 0 0 500 500" viewBox="0 0 500 500" xmlns="http://www.w3.org/2000/svg"><path d="m382.258 264.445c-2.786-28.557-12.037-56.278-26.072-81.238-2.341-4.339-8.822-3.957-10.947.422-5.158 7.559-10.301 15.14-15.498 22.675-14.003-96.195-28.43-127.742-122.237-164.101-7.352-3.172-13.965 7.312-7.601 12.518 3.479 2.937 6.869 5.946 10.145 9.138 24.125 25.562 51.702 61.234 43.795 98.414-10.846-21.305-31.425-38.156-55.759-40.746-4.805-.512-8.832 4.38-7.323 9.01 9.052 29.861 19.903 45.707-2.736 73.128-7.5-18.034-21.736-33.252-38.635-42.726-1.707-1.076-3.658-1.82-5.792-1.351-3.761.744-6.207 4.396-5.463 8.157 2.409 12.242 3.725 24.551 3.217 36.92-.869 28.385-19.821 52.318-20.635 81.039-1.764 48.291 30.389 95.307 76.041 111.108.476 6.937.424 14.251 3.476 20.434-1.4.333-3.514.168-4.491 1.074.383.247 1.011.081 1.314.428-.282.533-1.192.705-.121.965-1.007.227-2.085.127-3.007.628 3.752 2.02 8.2 1.165 12.285 1.502 4.82 1.012 10.118-.052 15.14.78 27.913 1.727 56.237 1.084 84.271 1.995-.17 5.514-.336 13.629-.268 19.126-17.404-.001-36.011.048-53.485.209-18.799.297-39.556-.654-58.111 1.18-.402.377-.513-.162-1.022-.097-.408-.052-.446-.509-.529-.822-.153-3.243-.029-6.533-.493-9.746-.704-3.379.524-7.201-.877-10.362-.558-1.087.441-1.92.664-2.953.008-.677.764-.766 1.094-1.135.185-.538.734-.757 1.332-.965-12.437-6.15-10.561 16.752-12.62 23.835-1.415 19.788 23.474 14.024 36.121 15.216 14.178.359 30.205.328 44.416.151 11.398-.099 24.931-.737 36.238-.699 7.61.004 16.717.356 19.978-8.192 2.307-8.011.081-16.505.549-24.714.015-8.684-7.691-13.726-15.866-12.691-.199-3.078.56-6.31.673-9.479.233-.633-.02-1.364.328-1.93.423-.414.434-.857.346-1.316-.132-.743.123-1.535.066-2.286 25.642-8.181 47.848-27.353 60.976-50.709 14.665-24.444 18.54-53.739 17.123-81.794zm-76.902 179.745c-.019-.006.007-.064 0-.091zm.454-.454-.198.004c.094-.032.202-.039.309-.031.016-.009.035-.007.053.006.016-.002.03-.004.045.01.058.008-.123.008-.209.011zm.209-19.111c.013.002.004.006.004.006-.008.018-.011-.003-.025.015-.104.001-.159.047-.257-.026.067.002.213.004.278.005zm-15.463-12.625c-30.002.748-60.246-.073-89.925 5.196 5.603-5.732 5.303-14.906 7.099-22.402 1.471-8.993-3.042-18.054-10.259-23.356-6.678-6.386-12.615-13.793-15.223-22.785-4.433-16.656-9.514-50.993 4.299-63.755 4.116-3.591 9.721-3.974 14.948-4.032 4.845-.075 10.073-.223 14.843-.351 5.627-.051 12.632-.676 18.232-.233 8.364.987 15.122 7.82 15.187 16.372-.37-.868-.445-.179-.885.115-.356-.075-.709-.54-.961-.114-.207-.43-.108-.861-.566-1.186-1.748 1.005-1.423 2.671-2.097 4.212-.028.314-.791.237-.75.585-.236 2.84-3.107 4.637-5.089 6.316-.937-.009-1.012.068-1.636.661-.992.387-1.924 1.052-2.968 1.334-.799.287-1.803.472-2.649.536-7.421.238-14.847-.411-22.266-.703-10.308.173-6.712 14.386-7.263 21.22.156 6.471 7.322 6.439 11.87 8.294 3.839 1.559 7.553 3.567 10.958 5.976 7.828 6.234 11.463 15.974 16.419 24.128 1.035 2.727 2.059 5.561 3.174 8.174 1.164.63.991 1.93 1.961 2.544.557.132.401.639.723.871.5.112.661.408.927.689.456-.75 1.223-1.553 2.061-2.19 1.091-1.492 1.167-3.409 1.524-5.166 1.401-7.988-.99-15.877-4.4-23.07-5.646-13.198-18.037-22.348-31.744-25.876-.146-.945-.174-1.894-.188-2.847 11.766-.306 27.806.796 33.161-12.253 3.604 17.565 28.279 20.992 38.392 7.036 6.333 8.421 18.391 10.728 27.769 6.01-.8 11.998.14 24.049.519 36.029-.436 5.917-6.071 10.325-9.875 14.336-13.324 11.595-15.377 23.416-9.085 39.669zm-106.556-151.306c.147-8.077 1.591-17.369 11.274-18.335 3.373-.271 6.477 1.474 9.122 3.219.421.052.924.105 1.141.487.298-.011.367.166.481.302.1.253.607.196.78.403.078 4.874-.165 9.988.645 14.763.756 1.067.481 2.216 1.051 3.264.558 1.432.085 3.079.81 4.522-8.619-.027-17.784-1.235-25.75 2.829.041-3.825.441-7.635.446-11.454zm36.719-3.199c.951-7.474.319-15.099.007-22.61.264-1.241.562-2.593 1.251-3.673 2.628-5.951 10.133-7.651 15.898-5.517 2.661 1.32 4.961 3.461 7.478 5.224-1.044 3.425-.661 7.895-.63 11.451.49 11.479-.042 23.5 1.705 34.932-7.039-7.932-18.397-7.895-28.175-7.793 1.987-3.656 2.565-7.861 2.466-12.014zm33.943 31.344c-.64-8.5 1.033-16.992 1.245-25.413.007-8.399.329-17.746.392-26.115-.125-10.421 14.307-15.109 20.211-6.411 4.084 5.663 1.982 13.15 2.437 19.667-.122 9.121.214 19.978.2 29.106-.556 6.645 1.414 19.256-1.079 25.428-2.394 5.173-8.387 9.015-14.067 7.565-3.544-.965-6.339-3.054-8.409-6.022-1.512-.712-1.665-2.483-2.698-3.576-.561-.31-.459-1.054-.734-1.475-.48-.292-.605-.817-.837-1.358-.278.699-.3.73-.875 1.349-.048-1.064-.04-2.104-.207-3.151.066.167.079.449.348.383.247-.3.081-.791.428-1.027.486.18.714.95.965.095.228.797.132 1.643.629 2.351 2.386-3.378.641-7.83 2.051-11.396zm61.423.214c.314 4.686.931 9.717.084 14.336-3.552 11.877-15.654 12.133-24.492 5.653 2.034-4.928 1.832-10.544 1.889-15.78.095-11.486-.107-25.024-.535-36.515 6.288-3.765 13.284-6.111 18.93.058 2.977 2.671 3.365 7.034 3.343 10.794.547 7.113.571 14.346.781 21.454zm55.893 7.576c-2.739 37.622-23.763 73.6-57.287 91.765-2.884 1.926-7.309 3.571-9.684 5.476 1.501-.269 3.478-1.48 4.855-1.703-1.277 1.344-3.694 2.447-.025 1.078-1.864.987-3.728 1.901-5.665 2.709-.067-5.842 4.798-9.698 8.78-13.224 15.465-12.328 17.428-17.67 16.582-37.261-.795-11.563.987-23.978-1.892-35.124-.516-2.63 1.671-5.29 1.533-8.086.292-3.873.474-7.779.636-11.657-.108-7.015-.402-14.13-.238-21.152.117-5.659-.21-11.554-2.914-16.651-5.824-12.138-22.834-18.233-33.927-9.626 3.096-24.727-25.243-40.322-42.702-21.328-11.795-15.427-38.65-10.283-42.653 9.199-12.14-7.678-28.835-.394-33.872 12.415-2.102 6.309-1.855 13.096-1.239 19.647.543 5.363-.104 10.993 2.243 16.045-16.759 18.423-12.441 71.175 2.126 90.243 4.473 6.178 10.123 11.389 16.121 15.963 2.517 2.947 4.165 6.431 3.973 10.424-41.016-26.873-72.575-69.321-62.347-120.56 9.726-33.629 25.847-54.655 20.157-93.396 7.64 6.439 13.914 14.273 18.289 23.183 3.763 5.806 3.591 13.758 8.101 18.982 6.797 5.294 12.075-2.776 15.735-7.751 5.316-6.991 10.527-14.264 14.613-22.892 9.436-17.325 3.054-37.721-3.03-54.862 17.525 7.273 34.671 23.595 36.584 43.207.039 1.908.847 3.762 2.423 5.069 8.911 6.071 14.263-7.904 17.642-14.104 14.48-37.724-10.121-77.683-33.604-105.997 27.57 12.707 55.021 30.528 67.144 59.44 10.784 25.025 14.185 52.661 19.327 79.317 1.094 6.061 2.187 12.125 3.283 18.191.651 4.466 7.12 5.926 9.552 1.983 6.604-9.818 13.164-19.743 19.805-29.518 16.293 30.599 24.625 65.906 21.575 100.556zm-287.027-14.6c.322 1.68-.284 2.355-.767 3.962-.107.013-.213.109-.32.056-.255-.082-.495.703-.74.618-.168.004-.339.131-.506.179-.101.044-.172.513-.273.453-.103-.033-.136.051-.214.232-.137-.133-.266.297-.397.539-.102.168-.224.004-.339.08-.393.495-.907.513-1.435.534-1.75-.171-3.641.401-5.377.216-.207-.245-.412.133-.618.044-.256-.088-.506.145-.744.196-.79.136-1.514-.124-2.242-.427-1.764-.561-3.674-.9-5.456-1.123-.119.225-.2-.305-.289-.498-.093-.045-.186-.038-.278-.177-.42-.067-.767-.319-1.06-.731-.169-.212-.358.131-.515.218-.199-.064.01-.688-.418-.7-.618.35-.803-1.673-.443-1.982-.081-.262.004-.663.009-.966-.079-.306-.134-.562-.069-.751.824-1.706 1.551-3.601 2.922-4.874 1.451-.435 2.583-.701 4.109-1.123 1.443-.003 2.393-.138 3.615-.623 2.451-.295 5.178-1.898 7.607-.609 3.004.051 3.977 4.84 4.238 7.257zm23.455 86.085c.127.277-.062.392-.249.482-.287.07-.128.885-.408.949-.128.063-.203.219-.302.332-.241.076.011.59-.137.651-.113.029-.109.117-.091.32-.199-.039-.109.406-.116.69-.004.169-.135.117-.195.191-.169.116-.208.424-.331.601-.811.931-2.034 1.264-3.027 2.024-1.025.564-1.849 1.542-2.962 1.903-.322-.096-.332.346-.576.384-.291.066-.417.407-.623.586-1.674 1.152-3.9.963-5.648 1.943-.822.368-1.839.611-2.587 1.023-.034.121-.114.154-.396-.171-.373-.273-.764.13-1.233.004-.47-.005-.888-.41-1.041.338-.021.043-.065.045-.233-.19-.222-.277-.3-.224-.522-.183-.385.656-1.625-.984-1.421-1.468-.21-.182-.325-.573-.474-.841-.229-.221-.41-.409-.442-.612-.147-1.755-.075-3.405.126-5.122.103-.909.92-1.249 1.424-1.873.022-.115.046-.226.204-.108.037.028.052.012.051-.026-.002-.303.216-.227.307-.37 1.43-1.661 3.616-2.584 4.896-4.191 2.251-1.655 4.094-4.561 7.127-4.798 3.083-1.766 6.683 2.546 8.326 4.74.093.37.209.744.34 1.3.271.754-.152.5.213 1.492zm308.094 5.141c.032.534-.246 1.621-.852 1.799-.051.271-.335.571-.491.831-.077.309-.15.56-.309.689-1.446 1.004-2.911 1.768-4.5 2.452-.838.366-1.542-.172-2.334-.296-.111.038-.219.073-.195-.123.006-.046-.016-.051-.048-.031-.261.154-.304-.074-.474-.08-2.153-.408-4.046-1.839-6.077-2.145-2.559-1.121-5.998-1.265-7.719-3.773-3.071-1.786-1.136-7.061-.058-9.581.26-.221.947-1.034 1.31-1.259.255.167.945-1.118 1.371-.641.205.214.83-.332 1.026-.121.165.091.394.076.58.128.119.017.423-.348.491-.24.067.03.104.112.287-.064.143.11.378-.063.691-.262.148-.081.169.059.262.074.185.088.471-.032.686-.014 2.051.788 4.014 2.012 6.053 2.987.118.073.297.043.344.236.531.512 1.453.404 2.08.899 1.96 1.798 3.857 3.84 6.045 5.303.25-.143.031.383.03.593.068.091.161.136.182.309.364.285.583.695.662 1.226.059.279.409.087.609.099.158.149-.309.557.006.809.127.027.295-.017.342.196zm21.08-93.767c-.036.076-.073.149-.111.225.081.26-.004.664-.009.965.079.322.135.55.069.751-.825 1.709-1.554 3.599-2.926 4.874-1.454.436-2.587.7-4.116 1.123-1.444.003-2.397.138-3.62.623-2.455.297-5.186 1.897-7.62.609-3.359-.084-4.079-5.726-4.384-8.287.12-.359.151-.748.319-1.295.114-.791.35-.354.501-1.398.023-.29.204-.309.409-.293.255.081.496-.702.741-.618.168-.004.339-.131.507-.179.1-.041.172-.515.273-.453.065-.007.131.045.194-.199.165.027.262-.246.418-.572.079-.145.158-.034.237-.068.204-.03.35-.264.526-.355.485-.263 1.048-.241 1.543-.122 1.598-.051 3.295-.433 4.857-.285.207.245.412-.134.618-.044.256.088.507-.145.745-.196.791-.136 1.516.123 2.246.427 1.767.56 3.68.9 5.465 1.123.117-.214.202.296.289.498.093.045.186.038.279.177.421.069.768.318 1.062.731.169.209.358-.129.516-.218.189-.003.012.742.418.699.561-.363.767 1.461.554 1.757zm-45.479-81.379c-.063-.335-.421-1.337-.435-1.765.273-.137-.496-1.377.13-1.508.288-.07.128-.885.408-.949.161-.097.263-.303.401-.438.075-.095-.09-.54.038-.545.06-.042.15-.034.088-.281.167-.07.134-.359.118-.729.017-.205.228-.135.289-.258.14-.666.634-.954 1.124-1.265 1.789-.836 3.318-2.379 5.102-3.196.323.096.332-.346.577-.384.29-.067.417-.407.623-.586.689-.555 1.525-.74 2.386-.885 2.001-.505 4.004-1.275 5.849-2.08.003-.289.345.165.529.27.113-.013.199-.071.358-.003.429-.173.894-.157 1.393.039.27.089.281-.311.39-.477.02-.043.065-.045.233.189.223.275.299.225.522.183.386-.657 1.625.984 1.421 1.468.21.182.326.573.474.841.229.221.41.409.442.612.147 1.755.076 3.405-.127 5.122-.102.909-.919 1.249-1.423 1.873-.022.115-.046.226-.204.107-.037-.028-.052-.012-.052.026.003.303-.216.227-.306.37-1.43 1.661-3.616 2.584-4.896 4.191-2.251 1.655-4.094 4.561-7.127 4.798-3.082 1.766-6.682-2.546-8.325-4.74zm-308.147-7.642c-.025-.532.257-1.612.855-1.797.053-.271.335-.571.491-.831.078-.308.153-.558.31-.689 1.43-1.012 2.875-1.785 4.446-2.482.821-.372 1.512.154 2.29.272.109-.039.216-.075.19.12-.006.046.015.05.047.031.258-.156.298.07.465.075 2.11.384 3.965 1.791 5.951 2.072 2.501 1.088 5.884 1.2 7.548 3.675 3.021 1.78 1.022 7.043-.039 9.525-.298.259-.516.56-.949.948-.5.617-.51.12-1.173.937-.172.242-.358.151-.533.031-.199-.211-.82.338-1.01.131-.161-.089-.386-.071-.569-.122-.117-.016-.419.35-.485.243-.076-.081-.156-.034-.318.084-.063-.19-.401.112-.646.25-.183.088-.226-.127-.361-.116-.634.216-1.121-.059-1.626-.322-1.578-1.107-3.64-1.638-5.199-2.751-.074-.325-.457-.11-.607-.3-.198-.215-.55-.151-.802-.236-.81-.31-1.37-.931-1.91-1.595-1.396-1.457-3.025-2.784-4.604-3.955-.257.144-.019-.38-.024-.589-.065-.09-.157-.134-.175-.306-.357-.281-.566-.688-.639-1.212-.054-.277-.402-.083-.597-.092-.155-.146.31-.556.002-.805-.12-.028-.284.017-.329-.194z"/></svg>