<svg id="Layer_1" enable-background="new 0 0 500 500" viewBox="0 0 500 500" xmlns="http://www.w3.org/2000/svg"><path clip-rule="evenodd" d="m191.975 355.007c.195.689.195.689.391 1.017l-.342.949c-.271.054-.091.789-.391.929-.605.281-.338 1.581-1.271 1.418-.507-.089-.149.494-1.906 1.124-.636.228-.24.543-.587.636-.461.123-.195.323-.342.323-.245-.073-.391.415-.538.704-8.796 4.242-17.124 9.257-24.002 16.239 0 .428-.57.016-.733.117-.765.478-1.343 1.303-2.346 1.491-.51.096-.056 1.301-.733.934-1.238-.078-.292 1.435-2.64.557l-.244-.729c-11.792-10.229 29.123-45.313 35.684-25.709zm35.685-3.662c.016 1.452-.212 1.667-.293 3.05-.666.051-.111.45-1.027.968-.001.483-.273.446-.244.728-.147-.122-.147.328-.245.582-.17.134-.319.242-.489.479-3.066.413-5.263 1.963-8.31.396 0-.01-.049 0-.049.005l-2.395-.298-.244-.489c-.549-.12-1.044-1.07-1.173-.831-.283.588-.162-.115-.489-.435l-.244.025c-.728-2.581-.671-7.87 1.906-9.352 0-.312.244-.078.244-.078l1.613-.9c.554-.118 1.87-.152 2.151-.772 0-.178.081.184.293-.098.745-.274 1.204-.334 1.858-.885 0-.01 0-.015 0-.015 5.367-2.632 6.585 4.199 7.137 7.92zm104.466-109.422c0-.728 0-.728-.098-1.08l.391-.87c.255 0 .199-.715.538-.816.599-.18.572-1.459 1.515-1.105.435.163.863-.523 1.418-.396 1.03.237 1.333-.394 1.565-.357.466.074.44-.247.44-.137 9.606-1.284 21.354 9.195 24.834 17.187-.216.354.809 1.69.635 2.572-.109.554 1.111.338.538.88-.302.286-.049.694-.049.694.846.218-.331 2.108-1.222 1.765 0 .024-.049.059-.049.078-6.122 4.224-11.438-3.395-16.62-5.788-6.24-3.096-13.742-3.767-13.836-12.627zm-121.38-82.204c.372 1.933.157 1.257-.049 2.865-.291.273-.088 1.542-.538 1.339-.236-.106-.163.611-.831.934-.141-.052-.291.763-.342.831-.147-.103-.147.352-.196.616-.024.263-.182-.187-.44.567-1.464.518-2.916 1.729-4.253 2.464-.293-.112-.196.308-.391.328-.169.301-.486.677-.782.846 0 .034-.049.098-.049.112-2.085.44-3.921 1.847-5.475 3.187.061.306-.538-.186-.538-.103-.084.112-.403.04-.44.23-1.439.694-1.222-.346-1.222.797 0 .246-.047-.273-.831-.117 0 .005-.049.015 0 .039.125.638-1.771-.116-2.004-.831-9.251-5.372 4.802-20.122 11.683-20.307 0 .02.049 0 .049-.01 4.502-.907 5.872 3.11 6.649 6.213zm74.5 286.887c228.271-4.43 26.628-190.131-126.464-103.9-28.323 15.351-42.867 58.363-17.255 82.548 39.084 32.769 96.67 19.903 143.719 21.352zm-92.294-156.112c18.021 18.379 48.299 16.596 72.251 17.823 33.999-1.046 100.863 7.992 116.395-30.066 10.635-48.269-49.783-61.067-84.522-70.093-13.814 5.082-28.364 6.129-42.823 6.888-30.801 8.9-87.655 35.801-61.301 75.448zm21.265-89.776c28.361 2.263 128.452 5.121 79.633-43.617-27.272-19.952-35.089-8.946-60.763-20.372-14.253 3.654-28.056 4.595-40.427 12.607-34.144 24.312-15.85 51.54 21.557 51.382zm232.298 252.942c-.775-.584-1.847-.684-2.346-1.462-23.382-6.503-51.838-5.731-76.455-6.311 68.955-35.746 19.927-109.156-37.348-124.679 114.763-12.081 69.483-123.682-27.033-116.022 28.862-17.029 13.024-52.502-13.052-63.051 71.119-13.187 36.602-71.914-14.959-57.419-.5.776-.945.686-.098.983-.588.104-2.086.244-2.493.616 58.077 8.438 63.85 39.925 1.025 43.659-46.412 1.533-69.13-30.071-10.801-41.49 1.056-.121 1.566-1.189 4.838-1.573 1.729-.203 1.268-.917 2.64-.968 1.28-.047-.198-.119 2.298-.943-.733-.284-.831-.328-1.32-.782 29.101-13.622 10.053-52.247-18.137-41.322.151.333.946-.008.441.9 0 0-.42.28.098.538-.513.144-1.197.244-1.418.592 1.415 2.233 4.076.973 5.866 2.326 28.76 9.663 14.374 30.653-10.755 27.693-21.642-2.983-20.643-22.54-.537-27.913.57-.106.813-1.141 2.59-1.525 1.141-.246.668-.864 1.515-.934.674-.056-.194-.098 1.32-.968-26.793-20.097-53.025 28.651-19.994 41.65-21.35 8.748-28.118 33.526-6.99 47.056-82.786-6.381-90.369 90.149-.684 83.167-45.996 13.847-75.873 71.501-21.705 97.011-31.866 6.456-66.459 21.347-80.561 52.727-16.064 36.379 2.281 74.745 41.698 83.162-16.332-.213-35.462 2.182-52.062 4.38-.725.25-9.609.676-4.546 1.652-.885.943-1.149.632-.147.983-.758.101-2.811.28-3.373.645 113.019 5.441 232.013 10.068 344.634-1.32-1.123-.34-1.123-.34-2.149-1.058z" fill-rule="evenodd"/></svg>