<svg id="Layer_1" enable-background="new 0 0 500 500" viewBox="0 0 500 500" xmlns="http://www.w3.org/2000/svg"><path clip-rule="evenodd" d="m94.062 316.626c-.936 0-.74-.287-.763.447l-.795-.223c.15.518-1.503-.256-1.793-1.174l-1.356-1.174c-.391-.608-2.04-4.477-1.944-5.423l.52-1.118c.165 0-.194-.324.161-.224 1.667-3.72 1.351-2.248 2.232-3.69.226-.46-.107-.366.688-1.621l.976-1.957c.004 0 .006-.056.011-.056.436-.785.898-1.719 1.629-2.292l1.398-.783c.004-.001 1.267-1.189 2.713-.447l2.459.95 3.881 2.628 1.692 2.739c-.003.001-.281.282-.168.615.245.726-.337.866-.07 1.23.135.168.14.28.109.28.356 1.563.126.835.07 1.23.148.742-.318 1.37-.849 1.621-.478.383-2.377 3.411-2.763 3.411l-1.035 1.454-3.008 1.621-2.494 1.789c-.106 0 .12.356-.443 0-.398-.252-.533.167-1.058.167zm-20.786 20.352c.015-.198-.225-.319.061-.28l.109-1.733c.117-1.056.726-2.292.679-2.292-.032-2.097.101-5.16 1.287-6.821.039-.056.151-.056.192-.112.137-.145.174-.503.487-.503.726-1.382 1.822-1.261 3.326-1.23l3.68.559c.207.112 3.28.927 3.28 1.342.392.297 2.036 1.441 1.676 1.677-.251.165.327.05.349 1.174.008.392.393.316.345.503.893 1.302.41.714.5 1.118.435.714.045 1.525-.216 1.677-.07.056-.002.168-.029.28l-.697 1.789c-.001.006-.333 1.77-.64 1.845-.346.085.093 1.326-.891 2.236-.787.728-1.7 1.513-2.215 2.46-.239.503-.465.426-1.074 1.566-.026 0-.118.056-.153.056-.032.074.173.401-.41.168-.378-.151-.655.615-1.496.615-.485 0 .54.701-.266.447l-.516.056c.372.501-1.707.152-2.066-.503l-1.68-.671c-.813-.735-3.738-3.454-3.698-4.473zm2.947 33.098c-2.213-1.172-4.247-.883-4.65-3.411l-.594-1.51c-.398-1.537.219-1.253-.782-3.075.181-.218-.04.008-.131-.615l-.638-1.901c-.007 0-.017 0-.02 0-.434-1.322-.604-2.211-.107-3.522.033-.112-.013-.223.205-.335.157-1.832 1.558-1.815 2.56-2.348 1.968-1.047 7.098-1.345 7.124-1.006.339.063 2.443.449 2.208.783 1.365 1.29.303.681 1.317 1.23 1.117.604.776.59.898.783.314.496.737.293.492 1.566-.106.551.599 3.707.299 3.914-.319.22.645 1.046.094 2.293-1.174 2.655-.889 2.469-1.518 4.92-.026 0 .403.28-.48.28-1.18 1.761-1.281.849-.727 1.51l-.581.168c-.521 0 .452.315-.66.559-1.83.402-.615-.132-2.608-.056-.404.028-.636.303-1.701-.227zm17.377 22.644-.382.391c-.044.432-.069 1.09-.417 1.454-.282.294.856.176.15.503-.218.112-.227.168-.236.168-.022.056-.052.168-.074.224-.15 0 .216.001.12.28-.139.405-1.503 1.006-1.946 1.006l-1.562.727c-.929.106-4.999.186-5.713-.223l-.777-.895c-.322 0-.175-.28-.177-.28-2.664-2.758-1.66-2.299-2.442-3.355-.308 0-.292-.41-.714-.503-.218-.048.147-.165-.234-.335l-.959-1.342c-.177-.168-.43-.335-.651-.559-.011 0-.026 0-.033 0-1.916-2.066-1.329-2.827-1.564-3.858-.687-1.819.974-2.743 1.35-3.243 1.503-1.997 6.027-4.169 6.089-3.858l2.21-.336c.282.658.635.086 1.363.895l.828.056c-.081.168.378.112.657.112.343.395 1.411.614 1.319 1.565-.011.112.118.112.153.168l.863 1.789c.601 1.036.359.202.926 1.733-.212.361 1.048.807 1.077 2.236.07 2.663.063 2.893.776 5.48zm21.517 25.439c-.166.168-.161.224-.159.224.008.112.011.168.02.28.616 0-.127 1.16-.944 1.677-1.638 1.038-.814 1.29-2.437 1.733-1.245.34-4.17 1.505-4.958.95l-.961-.559c-.604 0-.102-.259-.292-.224-.332.061-1.107-.719-1.688-.895-.784-.433-1.448-1.721-3.053-2.181-.245-.045.06-.197-.369-.28l-.718-.559c-.068-.056-.217 0-.271-.056-1.12-1.159-2.569-.637-4.455-3.914-.072-.112-.201-.168-.136-.447.089 0-.37-.094-.605-1.174-.331-1.523.172-1.307.52-2.628.452-1.715 1.792-3.175 2.658-4.305.058 0 1.026-1.346 1.671-1.51.424-.108 2.156-1.284 2.293-.783.073.266.684-.159.972.112.438.413.854.056 1.009.056.191.223.114 0 .321 0-.011.224.406 0 .682-.112.164-.056.131.112.209.112.035.056.024.112.078.056 1.138 0 1.012.514 1.374.671.164.056.247.224.302.447.028.056.165.056.229.112 1.147 1.067.757.923 2.049 1.845l1.201 1.286c-.046.301 1.426.646 2.003 1.957 1.508 3.423 1.355 2.72 3.079 5.423.3 0-.231.559-.188.559.11.47.4 1.074.203 1.621-.158.439.903-.09.361.506zm29.331 18.171c.278.476-1.52 2.962-1.867 3.411-.42.467-4.224 2.907-5.139 2.907l-1.267-.336c-.081-.116-.374.182-.306-.168-2.653-.617-1.853-.413-4.464-1.677l-1.809-.391c-2.726-1.087-3.917-.52-6.086-2.796-.103-.112-.245-.168-.25-.391-1.637-1.229-1.241-2.293-1.099-3.69l.876-3.69 1.112-2.348 1.341-1.342c.347 0 1.069-1.221 1.335-.727.124.23.655-.326.963-.168.101.056.262.056.395.056.183.236.44-.292.607-.223.321.132.249-.112.306-.112.044.223.389-.112.633-.28l.327.112c1.497-.193.934.234 1.501.28.181 0 .301.168.404.335.052.056.183 0 .262.056 2.339 1.559 1.798.604 3.971 2.181.039.335.42.056.544.28.303.499.755-.594 2.38 1.733l3.966 3.802c.304 0-.128.615-.03.615.199.427.675.85.625 1.51-.031.411.847-.329.478.335l-.002.559zm36.034 13.027c.046.059.054 1.444-.385 1.845-.832.947-.06 1.366-1.375 2.628-.671.644-2.961 3.08-3.765 3.187l-1.439-.056c-.242.187-.136-.112-.232-.112l-2.516-.056c-1.029-.119-1.328-.836-3.101-.503l-1.357-.28c-.083 0-.201.112-.277.056-.686-.409-2.917.592-5.425-1.23-.289-.21-.561-.15-.634-.503-.503 0-.931-.628-1.083-.783-.808 0-1.013-5.033-.635-6.318l.594-2.572c.125-.168.208-.224.404-.727.053-.112.079-.112.101-.056l.528-.783c.274-.05.765-1.395 1.151-1.006.197.199.605-.471.9-.335.46.075 1.132-.469 1.19-.559h.029c.081.168.352-.224.557-.392h.343c.41-.344 1.667-.191 1.974.168l2.409.727c.375.104-.027-.268 1.837.447.111.056.269-.056.33.168l2.112.392c.142.053 3.195 2.74 3.896 2.74l1.776 1.118c.612 0 0 .559.21.559.286.458.822.678.915 1.342.039.28.435 0 .552 0-.051.742-.099.717.416.894zm39.423 7.716c.105 1.811-.334 1.218-.299 1.677l-.175.895c-.047.324.224.71-.574 1.621-.741.846-2.27 3.678-3.4 3.802l-1.254.168c-.083.112-.164.168-.201-.056-.009 0-.029 0-.05 0-.162.256-1.031.063-1.712.28-.746.237-2.54-.168-3.071-.168-.388.422-2.825.312-3.337.335-.527.048-1.139.497-2.634.28-.86-.125-.613.339-2.675-.615l-.435-.28c-2.065-.293-2.238-2.699-2.393-3.019-.735-1.517-.652-5.634-.181-7.101l.468-.95c.368-.07.428-1.5.976-1.174.214.128.456-.615 1.365-.615l.345-.447c.065 0 .122.056.225-.168.011 0 .022-.056.026-.056.111.168.314-.224.485-.447.149-.217.265.042.347-.056.643-.765 2.927.011 4.56.112.008 0 1.042-.201 1.924.112.122.056.264-.056.36.112 1.525.086 1.725-.25 2.857.392 1.069.605 4.677 2.275 5.735 2.46.147 0 .286-.34.286.391 0 .36.942.515 1.197 1.286.155.468.651-.599.592.168-.02.28.002.28.026.28l.219.223c.175-.235.373.031.398.558zm38.351 2.628-.113.28c.007 0 .016.056.02.056-.014 1.618.338 1.501-.299 2.628-.726 1.285-1.537 3.659-2.896 4.305l-1.173.28c-.298.383-.342.056-.41.056l-2.654.783c-1.166.121-1.926-.047-3.014.335l-1.931.447c-.09 0-.179.168-.269.168-1.26 0-1.068.337-2.941.727-2.765.355-2.97-.245-4.062-.391-1.396 0-1.108-.326-1.514-.391-1.189-.19-2.669-5.052-2.811-5.703l-.265-2.628c0-.004.813-3.414 1.376-3.131.152.077.594-.839 1.343-.839l.299-.503c.07 0 .138.056.208-.223.288 0 .332-.696 1.271-1.007l6.401-.503c.131 0 .265-.112.393.056.221.28.437-.168.658-.056.436.204.635-.792 3.171.224 2.127.742 3.502.874 5.698 1.23.04.056.081 0 .12 0 .209-.281.226.48.315.503l.965.503c1.104.945.394.394 1.024.223.148-.04-.016.575.406.727.135.049.372-.63.762 1.174zm42.389-2.796c.143.696-1.693 5.242-2.557 5.982l-1.571.671c-.237.368-.239-.132-.301.056l-2.088.951c-1.933.862-2.546.16-4.359 1.51-.351-.112-.002.002-.874.28-.196.056-.4.056-.596.112-.094.056-.168.168-.267.224-.273 0-.546.056-.808.168-1.533.716-.389.424-2.868 1.23-1.218.396-3.52.449-3.769.168l-.771.112c-.49-.051-1.976-.479-2.372-1.286-.107-.218-2.159-2.338-2.619-4.082-.514-1.809-.857-2.009-.682-3.466.055-.452.358-2.607.837-2.404.234.099.349-.718 1.182-1.006.412-.142.086-.461.378-.559.074-.056.162 0 .192-.28.002 0 .009-.056.018 0 .366.223-.014-.783.755-.783.474-.796 1.972-.984 2.21-.895l5.615-1.23 2.494-.727c.394-.04 5.276.79 7.976.336.161-.018.093.254.332 0 .182-.193.354.503.423.503.017 0 1.231.181 1.719.671 1.352-.806.205.335 1.17.335.26-.652 1.206 1.092.948 1.733-.179.45.199 1.478.253 1.676zm41.215-11.126c.034.611-.772 5.243-1.485 5.982l-1.395.951c-.044.112-.087.223-.227.056-.033 0-.05 0-.057.056-1.881 1.308-2.539 1.75-4.853 2.628l-.946.839c-.221-.141-.21.246-.793.447-2.173.929-2.265 1.699-3.485 2.236-3.784 1.668-3.458.907-4.272 1.062-.22.112-.426.224-.666.224-2.515 0-2.213-.842-3.295-1.51-2.302-1.419-3.968-6.206-3.774-6.206l-.029-.951c.238-.342-.21-1.631.413-1.51.256.05.281-.898.592-.951.487-.082.777-1.232.784-1.23.363.096-.042-.663.48-.839.595-.415-.612-.109 2.093-1.286l5.213-2.125c.267.127 1.542-1.23 3.123-1.23 3.779 0 4.617-.721 7.15-.895.224 0-.028-.515.483.168.189.252 1.295-.018 1.902.503.186.16.337-.227.487-.447.237 0 .021.559.703.559.155-.659 1.342.858 1.228 1.51-.066.807.596 1.591.626 1.959zm35.304-14.201c.169 2.911-.055 2.251-1.05 3.522-.104 0-.046.434-.251.223l-1.328 1.454c-1.551 1.751-1.02.198-2.782 2.628-.02 0-.029.112-.079.056l-1 .839c-.063.056-.065.223-.137.223-2.319 2.57-3.125 3.525-6.685 4.082-1.005.178-1.637-.692-2.396-1.062-1.54-.752-4.799-4.352-4.807-5.423-.003-.382-.827-2.404-.284-2.404.266 0 .013-.823.291-.951.485-.222.252-.95.314-.95l.094-1.006c-.013-.168.116-.112.164-.224.208 0-.01-1.054 1.496-1.454.098-.056.12-.168.194-.224l3.776-2.572c.33.119.882-1.275 2.405-1.621 4.156-.945 2.568-.66 6.028-1.957l.522.335c.103-.056.179-.112.334 0 .096.056.092-.112.157-.112 1.495 0 1.12.705 1.465-.28.264 0 .04.447.742.447-.021-.685 1.05.558 1.162.671l.832 1.733c.298.422.575.299.631 1.621zm27.56-20.855c.174.655-.295 1.402-.666 2.013-.086 0 .036.439-.199.28-.044-.056-.052 0-.039 0l-1.73 3.019-.978 1.174c-.293.514.01.677-1.238 2.292-.048.056-.015.224-.076.28-.62.588-.534.826-.817 1.509-.007 0-.009.056-.018.056-.407.712-1.928 3.187-2.815 3.187-.829.218-2.135 1.932-3.728 1.23-.825-.364-1.954-.468-3.466-1.23l-3.083-2.181-1.592-2.795c.29-.496.333-.318.236-.727-.188-.791.44-.981.186-1.342-.32-.454.135-.24-.103-.615-.015 0-.022 0-.011 0 .201-.056-.035-.447-.127-.727.417-.753.028-1.399 1.251-2.181l3.3-3.914c.49-.201.666-1.646 2.022-2.292.838-.399 3.128-1.615 3.656-2.348l1.653-1.23c.044-.056.142 0 .195-.056.136 0-.14-.436.483-.056.385.235.699-.28 1.164-.28 1.057 0 .798.056.869-.559.004-.039.92.505.841.168-.13-.554 1.581.144 1.843 1.118l1.361 1.174zm17.563-26.948c.565.852.026 1.884.129 2.069.059.112.113.223-.088.223-.047-.056-.047 0-.022 0l-.179 1.901c-.36 1.8-.827 1.389-.769 3.69-.219.072.008.244-.174.783-.795 2.77.298 4.028-2.306 6.598-2.052 2.025-.289 1.174-3.425 1.51-1.243.133-4.089-.329-5.185-.895-1.121-.463-.641.091-1.837-.839-.364-.295-1.981-1.57-1.627-1.789.214-.132-.444-.663-.313-.95.167-.339-.286-.936-.45-1.23.181-.056-.184-.336-.369-.559.151-.923-.54-1.052.365-2.292.32-.439 1.295-4.309 1.596-4.361.317-.112.031-.447.197-.615.425-.324-.641-.616 1.376-2.516l3.031-4.137c.026-.056.12-.056.157-.112.072 0-.208-.417.428-.168.103.056.153.056.171.056.14-.198.968-.839 1.393-.839l-.011-.559s.976.214.837-.056c-.282-.544.944-.112 1.33-.112l.847.559 1.592.671zm9.138-20.799c.164 1.045-.029 2.879-.413 3.075-.173 2.216-1.705 2.293-2.56 2.851-1.147.75-3.728 1.234-5.094 1.286-1.649.093-.431.333-2.031-.056l-2.147-.671c-.152-1.096-.397-.11-.857-1.398-.015-.056-.006-.112-.044-.168-.576 0-.366-.413-.688-.447-.026 0-.042 0-.035 0 .14-.168-.314-.279-.57-.391-.205-.826-.901-.613-.575-2.236.109-.541-.586-4.525-.301-4.752.26-.224-.14-.392-.046-.615.167-.353-.59-.584-.046-2.18 1.015-2.979 1.023-3.38 1.518-5.982.096 0-.388-.248.321-.335.426-.053.369-.984 1.118-1.342.408-.195-.742-.541.065-.615 1.044-.095-.327-.502.946-.783.232-.056.443-.112.677-.112.156-.224.859.168 1 .168 1.38 0 1.551-.275 2.63.28 1.001.514 3.991 1.836 4.278 2.684l.384 1.23c.275.216-.215.185-.013.224l.594 1.845c.367 1.727-.15 2.118.782 3.746zm-23.196-42.324c.046-.476.007-1.122.38-1.565.269-.32-.841-.111-.168-.503l.304-.447c.139 0-.585-.127.259-.671 1.819-1.171.219-.009 2.409-.951.511-.226.052-.447 1.673-.447.95 0 4.335-.069 4.943.615l.802.895c.341 0-.064.224.083.224l.804.895c1.827 1.74.922 2.377 2.586 3.411-.165.453 3.477 3.1 3.625 6.038l.111 1.733c-.002 0-.01.056-.008.056.131 1.274-4.228 4.58-4.237 4.585-3.349 1.693-1.046 1.237-5.444 1.789-.356-.791-.649-.096-1.319-.895-.031 0-.038-.056-.087-.112l-.843-.112c.078-.168-.385-.112-.669-.112-.323-.356-1.484-.765-1.384-1.733.007-.056-.123-.112-.162-.168l-.928-1.957c-.153-.288-.219.181-.992-1.845.159-.28-.282-.335-.273-.503.021-.443-.813-.318-.884-1.957l-.157-2.684c-.004 0-.024-.056-.046-.056l-.749-3.075zm-2.389-15.599c-.498.607-2.712 3.354-3.232 3.354-.145.043-2.077 1.423-2.14.951l-.861.056c-.307-.376-.827.102-.891 0l-.29.056c.03-.168-.367.056-.62.168-1.024.135-1.681-.951-1.808-.951-1.617-1.68-1.069-.914-2.058-1.789l-1.09-1.118c-.773-.217-.417-.348-.668-.447l-1.055-2.74-1.328-2.236c-.047-.199-.388.23.057-.392.066-.112.088-.168.085-.168-.055-.462-.246-.834-.002-1.398.19-.439-.88.244-.271-.392.483-.504-.01-.427-.004-.615.013-.412 1.228-1.621 1.505-1.621.296-.119.65-.975 2.086-1.621.854-.354 3.614-1.574 4.409-1.454l2.581 1.23c1.279.795.783 1.048 2.575 1.621-.005.025 1.587 1.108 2.184 1.174l1.734 1.118.666 1.23c.245.411-.043.447.085.447.368.409.274.104.398.951.002 0 .002.056.011.056.326.744-1.596 3.774-2.058 4.53zm16.238-136.309c1.615-2.697-2.804-5.553-4.798-3.802l-3.049 4.137c-7.66 10.6-15.772 20.287-24.668 29.912-9.522 10.248-17.893 18.827-30.755 25.998-2.675 1.522-10.307 4.74-12.414 5.032l-6.128 1.174c-5.073.743-10.553.937-15.635.224-3.572-.501-4.81-.908-7.997-1.957-2.451-.807-3.252-1.367-5.332-2.46-7.797-4.098-21.337-19.785-26.645-25.887-5.487-6.308-12.319-13.816-17.341-20.239-1.858-2.377-2.735-2.413-3.099-2.852-.699-.95-2.708-1.733-4.857-1.677-2.908.038-4.019.057-6.591 2.013 1.7-1.973 3.508-2.823 5.526-3.97 1.752-.996 6.604-.079 8.329.335 2.975.714 5.564 3.775 7.808 5.871-.013-.056-.02-.112-.035-.112-.293-.839-.298-1.901-.252-3.019.134-2.852.101-5.591-.253-8.219-.282-2.184 1.266-12.884 1.581-15.935.484-5.326 1.217-8.982 2.453-13.977l2.33-9.113c.321-2.841 1.77-5.437 2.195-7.995.026-.168.07-.28.128-.447 1.212-2.851 1.793-5.703 2.682-8.554.802-2.581 2.104-4.971 2.833-7.045 4.238-12.056 12.159-27.803 18.138-39.64l9.092-18.562c.826-2.277-3.324-3.696-4.156-1.845.007-.112-.552.895-.917 1.566-5.512 9.982-11.579 18.978-19.106 27.676-3.489 4.032-10.019 10.613-14.336 14.089-5.244 4.224-12.806 8.072-19.241 9.113-12.552 2.032-23.543-.598-33.4-8.498-13.015-10.432-23.74-25.072-32.005-39.417l-2.454-4.417c-1.09-1.552-1.375-1.398-2.643-1.398-1.693.258-2.943 1.762-2.441 3.411l8.795 18.003c7.702 15.695 15.1 31.303 21.462 47.524.954 2.494 2.214 4.509 2.468 7.268l3.379 11.07c1.618 5.4 3.481 13.97 3.981 19.736.264 3.106 2.459 12.087 1.879 13.53-.268.668.125 6.186.312 7.212.396 2.175.601 5.766.551 8.107 1.631-1.313 6.158-5.093 8.046-4.92 1.372.168 3.639.056 5.628.783 1.201.32 3.765 2.743 4.608 3.802-1.504-1.21-2.802-1.779-4.517-1.621-.966.089-3.044-.662-4.973 1.062-3.755 3.356-9.985 10.574-12.632 14.034-.647.839-1.472 1.789-2.298 2.628l-17.522 17.947c-5.412 5.788-9.146 9.082-16.308 12.748-3.636 1.86-10.668 3.522-14.834 3.522-.703 0-1.41 0-2.116.056-1.509.247-5.375 1.154-6.506 1.118-1.497-.048-3.994.381-6.296.056-6.2-.876-9.712-2.463-14.502-6.262-.714-.559-1.363-1.174-2.001-1.845-3.512-1.901-6.814-3.858-9.952-6.094-2.752-1.957-5.165-4.249-7.587-6.486-13.306-12.673-23.798-23.747-34.857-39.025l-4.883-6.821c-.981-1.274-2.746-1.631-3.87-1.007-3.268 1.813-2.79 3.253-1.487 5.535 15.286 27.05 30.09 51.187 47.664 76.653 4.946 7.199 7.105 11.611 9.454 20.016 5.201 18.61 10.044 35.64 15.95 54.065 1.494 4.697 3.14 9.337 4.54 13.978 2.348 7.827 5.403 15.319 8.072 22.979 3.212 9.252 6.932 18.306 10.572 27.396l4.272 10.623c.682 1.344 1.961.783 3.129.783.134-.148 1.394-.073 1.411-1.789l-6.882-48.306c-.928-6.374-1.856-12.804-2.787-19.177-1.087-8.222 9.685-11.585 13.512-4.64l37.458 68.154c.772 1.382 1.116 2.714 2.946 2.348 1.301-.26 2.955-.771 2.606-2.516l-1.131-4.864-5.768-24.824c-3.337-14.232-8.315-36.174-10.507-50.375-.31-2.181-.621-4.361-.93-6.597-.689-4.836-1.544-8.997-1.368-13.866.087-2.391-.298-5.597-.354-8.107l.164-13.027c.731-11.993 3.662-24.958 8.94-35.727 2.132-4.35 9.073-19.456 11.867-21.973.969-.873 6.285-8.931 7.275-10.623 1.998-3.466 4.187-6.709 6.345-10.008 2.22-3.388 1.679-6.042-.276-9.169 1.125.794 1.669 1.222 2.332 2.404.895-2.58 2.455-4.9 4.702-6.318-1.181 2.191-3.921 4.415-3.647 9.728.027-.167.259-2.128.476-1.621.18.418-.263.159.519 2.069.53-1.056-.115-3.347-.068-3.578.153-.28.45.391.614.95.131-.503.304-1.006.524-1.342.564-.513-1.209 4.107 1.494 8.275 9.563 14.404 20.691 27.469 28.165 43.554 6.894 14.837 9.621 30.771 9.186 47.077-.392 14.698-3.751 33.604-6.515 47.412-.635 3.171-4.935 23.757-5.945 27.005-.19.615-.358 1.342-.476 1.957-.957 5.255-2.405 10.455-3.564 15.655-1.063 4.641-2.129 9.281-3.193 13.922-.336 1.486-.859 2.835.127 4.137.928 1.224 5.047 2.508 6.074 0l3.603-6.597 15.474-28.067 17.197-30.862c.109-.727.221-1.398.33-2.125l.703.28 1.175-2.124c3.114-5.647 12.101-3.142 11.305 3.802l-.364 2.46.694.224-.992 1.733c-.013.037-9.334 61.978-9.319 63.794.403 2.614 2.521 2.628 4.475 2.628 2.649 0 2.919-2.153 3.956-4.808 4.567-11.702 10.176-26.067 14.167-37.684l11.84-35.671c5.092-16.28 9.873-33.611 14.32-50.263 3.485-13.049 4.564-14.964 12.276-26.334 16.469-24.284 31.216-48.76 45.666-74.253zm-230.261 27.731c-.675-4.16-1.95-7.67-4.634-10.903-.308-.371-.859-1.597-1.644-2.292-.83-.727-1.872-1.174-2.514-2.069-.031-.056-.083-.112-.135-.112-.54-.112-1.404-1.389-2.46-1.621l-3.147-1.957c.139-.585.097-.742.431-.839.815-.236-.242-1.862.258-2.796.927-1.73 1.207-5.96 1.658-6.206.735-.401.382-.917.483-1.51.044-.28.149-.503.181-.727 1.142-7.743 2.376-15.491 4.268-23.091 1.012-3.874 1.636-6.013 2.243-9.952.155-1.004.107-2.262.441-3.355.277-.895.07-1.901.509-2.739l1.704-7.995c.135-.783.19-1.51.336-2.236l2.494-11.406c.702-1.983 1.728-6.714 1.68-8.834l.199-.839c1.898 3.295 9.149 19.745 10.95 24.042.559 1.342 1.026 2.628 1.559 3.97 7.279 18.057 8.756 21.33 13.477 41.541.88 3.746 1.573 7.548 2.215 11.406.445 2.628.843 5.312 1.456 7.827-8.487 7.511-16.755 14.453-25.183 22.253-3.38 3.128-5.369 4.904-8.966 7.436 1.418-3.243 2.254-6.765 2.446-10.343.073-1.707.049-5.114-.305-6.653zm-104.367-46.853c.252.152 1.444.196 1.9.503l7.297 1.006 8.103.335c8.433 0 12.842-.549 21.108-3.075 3.348-1.023 7.212-2.584 10.232-4.417 2.653-1.61 4.273-2.193 6.838-4.361 3.771-3.187 6.142-7.324 8.738-11.406 2.597-4.083 4.711-10.03 6.442-14.201l11.986-28.514c.071-.559.382-.107.769-1.677.306-1.243 3.98-8.789 4.859-12.804l1.736-9.057 9.725 18.954c-.685.815-1.051.881-1.868 2.124-2.201 3.349-1.609.676-3.944 6.597l-4.794 15.599-2.266 12.189-1.068 7.324c-.077.392-.029.783-.088 1.174l-1.028 6.43-.306 4.249-1.577 10.4-.767 11.461c.107.398-.336.23-.159 1.23.392 2.217-1.702 6.243 1.9 15.543-.075 0-2.537-1.017-3.368-.671-2.129.887-3.143.11-3.853.895-.578.638-1.05.112-1.244.503-.269.447-.644.559-1.022.727 1.179.927 1.433 2.713 2.957 3.97 1.424 1.174 5.31 4.274 5.823 5.535.317.78 3.901 4.388 5.377 8.051l.6 1.398c0 .91 1.348 3.997.182 8.722-.83 3.365-1.077 3.879-2.787 6.374-1.908 2.782-5.912 6.156-9.52 6.43-.616.047-.33.502-3.418.391-2.175-.078-8.901-2.485-10.601-3.69-2.93-2.077-5.641-7.899-6.039-11.35-.313-2.712.215-5.755.183-5.927-.056-.306.277-.109.378-1.174.269-2.845 5.608-10.105 7.969-12.468 1.997-1.998 4.086-3.329 6.705-4.473 2.515-1.098.664-1.01.637-1.398-.018-.272.578-.895.116-.895-.039-.056-.074-.056-.117-.112.522-.227 1.282-.346 1.555-.727-.487-.595-2.004-1.286-2.767-1.286-1.337 0-4.221.904-4.713.447-.73-.678-2.91 1.277-4.401 1.565-4.336.839-8.928 5.357-9.4 5.591-1.223.299-1.213.827-2.009 1.845-.282.392-.609.671-.878 1.006-2.968 4.018-5.237 10.206-5.517 15.32-14.361-14.347-23.75-25.576-35.411-42.268-2.716-3.887-5.536-6.421-10.455-7.827.397-.166.812-.221 1.27-.11zm219.151-50.375c.059-.112.125-.224.183-.391l1.817 9.952 3.134 11.741 1.911 6.933c.072.391.273.727.362 1.118l1.402 6.15c1.731 5.139 2.586 12.187 3.661 17.668l1.526 7.324c.205.293-.279.101.131 1.118.325.805.792 6.324 1.854 8.722l3.187 6.542-2.546.503c-4.391 1.541-9.768 6.744-11.68 11.07-1.704 3.855-2.349 4.522-3.088 8.946-.325 1.947-.548 2.291-.557 4.752-.017 4.3.626 7.968 2.423 11.909-4.602-3.392-11.647-10.135-15.695-14.257-2.44-2.485-9.06-9.192-11.695-11.238-1.909-1.453-3.815-3.019-5.72-4.696.814-2.1 1.023-1.301 1.338-2.404.419-1.398.894-2.739 1.26-4.193 1.547-6.339 5.694-25.103 7.524-29.465.337-.783.643-1.677.904-2.572 1.58-5.128 6.118-17.559 8.754-23.594zm15.819-31.365 2.32 6.653c-.294 1.029.412 1.538.718 2.292.146.391.236.783.393 1.118 2.912 6.32 5.76 13.858 8.64 19.848l4.099 10.231c2.766 7.252 5.146 14.805 9.826 21.19.607.838 1.19 1.621 1.764 2.516 1.016 1.453 2.315 2.572 3.397 4.026 2.248 3.021 8.623 7.421 12.327 9.113 5.948 2.718 14.899 5.113 21.268 5.759 6.553.599 9.846 1.144 16.904.056l2.512-.224c.957-.335 1.874-.839 2.887-.783.028.001.637-.392 1.389-.392.658 0 .06-.474 1.172-.391 1.071.08 2.526.95 2.741.95-6.506 1.75-8.692 4.946-12.023 9.728-9.133 13.115-21.309 27.233-32.402 39.081-.885.95-1.879 1.789-2.807 2.739-.017 0-.037 0-.055.056.007-1.666-.516-6.185-1.306-7.548-.292-.503.257-.488-.572-1.957l-1.605-3.411c-1.214-2.294-3.589-5.456-5.764-7.101-7.545-5.704-18.993-3.755-18.62-2.628.123.372.855-.039.4.895-.074.152-.297.559.061.559-.643.325-1.03.143-1.297.615.793 1.236 2.723 2.04 3.466 1.789.189-.064 1.453.314 1.514.783.107.836 2.038.255 2.874 1.174.353.389 5.028 4.031 4.857 4.92-.158.828.471.916.793 1.454 1.978 3.302 2.841 5.169 2.953 9.002.086 2.953-.25 4.789-1.402 7.38-1.08 2.43-3.813 5.353-6.307 6.709-2.749 1.495-5.268 2.09-8.317 2.572-4.62.73-11.874-2.968-14.522-8.442-.934-1.845-1.492-3.914-1.644-5.982-.009-.391-.179-.783-.114-1.174.588-3.404-.107-1.506 1.077-5.479.384-1.289.439-2.002 1.094-3.299.144-.336.489-.503.567-.895.401-2.079.778-1.586.784-1.901.015-.727.768-.596.913-1.566.11-.736 3.215-2.644 3.898-3.354 1.097-1.141 2.938-1.045 3.291-1.677.871-1.556 2.005-1.028 2.439-1.901.338-.68.813-.298.939-.615.186-.503.511-.615.845-.838-1.008-.752-1.675-2.975-3.606-3.467l-2.848-.559c-.133-.517-.558-1.818-.389-2.348.599-1.881.192-6.219.551-6.597.647-.683.176-.95.152-1.621-.123-3.436-.678-11.734-1.256-15.152l-.61-7.436c-.538-5.299-.564-7.67-1.685-12.859l-1.488-6.206-1.726-8.275c-.187-.727-.478-1.454-.664-2.181l-2.487-10.399c-.101-.391-.301-.783-.358-1.174-.28-2.011-1.659-7.186-2.666-8.778l-.465-1.51c-.397-.503-.983-.95-1.002-1.621-.007-.207-.218.057-.485-.895-.171-.608-.905-.668-1.548-3.355-.231-.966-.892-1.674-1.311-2.516zm113.5 92.475c-2.205-4.975-7.079-9.072-12.427-10.455.191-4.541-1.577-6.538-4.429-9.896-4.379-5.156-15.537-2.697-21.246-3.522 7.192-7.31 9.39-16.724 7.26-26.501l-.644-1.845c.088-.873-.481-1.377-.869-2.46-1.002-2.796-4.421-7.812-6.974-9.617-8.292-5.86-18.957-3.656-18.62-2.628.083.255.918.147.398.895-.338.485.057.559.061.559-.638.326-1.027.14-1.295.615.793 1.237 2.722 2.04 3.466 1.789.143-.048 1.447.266 1.513.783.107.836 2.036.255 2.874 1.174.418.458 5.005 3.967 4.855 4.92-.136.867.466.902.793 1.454 1.973 3.331 2.842 5.124 2.955 9.002.085 2.938-.251 4.79-1.402 7.38-1.488 3.348-5.401 6.779-9.05 7.939l-5.576 1.342c-.659.104-3.583.064-4.206-.335-.819-.526-2.727-.278-6.696-3.634-1.598-1.352-2.665-2.4-3.617-4.473-.934-1.845-1.491-3.914-1.644-5.982-.011-.391-.179-.783-.114-1.174.602-3.484-.112-1.398 1.077-5.479.374-1.285.451-2.028 1.094-3.299.144-.336.489-.559.568-.895.125-.671.203-1.398.745-1.789.024 0 .037-.056.04-.112.015-.724.772-.603.913-1.566.109-.75 3.337-2.773 3.896-3.354 1.17-1.217 2.902-.952 3.294-1.733.672-1.341 2.029-1.015 2.439-1.845.337-.681.813-.297.939-.615.186-.503.511-.615.845-.838-1.15-.854-1.448-2.788-3.608-3.467-1.954-.614-5.498-.957-7.46-.447l-3.436.727c-4.295.616-10.276 6.654-12.357 10.623-1.836-4.432-4.158-8.64-6.349-12.859l-3.951-7.66c-.319-.397.065-.596-.747-1.677-.732-.976-4.165-8.772-6.603-12.021l-6.115-7.548c2.337-4.737 4.587-8.17 4.073-13.81-1.48-16.227-23.759-22.455-32.765-7.045-6.423 10.992-10.409 17.816-18.964 27.843-.111-1.373-.581-4.609-1.194-5.703-.301-.538.251-.529-.575-1.901l-1.605-3.466c-3.029-5.635-7.561-9.399-13.888-10.567-2.252-.416-8.173-.757-10.302.503-.842.498.798.311.206 1.286-.315.518-.128.232.063.559-.345.087-1.106.276-1.297.615.07.112.107.224.155.224 2.099 2.134 3.035 1.301 3.575 1.566.674.33 1.184.307 1.249.783.11.804 1.946.192 2.872 1.118.611.611 4.999 4.135 4.857 4.92-.152.84.338.827.795 1.454l1.76 3.243c1.889 4.109 1.603 11.227-1.102 14.76-2.664 3.479-4.676 5.278-8.867 6.542-2.051.749-4.267 1.29-6.462 1.174-3.782-.2-1.424-.195-3.357-.615-2.746-.596-7.28-3.922-8.66-6.262-1.388-2.355-2.407-4.688-2.551-7.548-.011-.392-.179-.783-.113-1.174.579-3.345-.005-2.135 1.21-6.038l.961-2.796c.144-.28.487-.503.567-.895.122-.615.203-1.342.745-1.733.152-.19-.227-.212.537-.895.575-.514-.07-1.099 2.602-2.796 1.581-1.004 1.612-1.702 3.075-2.181.697-.228 1.686-.479 1.929-.895.932-1.596 1.958-.95 2.439-1.901.299-.591.857-.354.939-.559.186-.503.511-.615.846-.895-.809-.5-.722-.935-1.024-1.23-1.166-1.141-.731-1.599-2.584-2.181-2.214-.695-5.19-.925-7.46-.447-3.356.706-4.975.812-7.913 2.74-4.156 2.727-7.463 6.97-9.291 11.629-.741 1.889-.563.657-1.437 3.746l-1.018 5.032-4.034-4.808c-5.333-6.765-10.025-13.922-14.329-21.581-4.61-8.182-14.661-10.107-22.677-4.976-5.827 3.73-8.295 11.972-5.488 18.45l.755 1.621c-1.453 3.832-1.704 1.85-2.107 3.019-.297.86-.764 2.725-1.313 3.354-1.472 1.69-4.644 8.288-5.145 8.499-.943.395-.896 1.307-1.304 2.069l-10.097 20.463-4.457 8.666-2.145-2.907c-.832-.727-1.872-1.174-2.516-2.069-.031-.056-.081-.112-.135-.112-.642-.133-1.025-1.162-2.457-1.621l-2.78-1.789c-4.29-2.517-4.653-1.611-6.738-2.572-.552-.255-2.444-.817-3.06-.559-2.169.908-3.174.084-3.854.895-.435.518-1.109.21-1.245.447-.267.503-.642.615-1.022.783.446.351 1.68 2.053 1.786 2.684.106.632 6.326 5.172 6.993 6.821.769 1.899 8.658 7.758 6.159 18.171-.833 3.469-1.108 3.872-2.785 6.374-1.601 2.389-6.491 5.873-9.522 6.43-.615.047-.325.502-3.418.392-2.882-.112-1.671.081-3.942-.503-3.288-.681-1.245-.256-3.936-1.23-1.673-.606-4.292-3.47-5.279-4.752-1.962-2.549-3.261-6.323-3.595-9.617-.164-1.614.335-4.646.295-4.864-.057-.305.277-.108.378-1.174.268-2.836 5.609-10.109 7.969-12.468 2.001-1.999 4.083-3.328 6.705-4.473 2.517-1.099.668-1.008.639-1.398-.021-.295.566-.827.116-.95-.041 0-.076 0-.12-.056.526-.228 1.282-.346 1.555-.727-2.2-2.673-6.522-.071-7.478-.838-.803-.645-2.973 1.289-4.403 1.565-4.207.814-9.105 5.413-9.4 5.535-.967.112-1.48 1.225-2.009 1.901-.28.392-.61.671-.878 1.006-3.226 4.372-5.534 11.065-5.587 16.605-.056 5.907 1.568 11.84 4.576 16.941l3.023 4.026-4.892.391c-.528 0-1.046-.168-1.579 0-.893.168-1.795.559-2.706.335l-.802.168c-3.558 0-1.114-.017-3.85.559-3.48.733-6.571 2.094-8.57 5.2-.811 1.261-3.092 4.807-2.874 6.486-6.489 2.071-11.805 7.627-13.065 14.369-1.413 7.529 1.901 12.066 5.314 18.171 13.909 24.882 29.976 50.228 46.266 73.69 5.409 7.79 6.276 13.421 8.836 22.364 11.037 38.549 26.601 85.173 42.516 122.779 2.622 6.196 8.778 10.165 15.529 9.728 4.144-.268 7.331-.914 10.771-3.802 4.597-3.859 6.333-9.282 5.477-14.984l-5.355-33.937 21.019 37.124c2.145 3.753 3.41 6.473 7.808 8.61 4.246 2.063 8.96 1.627 13.173-.112 6.19-2.555 9.59-9.389 8.098-16.158l-3.821-15.711c-1.326-5.144-2.412-10.399-3.903-15.487-.186-.671-.365-1.342-.47-2.013-.566-3.501-2.096-8.777-3.01-12.692-5.821-24.954-14.24-62.559-9.336-89.121 4.224-22.881 15.246-38.528 26.212-58.314.107.168.205.391.321.559 2.066 3.467 4.111 6.877 6.406 10.12 1.157 1.658 6.121 9.678 6.454 11.014.37 1.486 3.579 6.359 4.547 7.939 2.267 3.699 5.003 8.74 6.56 12.803 4.059 10.592 6.284 21.223 6.681 32.596.054 2.18.177 4.473.144 6.653-.088 2.185-.545 11.172-1.024 12.859-1.093 3.848-1.224 8.933-1.928 13.139-3.321 19.833-7.004 36.209-11.819 55.798l-7.273 29.856c-1.752 7.767 2.976 15.591 10.775 17.779 2.972.834 5.354 1.313 8.594.615 4.7-1.012 8.054-3.886 10.304-7.939l19.123-33.826-4.359 27.117c-.831 5.249.018 10.099 3.562 14.425 3.844 4.691 8.558 6.106 14.076 6.318 7.665.295 13.908-3.796 16.852-10.791 5.203-12.363 9.876-26.039 14.569-38.578 2.889-7.716 5.229-15.599 8.099-23.371 1.712-4.585 3.147-9.393 4.669-14.089 5.438-16.829 11.733-37.77 16.112-54.792 1.492-5.983 3.464-10.511 7.035-15.543 6.406-9.393 12.674-18.842 18.762-28.402 10.063-15.816 20.935-33.93 29.976-50.375 2.712-4.938 2.91-10.684.686-15.88z" fill-rule="evenodd"/></svg>