<svg id="Layer_1" enable-background="new 0 0 500 500" viewBox="0 0 500 500" xmlns="http://www.w3.org/2000/svg"><path clip-rule="evenodd" d="m357.033 177.975c-.157 7.152-.708 11.612-1.865 18.74-.08.527-.193 1.123-.354 1.623-.607 2.144-1.15 4.277-1.601 6.474-2.337 10.343-10.819 28.272-15.307 36.755-9.077 17.158-17.12 31.856-24.758 49.946-5.38 12.742-12.276 32.112-15.06 45.798-4.779-1.263-6.741-.745-11.105-.881-3.079-.102-6.13.301-9.22.043l-15.56-.054-11.277.038c-2.461.059-4.932.113-7.404.166l-34.139.08c-1.338.011-2.676.118-4.003.075-2.627-.091-5.244-.145-7.877-.075-5.725.143-23.386-.233-28.159 1.564-.277-3.16.181-2.91-.021-4.288-1.907-12.947-7.385-29.041-12.417-40.882 15.078-6.996 35.448-18.179 50.123-27.133l3.766 10.95c2.705 6.313 9.164 10.796 16.103 10.483l13.856-.269c7.097-.152 12.96-4.629 15.296-11.417l5.045-15.57c9.752-3.468 18.488-8.605 26.332-15.296 2.216.466 15.46 3.386 17.924 3.551 6.6.444 12.316-2.787 15.56-8.392 1.254-2.168 6.801-11.763 7.678-14.077 2.208-5.825.833-12.219-3.331-16.742l-10.934-11.928c.482-3.717 1.202-7.708 1.241-11.299l15.291-12.992c2.434-2.165 5.056-4.148 7.355-6.453.285-.285.628-.586.956-.801l15.592-13.518c1.717 8.949 2.441 16.724 2.274 25.781zm-57.962 159.594c.016 0 .032.011.043.011 0-.016 0-.038-.011-.054-.01.011-.016.027-.032.043zm3.105 25.87c-.439 4.098-3.951 8.007-8.365 9.214-2.254.617-8.308.383-10.541.398l-25.156.484-11.396.295c-.644.088-1.584-.223-3.831-.016l-7.248.14c-6.057.11-15.691.194-21.685.833-6.972.743-15.342 1.602-22.19 2.692l-11.675 1.585c-.812-.136-.568-2.286-6.909-1.16-.312.048-.623.123-.935.21-.558-.654-.255-.689-.698-.972-1.334-.854-4.157-3.696-4.873-4.658-2.215-2.975-3.875-8.08-2.52-11.584 2.41-6.232 5.39-9.512 12.384-9.408l9.72.043c2.752.291 8.442.203 11.557.247 1.085.022 2.155.118 3.234.134 19.189.239 38.384.159 57.564-.301l23.603-.457c5.229.008 9.547-.968 13.969 1.053 2.005.916 4.417 3.63 5.254 5.642.716 1.714.893 3.726.737 5.586zm-5.512 33.182c-.023.528-.661.315-.677 1.719-.014 1.318-1.407 3.924-2.117 4.846-2.202 2.861-5.634 4.296-9.182 4.25l-25.902-.741-14.856-.484c-3.478-.022-9.965.384-13.013.231-1.924-.086-3.831.317-5.771.059l-16.768-.021c-1.547.027-3.089.156-4.637.172l-22.958.059c-3.699-.991-4.268-1.295-7.065-4.067-2.131-2.112-1.709-2.995-2.165-3.659-1.178-1.716-.714-2.078-.87-2.364-.423-.772.108-1.392-.279-2.294-.466-1.085 2.291-6.927 3.804-7.876 3.09-1.939 1.558-1.474 3.181-2.88 1.41-1.222 1.271-.315 3.987-.183 1.494.08 2.982.183 4.476 0 .381-.045 4.296.042 4.798.446.989.796 6.146-.321 9.112.075l13.223.757c1.37.043 6.868.051 7.64.365 1.777.723 3.249.276 5.115.328l35.02.478 29.69.468c1.39.053 1.475-.253 2.896.844 1.228.948.968.889 1.832 2.498.469.873 1.588 4.333 1.526 5.212-.018.591-.04 1.177-.04 1.762zm-27.256 25.408c-.782 1.067-2.724 6.034-3.315 6.163-.889.194-.72.799-1.032 1.349-2.52 4.447-4.95 6.938-8.65 10.139-3.781 3.089-7.435 4.779-12.212 6.044-2.015.534-10.459 1.8-11.997 1.585-1.207-.169-1.884.278-2.864-.156-.543-.242-1.134-.21-1.698-.296-2.258-.278-8.016-2.072-10.343-3.293-2.554-1.341-4.92-3.138-7.081-5.018-.311-.274-.725-.457-.983-.795l-6.281-7.425c-.199-.312-.263-.704-.564-.972-.5-.44-1.198-.795-1.365-1.456-.081-.249-.119.336-.629-.859-.19-.445-1.312-.99-1.896-3.369-.156-.602-.446-1.155-.795-1.698l15.479-.333 14.764-.457c.763 0 1.531-.129 2.3-.14l13.034-.215c1.177-.081 2.354-.215 3.535-.258l22.878-.311c0 .567.039 1.359-.285 1.771zm20.148-190.208 14.893 3.32c1.687.38 3.492.999 4.938-.752l6.055-10.257c2.985-5.063 2.504-4.512-2.638-10.396l-9.252-10.472c-1.344-1.634-2.156-4.17-1.483-6.023-15.199 12.565-31.497 25.141-47.453 36.578l-16.258 11.589c-2.696 1.862-7.341 5.456-9.854 6.931l-8.683 5.69 4.272 12.701c.363 1.06.875 1.884 2.165 2.063l11.449.043c2.097.02 4.341.506 5.169-1.714l6.179-18.155c.781-2.383 2.681-4.142 4.905-4.841 10.522-3.304 18.547-7.81 26.87-15.13 3.116-2.739 5.497-1.939 8.726-1.175zm-155.221 15.119c5.431 10.173 11.918 21.655 16.64 32.113 7.381-3.331 17.339-8.187 24.36-11.965 2.611-1.381 5.19-2.901 7.844-4.132 4.051-1.999 7.774-4.508 11.675-6.721-5.487-2.662-10.924-6.442-15.565-10.338l-14.829 3.358c-7.271 1.645-14.28-.718-18.783-6.802l-8.881-15.194c-2.85-6.644-1.61-13.994 3.159-19.353l10.122-11.337c-1.757-9.703-1.837-19.697-.161-29.438l-9.816-11.025c-5.888-6.675-6.577-15.02-1.913-22.62l6.463-10.907c4.057-6.918 12.016-10.313 19.81-8.344l14.738 3.24c7.662-6.307 16.865-11.429 26.332-14.571l5.255-14.093c2.463-6.167 7.468-10.213 14.125-10.773 2.769-.233 12.466.638 15.581.93 5.686.533 10.429 4.054 12.126 9.462.757 2.412 1.464 7.821 1.811 10.208.161 1.108-.28 1.423.188 5.26.281 2.306-.233 1.53.553 5.512-.704-1.472-1.332-2.998-2.079-3.739-.421-.414-.992-3.113-2.224-4.771-1.441-1.939-2.908-7.448-4.212-9.907-1.015-1.913-4.171-3.382-5.974-3.45l-13.593.231c-2.3.125-4.39 1.391-5.26 3.627l-4.347 13.943-1.166 4.857c-1.095 4.376-6.847 4.059-11.364 6.926-.151.097-.333.193-.494.258-3.471 1.413-6.356 3.535-9.193 5.685-2.143 1.631-5.309 3.703-7.285 5.561-2.21 2.077-4.008 4.39-7.871 3.696l-17.01-3.197c-1.985-.405-4.131-1.207-5.437.956l-5.534 9.693c-1.084 1.89-2.77 3.916-.967 5.84l12.873 14.195c1.758 1.941 2.176 4.25 1.73 6.619-2.352 11.401-2.217 19.669.038 30.819.548 2.434-.194 4.9-1.741 6.635l-12.212 13.598c-.866.975-1.59 1.762-1.166 3.277.269.96 5.622 9.876 6.292 11.03.919 1.582 1.441 3.044 3.535 2.928l16.145-3.385c3.441-.727 6.431-1.786 9.698 1.118l5.593 4.75c4.587 3.795 12.269 7.631 17.999 9.703l19.17-12.578c-13.052-.696-26.282-6.927-35.214-16.495-6.673-7.148-11.977-17.081-13.389-26.859-.86-5.956-.789-8.061-.419-14.018.107-1.822 1.837-9.653 2.439-11.208l1.505-3.573c3.968-10.003 10.904-18.052 20.202-23.431 1.79-1.036 7.051-2.732 9.128-3.39 4.015-1.272 11.908-1.982 15.947-.537.716.256-.076.333 2.112 1.392.555.268.447.695 2.036 1.225-.682.258-1.343.392-1.757.908-.244.304-1.3-.018-2.01.666-.934.899-3.312.565-5.512 2.38-.731.604-4.17 1.378-6.012 2.235l-7.398 4.653c-4.34 3.264-2.909 2.981-4.658 4.588-1.589 1.46-1.227 1.61-1.472 1.832-1.793 1.631-1.772 3.095-3.036 4.728-1.478 1.909-2.779 5.1-3.605 7.372-2.561 7.042-2.365 8.328-2.993 14.609-.091.94.15 1.891.177 2.842.333 5.067 1.671 10.036 3.938 14.571 2.243 4.872 5.973 9.118 10.106 12.47 2.288 1.856 6.876 4.737 9.601 5.754l6.92 2.278 7.791.629c5.671-.314 11.304-1.638 16.468-3.992 8.933-4.073 14.572-9.924 18.998-18.45 2.199-4.236 3.633-11.255 3.578-15.801-.112-9.232-2.23-16.081-7.624-23.812-.888-1.274-1.885-1.808-2.165-3.084-.282-1.284-5.364-5.506-6.694-6.549l-5.126-3.525c-2.12-1.528-5.943-1.576-6.437-2.482-.296-.544-3.062-1.268-3.471-1.268-1.844 0-6.133-.963-7.608-2.176.46-.35 2.05-.458 2.697-.527-.801-.429-.564-.089.172-1.026-.206-.316-2.029-.534-.816-.844 2.084-.532 2.723-.475 4.776-.473 10.546.013 20.321 3.118 28.567 9.87 4.827 3.952 10.305 12.263 12.256 17.677.204.543.408 1.101.661 1.617 1.207 2.486.623 2.474 1.042 3.465 1.269 3.006 2.206 10.495 2.095 13.813-.202 6.05-.129 7.268-1.612 13.303l20.583-16.301c-.152-5.192-.651-8.064-1.644-13.196-.414-2.142.098-4.116 1.472-5.647l9.204-10.042 4.954-5.668c1.765-1.791-2.486-7.823-3.428-9.526l-3.191-5.765c-1.196-2.133-2.69-3.424-5.502-3.186-3.965.49-9.169 1.56-13.11 2.472-8.462 1.954-7.338 2.634-11.858-1.069-2.468-2.022-1.164-1.747-3.299-3.465-7.403-5.962-9.98-6.09-17.634-10.66-1.7-1.015-4.215-2.097-5.642-3.245l7.42 2.219c-1.691-1.17-.852-.604-.226-.693.285-.065.575-.118.86-.161-.4-.515-4.332-2.138-1.591-1.494 8.62 2.025 18.386 7.736 25.414 13.131l17.462-4.916c4.792-1.49 10.195.099 13.701 3.702 1.794 1.844 7.491 11.04 8.865 13.196 3.853 6.046 3.461 13.334-1.311 18.584l-10.832 12.282.763 4.309 36.901-30.759c-4.024-13.853-12.127-28.809-20.905-40.14-14.427-18.684-35.336-33.796-57.957-40.823-6.577-2.043-13.674-3.865-20.465-4.804-7.404-1.023-18.377-1.704-25.741-1.123l-12.024 1.424c-37.009 5.573-70.304 30.237-87.878 63.061-9.706 18.129-14.68 38.772-14.587 59.305.051 11.402 1.556 19.763 4.669 30.996 3.03 10.939 12.076 28.931 17.595 39.257zm332.851-202.05c-.54.765-.571 1.384-1.069 1.424l-.51.548.677-2.058c-2.795 4.094-3.99 7.021-6.179 11.116-.568 1.062-.953 1.179-1.418 2.187-2.244 4.86-2.643 5.527-5.453 10.418l-5.803 10.353c-1.4 1.554-1.342 2.166-2.16 3.659l-12.433 24.011-3.874-22.716c-.537-2.751-2.633-5.077-5.534-5.776-1.107-.258-2.214-.526-3.294-.865-2.466-.752-5.045-1.026-7.473-1.945l-10.128-2.751c5.48-1.833 14.924-5.652 20.137-8.274l3.669-1.553 10.171-5.072 10.805-4.642c2.615-1.226 6.745-2.607 8.478-3.568 2.833-1.571 5.176-2.279 6.791-3.234l4.712-2.273c-1.029.108-.698-.229-.924-.247-1.912-.156 1.826-.981-5.614.145l-11.971 1.94c-7.334.382-51.317 12.713-59.628 15.506l-14.829 5.061c-6.934 2.232-7.086 12.889.618 14.894l36.519 8.946c-1.655 1.37-3.304 2.729-4.803 4.261-.817.826-5.399 4.618-6.168 4.819-1.547.406-8.228 7.53-11.159 9.703-4.76 3.531-11.911 9.622-16.629 13.582-1.714 1.439-8.386 7.309-9.558 7.904-.349.177-.682.376-1.01.591-7.326-22.405-21.415-43.815-39.302-59.284-14.666-12.683-30.848-22.344-49.516-27.901-18.471-5.499-33.77-6.506-52.407-5.093-7.03.533-22.144 3.461-28.83 5.797-9.653 3.374-15.991 5.764-25.199 10.896-37.275 20.775-63.439 59.177-68.831 101.519-3.537 27.775.813 52.459 14.023 77.401 1.772 3.347 3.338 7.085 5.4 10.482 2.348 3.906 4.9 7.549 7.049 11.707.107.199.242.414.365.591 2.418 3.363 3.926 7.002 6.555 10.563 1.657 2.244 7.992 13.732 9.188 15.947-17.799 7.592-38.899 14.574-58.177 16.043-6.281.479-10.941.361-17.155-.849-10.97-2.135-18.373-9.137-18.531-20.771-.043-3.191-.382-8.051.543-10.982.048-.129.065-.301.075-.441.115-2.421 1.276-5.162 1.741-8.081.739-4.64 7.179-17.91 9.236-22.378 2.005-4.355 4.828-8.88 7.404-12.97.371-.591.704-1.284.924-1.891 1.784-4.867 5.107-8.845 5.566-10.735.424-1.747 1.9-3.125 1.961-3.664.118-.994.822-2.117 1.456-3.331-2.27 2.055-2.691 1.781-3.395 2.348-2.699 2.174-2.662 1.502-3.471 2.23-5.992 5.387-13.901 15.383-18.262 22.147-1.982 3.063-3.836 6.233-5.856 9.193-4.06 6.073-8.77 17.907-10.38 25.386-2.866 13.31-2.78 26.138 6.979 37.271 13.708 15.638 40.449 14.295 58.617 10.611 15.886-3.221 33.054-9.146 47.99-15.63 3.716 6.903 6.327 12.999 9.241 20.164.902 2.218 2.754 5.149 4.03 8.006 1.067 2.39 3.19 8.544 4.153 9.999.88 1.33 1.175 2.459 1.698 4.073l-5.153 3.245c-2.008 2.154-3.424 2.788-4.739 5.502l-2.036 3.911c-4.13 8.632-1.145 19.133 5.394 25.387 1.041.995 4.978 2.456 6.426 3.03-1.259.896-4.978 4.098-5.786 5.341-2.631 4.045-3.638 7.53-3.562 12.449.089 5.744 2.184 10.909 6.061 15.14 1.767 1.928 2.098 2.604 4.637 4.266 6.944 4.546 12.011 4.492 19.885 4.492-.313 1.832.064 2.723-.312 4.336-.57 2.445 1.804 9.185 3.176 11.562 5.35 9.27 10.967 15.255 21.013 19.922 5.927 2.754 10.223 3.093 16.355 3.901l6.222.027 5.749-.65 7.543-2.16c7.461-2.52 14.33-6.556 19.557-12.804.776-.927 2.627-2.88 2.998-3.879.168-.452.433-.059 1.01-1.295l1.633-2.654c2.941-4.979 4.018-8.937 3.605-14.367l-.5-3.922c5.74-.243 12.371.194 17.532-2.267 1.34-.639 3.186-1.455 4.212-2.531.588-.616.869-.087 3.444-3.046 4.805-5.521 7.377-13.168 4.884-20.191-1.104-3.112-2.711-5.646-5.104-7.801 7.856-3.382 13.716-10.955 14.904-19.45 1.57-11.223-4.243-21.512-14.34-26.246 1.199-3.389 7.433-21.852 9.22-23.861.971-1.091 2.547-5.538 3.186-7.157 1.251-3.173 3.645-8.686 5.179-11.455 2.418-4.282 4.685-8.693 7.167-12.986 1.73-3.01 14.745-26.07 16.29-27.95 2.415-2.938 4.048-6.717 5.915-10.165 4.7-8.678 7.991-15.257 11.691-24.817 6.676-17.25 9.272-31.996 8.849-50.091-.204-8.713-1.683-19.192-3.648-27.46 16.439-14.753 31.275-31.065 46.717-46.754 1.144-1.161 2.283-2.332 3.396-3.498.354 1.976.861 3.728 1.042 5.776l1.295 6.012c1.822 9.052 3.336 18.698 4.916 27.815 1.037 5.899 9.166 6.929 11.595 1.413l8.962-21.405 5.937-15.006c.136-.596.756-1.232 1.322-3.159l2.294-5.953c3.601-9.342 5.184-13.553 8.054-23.173 1.589-5.326 3.135-10.833 4.997-16.086.177-.502 1.661-4.38 1.078-3.755z" fill-rule="evenodd"/></svg>