<svg id="Layer_1" enable-background="new 0 0 72 72" height="512" viewBox="0 0 72 72" width="512" xmlns="http://www.w3.org/2000/svg"><g id="Creative_Idea"><g><path d="m5.4293976 23.5998192c-.3086758.5104256-.0003271 1.2207851.4145508 1.4384766l6.9424438 3.6428223.0881348 5.4990234c-1.8559571 1.4279785-3.9977417 2.5600585-6.2613526 3.3046874-.7454472-.1264763-1.2758617.5697556-1.0778198 1.2194824.0384378.1266136 2.5214844 8.3057175 2.4897461 8.2011719.1134644.3745117.4368896.6174316.8009033.6643066.627574.2844925.5379705-.0399818 7.2501831-1.5803223 1.6426678 1.4728432 2.9481277 2.4913292 4.632019 3.9912109l-2.5119019 6.5058594c-.6410351.542057-.292181 1.4580879.3703003 1.7138672.1002235.0384941 8.8166447 4.1832008 10.4282227 3.416748.0075684.0114746.0127563.0249023.0205078.036377-.3372059 1.0836945.0143356 2.2603455.8012695 2.8730431 1.1038284 1.5405807 2.197979 2.9175873 2.8237305 3.5371094.8257675 1.1221695 4.9377098 1.0089645 5.2880859-.1367188 1.0054016-1.0188522 2.0030823-2.4592361 2.9609375-3.4423828.7322159-.3554382 1.3364639-1.7403526.8657227-3.0439415.0307617-.050293.0525513-.1064453.0802002-.1586914.2035904.1537781.4441071.2294273.6990967.1938477 2.7998047-.3632813 5.5341797-1.3125 7.9067383-2.7451172.2308884-.1398354 2.62146-3.3530388 2.8130493-3.6164551-.0986481-.7891846-1.0890961-5.2258873-1.2451172-6.0029297.0081139-.0067368 1.8936653-1.5747223 2.2581177-1.8803711 5.8716393 2.167141 6.1353149 2.3063965 6.3902588 2.3063965.3911133 0 .7587891-.2402344.9023438-.6279297.0009155-.0024414.0003052-.005127.0012207-.0075684 2.1975708-2.9347878 3.7097931-6.380825 3.8696289-7.0705566.0630493-.1960449.0531006-.394043-.0048218-.578125.0092773-1.208252.1361084-2.5405273.1200562-3.722168-1.8850098-1.0493164-4.170166-2.630127-6.2263794-3.5864258.2780762-1.0927734.4208374-2.109375.4188232-3.0551758 4.2128792-1.3140259 6.7263794-2.9403152 6.3756714-2.7241211.4882813-.2099609.7133789-.7763672.503418-1.2646484-4.5042496-10.4498577-3.6883507-7.9821548-5.8840332-10.8696289-2.2456055.6035156-4.8036499 1.0615234-7.1419678 1.473877l-1.3428345-1.6958008c1.0641174-2.4878464 1.6377182-5.2887821 1.6616211-6.8186035.3811455-.5137196.1690941-1.1597276-.3137817-1.4169927-2.7861328-1.4853514-5.7578125-2.6357421-8.831543-3.4199218-.4718246-.1227379-.9586449-.0557423-1.2480469.3330078-1.4264526 1.9150391-2.6306152 3.9826665-3.6080322 6.1437993-2.1964722-.6591797-4.5134277-.9899902-6.8012085-.9650879l-2.7675171-5.9570313c-.238308-.5139992-.9264488-.7776005-1.4754028-.322998-7.9704666 3.1824958-7.6430359 2.8864825-7.9633789 3.2529294-.2521973.2419434-.3718262.6062012-.2648315.963623l1.765564 5.9086919-4.2640381 5.0385742-7.2280884-3.6640625c-.6045513-.3113031-1.4036207.094924-1.3846436.8789063-1.5850387 2.7151526-2.626638 5.4107589-4.0958252 7.8359374zm41.1876831 17.4902344c-1.8956604 3.84832-4.6435966 5.8830719-4.6774292 10.484375-.0062027.7000809.0020027 1.7837105-.6478882 2.1191406-.1174011.01688-1.1500053.2177505-3.039917.3640137.1611252-3.6245003.0789795-11.9238625.6213989-15.0114746 5.5105629-1.9371796 5.8422241-7.1943378 3.5473633-8.2744141-.3808594-.1767578-1.3950195-.4677734-2.5864258.7138672-1.515152 1.5018044-1.9462318 4.2751732-2.2871094 6.3916016-1.2949219.3232422-2.7270508.3984375-4.074707.1767578-.614193-2.7874985-2.3727627-7.4240665-5.1269531-6.3271484-2.6518288 1.06073-1.3333893 6.1788635 3.8574219 7.5849609.7360229 3.8676758 1.2401733 9.6806641 1.505188 14.8374023-1.4961548-.0617676-2.9188843-.2216797-4.0761108-.5129395-1.5126438-1.3772392-1.0922012-3.0853157-1.4442139-5.1896973-.5942421-3.5459442-3.1095123-5.9876213-4.5961914-8.9814453-2.1865234-4.3984375-1.8339844-10.1152344.8759766-14.2246094 9.3888435-14.24061 30.5199012-.4367065 22.1495971 15.8496095zm-15.8446045 22.2807617c-.0067749-.0053711-.0123291-.0119629-.0193481-.0170898-.370636-.2685776-.4970837-1.0016212-.1987305-1.4960938.1619205-.2672577.0958347-.7515678-.2626953-.9960938-.4183292-.5480003-.3397865-1.4094009.1264648-1.8320313.4154263-.3755035.2542896-1.093029-.0820313-1.3476563-.1967773-.1484375-.315918-.5107422-.2895508-.8818359.0456314-.6429749.441103-1.2620621.5009766-1.4462891 2.859375.46875 6.5410156.4003906 9.480957.0410156.222168.3945313.4272461.8154297.4770508 1.2431641.043457.3691406-.0605469.7392578-.2519531.8994141-.8376541.7021904.3662071 1.5422058.4233398 2.2587891.0234375.2998047-.0493164.6103516-.1933594.8496094-.3803787.2133217-.5007057.7071266-.2558594 1.0722656.2231369.3325157.2927246.8874397.0119629 1.324707-3.1109008 1.0852013-6.804077 1.2097131-9.467224.3281251zm3.0065308-23.7612305c1.168457.1289063 2.3691406.0761719 3.5048828-.1386719-.4257126 3.2105751-.3930283 11.7665939-.538208 14.6748047-.508667.0205078-1.0200195.0314941-1.5326538.0322266-.1476441-2.8903809-.5670166-9.6784668-1.434021-14.5683594zm5.3808593-2.2988281c.2944336-1.734375.7348633-3.7734375 1.7299805-4.7597656.2919922-.2900391.5664063-.4482422.765625-.4482422.8371086 0 1.3878136 3.380516-2.4956055 5.2080078zm-7.328125.305664c-.8930664-.34375-1.6918945-.8525391-2.3100586-1.5419922-.6321621-.7060509-1.5573921-2.5795822-.6186523-2.9550781 1.2399006-.4900207 2.5979786 3.1988983 2.9287109 4.4970703zm4.7597657 29.5292931c-.7954102.2724609-1.7050781.2919922-2.7133789.0556641-.1596069-.2432098-.4126625-.2961197-1.6323853-1.942627 2.0534592.3232269 4.099308.227005 6.1542358-.1818848-1.3782577 1.6978226-1.8065567 2.0664368-1.8084716 2.0688477zm-25.5983277-50.0605431 6.5339355 3.3120117c.0460205.0649414.0852051.1342773.1488647.1879883.4049244.3436394 1.0116463.2943802 1.3564453-.1123047l4.8818359-5.7685547c.1296635-.1534081.5168648-1.1282902.3994141-1.5205078l-1.5896606-5.3200688 6.2786255-2.4650879 2.3754272 5.1127934c-.0850487.6684551.4437218 1.0865726.9824829 1.0786133 4.6706352-.2357645 7.3173332 1.1103516 7.9262695 1.1103516.3650856 0 .9671555-.3699875 1.1269531-.7412109.8774414-2.0458984 1.9912109-3.9963384 3.2950439-5.8198247 2.522583.6748047 4.9651489 1.6130371 7.2852173 2.7883306-.171875 2.223877-.7211914 4.3864746-1.6344604 6.427002-.4622879 1.0323467 1.149086 2.5163097 3.6831055 5.8222656.2146988.2715473.5758705.436285 1.000061.324707.4805222.0428867 2.3865623-.739603 6.2578125-1.6098633 1.1801491 2.1013069 2.2574844 4.7217808 3.2011719 6.9516602-3.6131287 1.9648933-6.0207672 2.2072468-6.4845581 2.7121582-.0063477.0073242-.012085.0146484-.0181885.0222168-.2081909.2402344-.3066406.5678711-.2087402.8950195-.0569725.5954609.2674713 2.1707573-1.3598633 5.9345703-.2505226.5774155.1138306 1.2982101.8335571 1.3344727 2.1206055 1.2419434 4.1520996 2.6428223 6.0593872 4.1694336-.793335 1.9394531-1.817749 3.7797852-3.057373 5.4914551l-5.8272705-2.161377c-.3884964-.1450119-.8510361.0466957-1.0571289.2216797-1.6586304 1.4074097-3.4577942 2.8029137-5.1997681 4.4399414-.4537964.1533203-.7408447.6103516-.6415405 1.0913086.4419136 2.138073.7796402 4.0113411 1.2680664 6.4277344-3.4034309 1.8683395-6.129303 2.0428619-6.651001 2.1894531-.0526123-.512207-.2336426-1.0063477-.5233154-1.4072266.4494705-.7179871.5806007-1.7447548-.0361328-3.0429688 3.217205-.7979088-.3740463-2.7301636 5.697998-10.3803711 15.2724649-19.2433052-12.9691122-37.2141223-24.0803221-20.3666992-2.9946289 4.5400391-3.3833008 10.8574219-.9677734 15.71875 1.952076 3.9254646 4.2741051 5.349926 4.6083984 10.0029297.119257 1.6479187.4767609 4.0996094 2.0001831 4.7265625l.1380005.2705078c-.5102692 1.1020889-.6885853 2.2943573-.0043945 3.28125-.2565918.3920898-.413208.862793-.4550171 1.3461914-2.6439819-.5371094-5.9799805-1.7099609-8.4048462-2.9377441l2.6816406-6.9455566c.1914063-.4960938-.0551758-1.0537109-.5512695-1.2451172-.0698242-.0268555-.1409302-.026123-.211853-.036377-1.7355442-1.549324-3.1702766-2.6705399-4.7888794-4.1281738-.2035522-.3789063-.6328735-.5959473-1.0656738-.4916992l-6.5527954 1.6279297-1.9611207-6.459961c2.4794312-.8740234 4.8295898-2.1533203 6.829834-3.7783203.3245239-.2634277.423645-.6921387.2918091-1.0649414l-.0979614-6.112793c-.0042906-.2739048-.2638311-.8131638-.6083984-.9941406l-6.5526123-3.4382324c1.4231862-2.5393467 2.0793084-4.2428685 3.4503783-6.6701661z"/></g></g></svg>