<svg id="Layer_1" enable-background="new 0 0 70 70" height="512" viewBox="0 0 70 70" width="512" xmlns="http://www.w3.org/2000/svg"><g id="_x32_3"><path d="m42.9010887 46.3781395c6.429081-1.4405327 8.7604294-9.6205673 3.5234375-14.3417969-3.5596008-3.20784-9.5682831-2.2827644-12.2480469 1.9384766-3.9046726 6.1591186 1.6364365 13.9912567 8.7246094 12.4033203zm-7.4570312-11.5996094c2.1611671-3.409008 7.0832176-4.2339363 9.9765625-1.6279297 4.3322449 3.9046135 2.4085388 10.5868073-2.8476563 11.7646484-5.8088493 1.2936517-10.3171768-5.1126785-7.1289062-10.1367187z"/><path d="m43.8610497 50.6642723c6.7792969-1.5185547 11.0595703-8.2685547 9.5410156-15.0478516s-8.2675781-11.0654277-15.0478516-9.5410137c-6.7792988 1.5185547-11.0595722 8.2685528-9.5410175 15.0478497 1.5205402 6.7897873 8.2813015 11.0590134 15.0478535 9.5410156zm-5.178711-23.1259746c5.9605255-1.3325214 11.9158134 2.4226246 13.2568359 8.4062481 1.3369141 5.9716797-2.4345703 11.9189453-8.40625 13.2568359-5.9677734 1.3349609-11.9179707-2.4345703-13.2568378-8.40625-1.3369141-5.9716797 2.4345722-11.9189434 8.4062519-13.256834z"/><path d="m17.5856571 39.4093895-6.8554688 1.6533203c-.4161034.1019859-.6628695.5277748-.5449219.9365234.2498369.8675461.2390862 1.9360924.5351563 2.9658203.108345.3769493.48458.6007309.8603516.5302734 2.3574219-.4482422 4.7167969-.9951172 7.0146484-1.6259766.3515625-.0966797.5830078-.4316406.5488281-.7949219-.1103516-1.1611328-.2451172-1.9726563-.6757813-3.1865234-.1279296-.3603514-.5078124-.564453-.8828124-.4785155zm-5.5693359 4.4726562c-.0814133-.486393-.1220102-.9723053-.2177734-1.5332031l5.4658203-1.3183594c.1621094.5449219.2509766 1.0107422.3183594 1.5585938-1.8300782.4882812-3.6972657.921875-5.5664063 1.2929687z"/><path d="m34.1891747 20.2638836 4.4560547-1.1640625c.4003906-.1044922.640625-.5146484.5361328-.9150391-.1044922-.4013672-.5166016-.6396484-.9150391-.5361328l-4.4560547 1.1640625c-.4003906.1044922-.640625.5146484-.5361328.9150391.1052551.40349.5172768.6401615.9150391.5361328z"/><path d="m8.6766605 58.9885521c.2390137 1.1459961.2410278 2.449585 1.1624756 3.2897339 1.5643311 1.4263916 4.1166382.3815308 5.8878784-.072937 2.6748066-.6863022 44.4076385-10.1419029 47.907959-11.0634155 4.6641121-1.2275505 3.0963402-4.2901726 2.063961-8.3643799-1.632515-7.2886086-2.6555786-10.2302933-4.8193321-20.5361309-.281414-1.3292179-.3627625-2.9399681-1.5507813-4.0517578-1.8530579-1.7385826-4.205677-.5898018-6.7275391-.078125-2.0479736.4868164-4.1069336.9709473-6.1661377 1.4544067l-3.1619873-4.3772593c-.3574219-.5634766-1.1152344-1.5322266-2.1845703-1.6826172-1.116703-.1595287-4.6896935 1.1624851-8.2685547 1.8466797l-.1240234.0234375c-3.9435444.7441454-3.6364422 2.325778-5.7069721 8.7001963-.2945347.0677471-8.4916496 1.9531727-8.7557373 2.013916-.0265579-.1018486-.8335018-3.1963348-.7833862-3.0041504-.087822-.414608-.5001965-.6734219-.9111328-.5732422-8.2374678 2.0499382-7.9105549 1.8472843-8.1957397 2.0948486-.081543.0005493-.1655273.0252686-.2334595.0709839-.3139644.2114258-.3343501.6598511-.3025508 1.0369873.0562744.6687012.1729736 1.3322144.348083 1.9799805-.4738135.3983765-1.0809912.6139527-1.6981177.6235962-.4788818.0075073-.9384766.1873779-1.3861084.3739014-1.6645586.6937008-2.6243317 2.0238018-2.0734253 3.9215679.0136757 1.0566406 2.1566486 9.4857559 5.6791987 26.3737793zm9.6111451-.1484985c-3.1938324.7434692-5.383975 1.859642-6.2744141.6582031-.6399555-.864994-.4024906-1.2357445-4.6593013-20.1305542 3.3620601-.475708 6.5376582-1.3493652 9.3438721-2.1243286 1.0332642-.2855225 2.1623535-.7661133 2.9064941-2.0791016l4.9759521 22.2200317c-6.9226746 1.5918808-4.005978.9257393-6.2926029 1.4557496zm-.3220826-31.1494122c-.0023499.3249645-.1008339-.398962.9821167 4.5413189-.4214325 1.4327469-.2088871 2.8898697-2.649292 3.5661011-2.7952271.7719116-5.9631958 1.6464844-9.2735596 2.104187-.4482422-1.9832764-.894043-4.0140991-1.1883545-6.0026226-.0878906-.5898438.0136719-1.3056641.4384766-1.5722656.6728897-.4240131 3.1349044-.6684761 4.3564448-.9501953zm19.4041157-11.8876963c1.7150726-.4564304 3.2097015-.8541107 3.5078125-.8115234.6992188.097229 1.1162224 1.1026659 3.9761963 4.9471445-5.0372314 1.1795044-10.0878906 2.3475342-15.0882587 3.4991455 1.5358772-5.47892 1.1037655-5.7320957 1.6940918-6.1162109.7168178-.4651528.8492069-.1794167 5.9101581-1.5185557zm18.2373047 3.1347666c1.3339844-.3183594 2.0908203-.2207031 2.6962891.3466797 1.0290108.963089.1894264.4980793 4.0800781 16.1210918.6269531 2.5205078 1.2753906 5.1269531 1.8564415 7.7197266.3280029 1.2921104 1.541893 4.3934212.4042969 5.1875-1.0519333.7360611 1.0894775-.2840691-38.6028442 8.7350464-7.5844822-33.8714828-6.5689678-29.4224663-6.6680908-29.6807842 19.8309516-4.61022-7.410245 1.7934265 36.2338294-8.4292603zm-39.4345722 5.2089844.5979614 2.2800903c-1.6473331.3780823-5.504652 1.2686615-6.545166 1.5020752.0231018-.4268532-.3086882-1.7513924-.4434204-2.2216187z"/><path d="m38.5631981 41.1886864c.3496094-.2216797.453125-.6855469.2304688-1.0351563-.6044922-.9521484-.6611328-2.2646484-.140625-3.265625.1914063-.3681641.0488281-.8203125-.3183594-1.0117188-.3710938-.1904297-.8203125-.0488281-1.0117188.3183594-.7714844 1.4833984-.6914063 3.3525391.2050781 4.7636719.218216.3437691.6788979.4559136 1.0351563.2304688z"/><path d="m63.4938622 14.9582186 3.1425743-1.0048828c.3945313-.1269531.6123047-.5488281.4863281-.9433594-.1269531-.3935547-.546875-.609375-.9433594-.4863281l-3.1425743 1.0048828c-.9270744.298316-.5118637 1.727808.4570313 1.4296875z"/><path d="m59.7907372 12.1320467c.3587265.2192221.8175468.1028099 1.0322266-.2451172l1.5029297-2.4375c.2167969-.3525391.1074219-.8144531-.2451172-1.0322266-.3554688-.2167969-.8154297-.1064453-1.0322266.2451172l-1.5029297 2.4375c-.2167969.3525391-.1074219.8144532.2451172 1.0322266z"/><path d="m56.5934715 7.0070467c-.4101563.0576172-.6962891.4365234-.6376953.8466797l.3320313 2.3447266c.0604782.4300814.4675217.7008886.8466797.6376953.4101563-.0576172.6962891-.4365234.6376953-.8466797l-.3320313-2.3447266c-.0576172-.4101562-.4433594-.7021484-.8466797-.6376953z"/><circle cx="9.638" cy="33.273" r="1.737"/><path d="m13.8886356 33.8209496c.7180786 0 1.3001709-.5821533 1.3001709-1.3002319 0-.7180767-.5820923-1.300169-1.3001709-1.300169s-1.3002319.5820923-1.3002319 1.300169c0 .7180785.5821533 1.3002319 1.3002319 1.3002319z"/></g></svg>