<svg id="Layer_1" enable-background="new 0 0 500 500" viewBox="0 0 500 500" xmlns="http://www.w3.org/2000/svg"><path d="m451.398 355.375-.253-.178-23.939-16.844c-2.15-1.52-4.308-3.045-6.454-4.563-5.952-4.119-11.907-8.229-17.899-12.192-5.635-3.732-11.286-7.475-16.915-11.203-4.617-3.009-9.214-6.004-13.82-9.005-2.217-1.444-4.434-2.889-6.642-4.327-.607-4.491-1.244-8.96-1.989-13.375-1.184-7.025-2.453-14.106-4.19-21.076-1.17-4.654-2.578-9.288-4.429-13.49l1.132-.738c.765-.482 1.453-1.06 2.14-1.645l.514-.44.381-.341.695-.632c.218-.198.399-.433.606-.643.813-.824 1.643-1.631 2.441-2.471.456-.479.851-1.016 1.292-1.509.443-.494.869-1.007 1.375-1.437.841-.714 1.347-1.755 2.301-2.363.563-.358.954-.913 1.424-1.378l.637-.629c.212-.21.402-.389.726-.744.567-.639 1.184-1.235 1.677-1.938.575-.775 1.154-1.548 1.617-2.397.24-.419.491-.832.706-1.262l.593-1.318c.268-.574.446-1.182.619-1.788.175-.606.357-1.206.481-1.82.558-2.073.757-4.214.77-6.345-.065-3.614-.944-7.218-2.592-10.458-.291-.614-.753-1.134-1.052-1.739-.289-.603-.669-1.149-1.049-1.697-.191-.272-.389-.541-.591-.806-.212-.256-.445-.494-.676-.733-.219-.229-.436-.456-.654-.683-.119-.139-.247-.274-.384-.402-1.484-1.391-3.035-2.81-4.957-3.589-.957-.454-1.957-.818-2.967-1.094-.244-.064-.474-.18-.717-.255-.559-.158-1.076-.466-1.671-.492-1.014.011-1.987.157-2.936-.084-.045-.014-.1-.007-.149.011-.478.183-.928.052-1.39.022-.418-.018-.829.014-1.229.218-.22.113-.468.124-.704.144-.285.038-.573.047-.86.074-.181.019-.359.045-.54.066.003-.032.008-.065.011-.097.018-.733.055-1.466.002-2.195-.071-.729-.106-1.458-.228-2.177-.096-.564-.156-1.136-.27-1.696-.291-1.028-.58-2.049-1-3.026-.384-1.071-.898-2.091-1.42-3.098-.489-.758-.901-1.57-1.503-2.242-.326-.381-.603-.798-.903-1.199-.315-.386-.675-.737-1.1-1.015-.106-.068-.204-.165-.253-.282-.199-.513-.654-.778-1.084-1.058-.259-.163-.487-.368-.721-.563-.703-.539-1.43-1.057-2.183-1.519-.786-.411-1.542-.876-2.372-1.183l-1.224-.494-1.258-.386c-.451-.139-.896-.306-1.366-.366-1.277-.228-2.575-.307-3.842-.153-.597.096-1.185.175-1.763.289-.036.009-.071.02-.107.029.114-.809.195-1.621.204-2.438.074-1.02-.038-2.04-.086-3.057-.061-.506-.138-1.011-.214-1.516-.068-.506-.162-1.007-.295-1.501-.189-.742-.44-1.463-.669-2.187-.381-1.448-.954-2.857-1.738-4.143-1.107-1.884-2.41-3.656-3.959-5.183l-.236-.235c-.242-.236-.515-.448-.818-.63l.088.072c-.226-.176-.453-.351-.686-.516-.485-.346-1.01-.644-1.512-.961-.254-.15-.51-.3-.767-.452-.269-.128-.541-.25-.816-.363-.265-.109-.494-.294-.75-.426-.573-.319-1.144-.663-1.794-.815-.274-.059-.55-.104-.824-.147-.283-.028-.565-.055-.833-.081-.551-.058-1.075-.183-1.592-.391-.05-.019-.112-.02-.168-.009-.555.112-1.051-.061-1.562-.173-.462-.099-.932-.093-1.401.057-.259.086-.539.069-.806.062-.333-.008-.648-.016-.974-.024-.5.005-.999 0-1.495.041-.496.049-.991.094-1.486.116-.568.008-1.118.167-1.659.304-.27.076-.537.155-.8.25-.065.027-.127.058-.191.086-.011-.397-.028-.792-.074-1.185-.17-1.99-.676-3.919-1.482-5.628-.715-1.57-1.64-3-2.65-4.281-.738-.901-1.56-1.735-2.575-2.243-.124-.057-.269-.166-.413.025-.02.336.367.528.195.902-.158.036-.311.07-.463.105-.083-.016-.177-.06-.256-.026-.175.076-.116.189-.091.302.012.047.005.101.008.157-.218-.198-.49-.341-.728-.504-.128-.082-.247-.178-.382-.251-.068-.036-.14-.067-.219-.087-.04-.01-.081-.017-.124-.021l-.067-.003h-.035l-.018.001h-.009-.005-.002-.001l-.289-.343.044.058.244.285v.001.002.003l-.001.007-.001.013-.003.026-.007.049c-.004.031-.009.059-.013.085-.008.052-.011.094-.004.131.086.428.18.834.248 1.232.06.496.154.942.389 1.322.285.617.569 1.201.969 1.754.072.09.107.206.145.314.155.41.2.86.316 1.276.054.176.063.362-.128.551-.24.234-.208.453-.127.663.125.276.176.569.27.857.087.29.179.583.199.885.034.256.07.519.104.776.007.26-.029.519-.107.764-.296.935-.538 1.842-.901 2.697-.438.825-.798 1.66-1.335 2.391-.205.287-.287.667-.583.884-.229.182-.405.397-.597.6l-.604.584c-.095.089-.18.134-.376.186-.751.153-1.242.628-1.681 1.191-.203.261-.431.505-.673.731-.355.331-.751.619-1.098.958l-3.905 3.849-4.235 4.027-2.241 2.152c-.618.586-1.275 1.132-1.867 1.745-.528.547-1.084 1.064-1.621 1.601-1.85 1.851-3.813 3.588-5.628 5.475-.253.263-.508.524-.774.773l-2.607 2.425c-.885.835-1.728 1.71-2.662 2.501-1.441 1.218-2.792 2.541-4.17 3.83l-1.678 1.588c-.373.265-.675.616-1.079.825-1.031.678-2.188 1.11-3.373 1.343-1.152.229-2.344.258-3.49.08-.266-.061-.541-.057-.813-.09-1.055-.204-2.046-.611-2.966-1.124-.131-.074-.272-.134-.407-.203-.126-.084-.255-.163-.387-.24l-.403-.226-.362-.29-.402-.307-.002-.001c-.297-.339-.681-.621-.883-1.033-.539-.846-1.375-1.608-1.455-2.708-.054-.623-.299-1.207-.372-1.835-.126-1.127-.047-2.277.206-3.373.287-1.237.815-2.393 1.529-3.427.213-.357.481-.676.737-1.013l.094-.128.047-.065.092-.101.372-.403.754-.794 5.282-5.317 8.943-9.019c.556-.562 1.046-1.195 1.633-1.722 1.155-1.039 2.283-2.101 3.339-3.242 2.026-2.19 4.3-4.138 6.192-6.461.787-.966 1.638-1.88 2.391-2.877.182-.24.431-.427.635-.651.467-.515 1.039-.93 1.426-1.522.307-.498.63-1.021.938-1.518.163-.249.335-.49.525-.716.095-.113.195-.223.301-.328l.163-.154c.051-.043.085-.061.13-.09.033-.02.055-.059.066-.101.115-.403.407-.676.722-.887.284-.198.499-.465.669-.822.096-.195.274-.323.437-.454.099-.08.204-.151.31-.222l.341-.168c.346-.179.675-.406 1.048-.539.362-.156.725-.326 1.119-.392.222-.05.438-.113.653-.189.221-.048.44-.104.659-.172.435-.161.883-.252 1.342-.396.326-.119.664-.134 1.004-.172.171-.012.342-.027.512-.02.168.02.335.048.5.085.693.126 1.384.217 2.063.4.183.062.412.038.627-.032.475-.171.925-.171 1.384-.132.468.022.89.191 1.31.383.337.139.663.263 1.063.161.378-.102.658 0 .93.182.131.086.249.211.382.163.489-.186.86.01 1.332.15-.178-.587-.162-.575-.085-1.448.006-.094.023-.197.002-.286-.123-.563-.348-1.063-.21-1.704.018-.086-.033-.197-.079-.283-.313-.635-.68-1.226-1.154-1.775-.345-.419-.756-.755-1.175-1.105-.418-.355-.856-.695-1.323-.986-.388-.253-.786-.517-1.2-.745-.418-.217-.836-.434-1.267-.658-.636-.357-1.327-.565-2.029-.807-.705-.218-1.438-.329-2.18-.463-.817-.083-1.65-.16-2.484-.202-.83-.003-1.682-.099-2.529-.108-.51-.021-1.044-.004-1.564.075-.943.165-1.883.407-2.808.715-.129-.364-.238-.747-.219-1.243.007-.191-.015-.361-.066-.501-.362-.986-.806-1.895-1.427-2.636-.055-.065-.101-.139-.151-.208-.401-.555-.777-1.135-1.211-1.657-.394-.473-.853-.883-1.283-1.321-.037-.038-.081-.07-.099-.125-.157-.452-.496-.729-.781-1.056-.236-.272-.5-.515-.733-.79-.145-.168-.237-.389-.383-.556-.485-.536-.967-1.068-1.45-1.602-.342-.376-.664-.772-1.032-1.121l-1.11-1.022-1.211-1.085c-.616-.524-1.19-1.098-1.848-1.568-.648-.438-1.295-.875-1.961-1.272-.688-.367-1.379-.722-2.07-1.065-.055-.02-.114-.04-.169-.061-.597-.216-1.197-.416-1.792-.613-.594-.199-1.212-.321-1.808-.495-.948-.295-1.924-.465-2.881-.709-.339-.081-.707.005-1.049-.036-.72-.069-1.432-.2-2.155-.198-.576-.011-1.155-.078-1.727.016-.488.097-.964.195-1.458.109-.157-.026-.313.025-.467.058-.516.117-1.015.331-1.523.44-.694.138-1.405.221-2.041.591-.1.058-.216.065-.325.094-.284.081-.574.137-.852.238-1.578.529-3.114 1.185-4.55 2.023l-1.286.77c-.423.265-.813.579-1.208.883-.305.247-.613.493-.892.769-.271.283-.543.568-.813.849-.213.22-.455.41-.661.636-.325.379-.533.717-.82 1.062-.296.362-.617.701-.923 1.053-.243.28-.501.546-.712.856-.235.347-.652.516-.755.992-.013.059-.049.104-.114.109-.278.021-.365.228-.452.44-.052.126-.142.216-.226.312-.243.28-.498.548-.735.834-.467.576-.936 1.156-1.404 1.734-.126.156-.28.285-.391.456-.307.469-.608.943-.806 1.515-.186.537-.393 1.057-.568 1.605-.143.447-.255.923-.375 1.391-.171.667-.377 1.305-.492 2.021-.006.038-.017.071-.023.108-1.098-.573-2.245-1.055-3.432-1.406-3.048-.948-6.396-1.206-9.661-.58-3.258.606-6.468 1.99-9.138 4.133-2.917 2.35-5.324 5.464-6.69 9.009-.746 1.75-1.155 3.61-1.453 5.473-.083.938-.222 1.879-.198 2.821v.078c-1.976-.187-3.982-.131-5.955.173-3.687.577-7.249 2.131-10.267 4.408-3.027 2.259-5.437 5.341-7.022 8.803-.348.697-.606 1.428-.864 2.16-.281.725-.461 1.476-.649 2.228-.44 1.773-.64 3.593-.638 5.416-4.101-.079-8.227.891-11.866 2.872-5.057 2.714-8.972 7.347-10.943 12.713-.159.464-.32.933-.48 1.4-.126.476-.251.95-.375 1.417-.464 1.726-.689 3.508-.717 5.299-.413-.002-.827.007-1.24.026-4.141.154-8.258 1.406-11.821 3.63-2.884 1.822-5.351 4.238-7.238 7.086-1.88 2.85-3.132 6.101-3.673 9.448-.545 3.348-.39 6.801.462 10.095.847 3.293 2.407 6.428 4.548 9.095l8.127 9.126c-.29.088-.579.175-.866.272-3.283 1.097-6.351 2.841-9.042 5.013-2.692 2.17-4.959 4.841-6.748 7.804-5.271 8.607-5.576 19.78-.997 28.71.248.55.589 1.052.886 1.577.317.514.602 1.048.954 1.537l1.072 1.457.546.721.602.672 1.218 1.331c.224.247.357.364.527.535l.489.481 1.954 1.921c1.585 1.566 3.187 3.121 4.792 4.673-.606.579-1.193 1.178-1.73 1.829-.172.209-.387.397-.591.582l-2.344 2.109c-.332.301-.654.591-1.051.657-.49.081-.909.466-1.289.879-1.015 1.1-1.997 2.225-3.028 3.31-.875.921-1.744 1.909-2.718 2.674-1.867 1.467-3.586 3.12-5.376 4.682-1.79 1.564-3.526 3.207-5.273 4.831-.687.639-1.3 1.383-2.012 1.966-1.16.95-2.219 2.006-3.314 3.025-.235.218-.519.436-.78.557-1.126.518-2.021 1.386-2.877 2.356-.397.449-.822.886-1.26 1.302-.642.61-1.323 1.175-1.956 1.793l-7.142 7-7.682 7.383-4.074 3.936c-1.121 1.075-2.279 2.11-3.373 3.211-.99.972-1.978 1.941-2.965 2.91-3.288 3.249-6.68 6.389-9.942 9.664l-.089.089c-.118.119-.232.244-.342.375-2.259 2.675-1.921 6.674.754 8.933l.346.292c.508.429 1.016.86 1.511 1.302l4.835 4.33c1.659 1.474 3.352 2.901 4.971 4.429 2.497 2.356 5.097 4.62 7.662 6.911l6.35 5.63 8.642 7.799 8.449 7.536c.664.589 1.361 1.14 2.037 1.719l7.954 6.818c1.521 1.288 3.095 2.509 4.629 3.782 1.538 1.276 3.097 2.537 4.574 3.879 2.456 2.232 5.202 4.096 7.568 6.456 1.395 1.391 2.999 2.619 4.507 3.922l8.18 7.063 4.963 4.26.066.058c.256.217.53.418.823.602 3.362 2.116 7.803 1.106 9.919-2.256l2.995-4.758c1.387-2.273 2.775-4.549 4.161-6.82l7.319-11.542 12.395-19.567c.771-1.219 1.462-2.493 2.27-3.683 1.588-2.342 3.145-4.7 4.616-7.121 1.853-3.052 3.833-6.028 5.729-9.056 1.47.059 2.938.096 4.398.076.575-.024 1.163.038 1.744.041 1.333.009 2.67.166 3.993.001 1.109-.13 2.207-.283 3.309-.434 1.101-.158 2.211-.27 3.361-.243.11.003.234-.016.339-.044 1.034-.291 2.131-.322 3.214-.394.984-.064 1.932-.183 2.841-.499.502-.169 1.092-.245 1.65-.325.677-.104 1.368-.14 2.047-.246 2.09-.317 4.183-.635 6.27-.952 2.394-.318 4.691-.921 6.979-1.564 1.615-.501 3.292-.911 4.946-1.252 1.743-.337 3.43-.811 5.131-1.272.471-.123.958-.348 1.348-.586 1.688-1.052 3.565-1.853 5.548-2.544.061-.022.119-.046.18-.068l1.63.358c2.407.497 4.83.919 7.247 1.44 1.544.272 3.146.453 4.717.659 2.628.392 5.283.521 7.921.771 2.642.219 5.293.266 7.939.427 7.224.196 14.474.152 21.621-.606 1.134-.093 2.289-.231 3.435-.339l1.393-.146.364.51 28.729 40.252 17.261 24.209 2.646 3.682.059.083c.138.19.29.373.456.549 2.14 2.274 5.719 2.383 7.993.243l13.767-12.957c2.246-2.093 4.498-4.19 6.742-6.281l12.447-11.78c4.483-4.198 8.968-8.397 13.454-12.598 3.559-3.335 7.139-6.661 10.659-10.021 3.928-3.75 8.058-7.339 11.838-11.203.467-.478 1.021-1 1.525-1.41 2.163-1.757 4.124-3.691 6.106-5.648 1.178-1.163 2.416-2.311 3.639-3.457l10.461-9.789.061-.056c.229-.217.44-.46.629-.728 1.538-2.186 1.015-5.207-1.17-6.747zm-80.533-153.551-.002-.003zm-16.185 49.349c-.237-.284-.486-.552-.728-.819-.101-.178-.213-.406-.312-.578l.712-.377c.192.669.353 1.31.328 1.774zm-1.293-1.275c.034.175.09.386.141.585.056.218.083.413.127.64-.155-.382-.303-.758-.453-1.136.061-.031.124-.057.185-.089zm1.53-42.423c.088.019.175.049.262.072l.991.427c.307.19.631.317.932.49.265.172.559.277.83.431.26.17.544.3.801.476.042.033.09.061.117.113.114.218.263.376.429.513l.463.458c.094.096.192.186.294.274l-.134-.163.135.164.426.52c.149.165.209.395.315.584.093.15.189.295.29.438.095.146.157.313.243.464.077.156.173.301.245.46l.191.486c.108.22.173.458.229.698.059.238.164.46.206.705.303.923.444 1.914.442 2.906l-.001.424c-.012.14-.042.279-.058.419-.038.279-.052.564-.123.836-.175 1.07-.476 2.142-1.017 3.106l-.045.122c-.243.377-.393.833-.689 1.196-.148.204-.229.362-.429.615l-.778.88c-.839.928-1.719 1.817-2.605 2.7-.312.31-.538.708-.839 1.03-.629.673-1.286 1.32-1.925 1.983-.511.531-1.052 1.034-1.505 1.618-.387.499-.773.992-1.294 1.356-.165.116-.279.291-.405.449-.42.533-.809 1.096-1.258 1.601-.139.155-.342.379-.442.464l-.325.302c-.213.206-.396.447-.588.684-.057.081-.148.121-.223.179-.2.15-.39.318-.614.431-1.181.768-2.524 1.307-3.937 1.565-.427.063-.852.148-1.287.144-.216.006-.432.035-.648.035-.216-.011-.433-.018-.65-.018-.344.021-.683-.029-1.028-.04-.349.004-.687-.06-1.029-.117-.271-.037-.529-.123-.788-.203-.245-.063-.498-.107-.749-.163l-.726-.246c-.269-.077-.506-.217-.749-.346-.236-.14-.506-.231-.725-.401-.357-.256-.751-.464-1.106-.735-.225-.148-.404-.35-.609-.522-.153-.173-.324-.324-.571-.413-.066-.024-.119-.072-.127-.144-.048-.298-.251-.448-.471-.605-.132-.092-.225-.218-.325-.337-.302-.342-.491-.757-.774-1.119-.222-.395-.463-.788-.672-1.2-.164-.429-.419-.832-.533-1.286-.078-.24-.122-.489-.227-.725-.114-.331-.21-.671-.345-1.01-.137-.339-.211-.69-.374-1.044-.161-.335-.237-.679-.344-1.033-.01-.033-.018-.066-.029-.099.027-.027.055-.052.081-.078l.232-.24c.236-.235.336-.366.478-.53l.406-.476.812-.954c.543-.634 1.089-1.265 1.651-1.881.897-.986 1.834-1.932 2.778-2.872.332-.331.578-.749.899-1.091l2.051-2.109c.544-.565 1.119-1.102 1.607-1.72.416-.528.829-1.049 1.38-1.442.174-.125.298-.309.433-.477.451-.564.871-1.157 1.35-1.693.654-.732 1.403-1.371 1.951-2.204.086-.132.213-.23.323-.342l.436-.444.557-.614c.933-1.02 1.764-2.133 2.493-3.31.011.001.022.002.034.003.298.038.58.054.854.057.296-.012.604.035.904.095.302.074.591.129.891.345.177.119.348.201.512.24 1.146.301 2.172.609 3.166.888zm-38.163-14.427 2.875-2.851 1.606-1.616.798-.813.397-.409.198-.205.229-.247c.476-.531.93-1.083 1.372-1.637.419-.575.805-1.176 1.215-1.755.346-.53.673-1.072.983-1.623.041.002.082-.003.124.005.648.085 1.255.074 1.858.124.607.126 1.195.123 1.776.253.227.04.474-.064.685.07.341.207.706.205 1.044.349.072.029.146.092.186.204.166.492.442.518.742.556.141.008.278.044.405.1.185.088.358.2.53.306.683.327 1.359.669 1.952 1.137.313.253.635.49.898.802l.422.427.371.473c.286.314.516.667.739 1.022.21.275.277.635.474.913.187.245.266.547.398.82.429.962.595 2.011.747 3.045.025.144.071.287.053.435-.024.48-.031.953-.117 1.421-.023.482-.127.956-.269 1.415-.184.337-.283.687-.424 1.022-.174.321-.255.678-.458.979-.162.248-.262.524-.434.762-.173.236-.321.485-.499.713-.296.277-.506.61-.833.85l-1.148 1.015c-.991.896-1.979 1.791-2.967 2.684-.231.212-.427.46-.647.683-.867.878-1.75 1.738-2.601 2.63-.486.51-.912 1.077-1.383 1.6-.473.525-.93 1.068-1.466 1.528-.892.765-1.447 1.855-2.452 2.515-.593.389-1.014.974-1.514 1.469l-2.71 2.686-.757.761-.479.432c-.278.304-.628.511-.934.78-.437.296-.831.694-1.33.913-.4.242-.863.346-1.295.521-.46.093-.906.244-1.379.284-.787.149-1.594.121-2.394.085-.788-.114-1.592-.216-2.333-.51-.289-.074-.598-.109-.848-.28-.124-.079-.249-.155-.376-.225l-.355-.255c-.24-.161-.503-.283-.741-.451-.502-.258-.889-.679-1.308-1.053-.18-.218-.369-.424-.582-.613-.211-.191-.38-.413-.622-.589-.209-.144-.354-.334-.515-.517-.152-.189-.36-.349-.523-.541-.084-.09-.095-.22-.158-.322-.151-.235-.171-.521-.379-.738-.186-.178-.432-.344-.625-.539-.168-.202-.298-.429-.296-.691 0-.025-.021-.049-.051-.066-.314-.174-.268-.443-.317-.684-.032-.223-.138-.426-.368-.626-.126-.111-.152-.251-.186-.384-.043-.161-.043-.327-.07-.491-.041-.253-.037-.508-.063-.765-.015-.256-.045-.517.013-.768.036-.208.039-.419.029-.632.753-.662 1.507-1.325 2.259-1.985 1.048-.954 2.094-1.905 3.139-2.857.245-.225.454-.487.688-.724.92-.93 1.856-1.844 2.76-2.79.516-.539.972-1.138 1.474-1.691.504-.555.991-1.129 1.558-1.619.942-.815 1.548-1.956 2.604-2.666.622-.42 1.075-1.036 1.605-1.561zm-41.594-8.212c.459-.487.95-.946 1.404-1.437.839-.921 1.68-1.846 2.518-2.767l2.777-2.908c.733-.771 1.483-1.528 2.183-2.329.781-.893 1.749-1.612 2.395-2.632.08-.126.193-.248.323-.318.557-.301.922-.785 1.289-1.277.218-.292.479-.552.73-.817l2.208-2.306 4.349-4.678c.391-.421.811-.817 1.187-1.251l.388-.449.193-.225.233-.286c.315-.391.624-.784.925-1.181.31-.387.543-.838.803-1.258.142-.245.281-.49.411-.739.441.013.868.019 1.283.067.349.052.694.118 1.013.137.161.013.318.018.472.021.159.016.317.032.472.048.67.018 1.348.14 1.97.513.188.135.373.234.553.287 1.267.383 2.381.844 3.467 1.241.094.039.182.097.274.142l.54.276c.179.09.336.225.506.327.346.194.648.454.967.675.572.409 1.134.829 1.652 1.317.035.031.074.058.103.094l1.057.866-1.057-.867.018.042c.167.526.558.827.795 1.26.244.321.429.679.616 1.032.132.211.11.497.212.716.177.355.236.759.374 1.129.073.391.182.774.22 1.17.012.282.069.557.063.838-.013.281.009.559.018.839.033 1.107-.126 2.226-.474 3.276-.196.6-.494 1.154-.792 1.707-.297.528-.63 1.043-1.029 1.52-.104.183-.593.683-.93 1.056l-1.1 1.194-.163.19c-1.161 1.337-2.297 2.697-3.491 4.002-.954 1.043-1.948 2.047-2.949 3.044-.353.351-.618.789-.96 1.152l-2.178 2.237c-.578.598-1.187 1.17-1.708 1.821-.445.556-.887 1.106-1.466 1.528-.183.135-.317.328-.46.505-.482.595-.933 1.219-1.443 1.786-.696.774-1.487 1.455-2.078 2.331-.093.139-.227.243-.343.362l-.918.931-1.289 1.316-.322.329-.161.164-.114.102-.443.409c-.588.551-1.256.997-1.947 1.406-.857.441-1.753.825-2.705 1.047-.366.127-.746.192-1.126.279-.377.114-.769.124-1.158.182-.308.058-.616-.017-.925.005l-.434.027-.433-.018c-.287-.022-.589.011-.872-.054l-.925-.171c-.297-.097-.596-.189-.901-.272-.245-.059-.46-.188-.696-.271-.228-.099-.478-.158-.701-.271-.258-.11-.488-.273-.731-.411-.235-.153-.459-.314-.769-.37-.076-.015-.145-.056-.174-.129-.132-.299-.365-.456-.65-.576-.164-.077-.297-.195-.437-.304-.338-.383-.745-.714-1.056-1.123l-.505-.588c-.163-.202-.293-.425-.447-.635-.328-.41-.537-.89-.809-1.343-.134-.251-.189-.535-.33-.786-.205-.344-.335-.718-.507-1.086-.192-.364-.325-.747-.515-1.13-.198-.359-.323-.738-.458-1.126l-.21-.589-.159-.605c-.136-.42-.233-.853-.324-1.294l2.315-2.336c1.184-1.225 2.327-2.492 3.496-3.732zm-50.401-55.251c.508-.128.852-.427 1.275-.643.423-.217.781-.503 1.153-.773.146-.106.206-.305.39-.368.3-.103.496-.31.729-.479.05-.036.129-.053.235-.02.456.142.632-.018.744-.254.052-.11.125-.2.215-.273.132-.107.304-.172.427-.287.465-.434.905-.892 1.376-1.32.501-.456 1.028-.887 1.54-1.332.27-.24.537-.478.808-.719.226-.193.49-.347.689-.566.177-.196.383-.364.57-.55.321-.322.671-.615 1.016-.913l.51-.454c.117-.091.226-.184.326-.29.055-.059.112-.117.18-.162.218-.151.44-.292.681-.401.236-.125.434-.303.699-.38.445-.054.778-.269 1.165-.387.325-.078.617-.22.937-.288.457-.047.885-.144 1.338-.132.215-.009.425-.031.634-.049.215.009.426.012.635.009.098-.001.19-.055.287-.074.386-.013.771-.042 1.157-.063.22-.001.445-.091.673-.121.229-.048.458-.036.674.039.177.075.375.013.57 0 .191-.002.384.013.537.174.18.185.429.122.636.216.38.137.761.269 1.115.46.427.159.798.415 1.212.607.275.12.556.244.821.395.23.124.42.306.611.483l.293.259.15.127.222.216 3.16 3.083c.197.191.463.315.628.538.323.439.671.853 1.095 1.192.815.651 1.385 1.547 2.333 2.064.394.215.732.491 1.159.673.103.044.147.151.232.215.195.147.287.397.56.465.457.114 1.041.09 1.244.481.009.019.036.025.067.021.308-.038.415.142.56.279.132.123.294.21.572.175.153-.019.246.043.34.096.114.065.198.161.299.239.054.042.11.081.166.121-1.249 1.108-2.508 2.208-3.725 3.35-1.287 1.208-2.512 2.483-3.765 3.727-.108.107-.212.222-.335.31-1.024.73-1.878 1.645-2.781 2.506l-2.219 2.163c-.463.439-.977.824-1.437 1.264l-4.466 4.314c-.25.242-.502.482-.753.723-1.278-1.276-2.472-2.517-2.961-3.487-.079-.157-.411-.473-.683-.724-1.961-1.805-3.839-3.612-5.934-5.423-3.106-2.683-6.358-5.37-9.567-8.052l-.767-.639c-.256-.276-.523-.546-.795-.809.009-.014.016-.029.026-.043.14-.201.252-.443.517-.509zm5.071 243.006c-1.144.135-2.295.23-3.438.293s-2.278.106-3.405.022c-.674-.043-1.368-.047-2.056-.009-4.845.225-9.669.349-14.492.472l-1.271.003c-3.386.027-6.745-.181-10.085-.375l-3.735-.279-3.706-.376-.155-.018c-2.518-.25-5.081.893-6.533 3.173l-.905 1.422c-.149.233-.294.475-.462.692-1.391 1.796-2.579 3.743-3.826 5.645l-3.071 4.744c-.639.972-1.338 1.901-1.975 2.874l-6.171 9.492c-1.451 2.234-2.925 4.452-4.345 6.706l-8.379 13.414-4.79 7.606-3.854 6.25c-2.215-1.8-4.428-3.603-6.623-5.43-2.898-2.411-5.762-4.867-8.619-7.33-1.006-.868-2.092-1.642-3.11-2.498l-6.343-5.405c-1.693-1.438-3.364-2.912-5.101-4.285-1.483-1.172-2.953-2.337-4.313-3.654-.432-.418-.926-.787-1.401-1.165-1.592-1.266-3.211-2.497-4.779-3.793-2.139-1.768-4.195-3.64-6.423-5.293-.353-.261-.68-.57-1.018-.858l-2.651-2.27-14.954-12.774-8.981-7.691-3.471-2.883 2.28-2.372 5.149-5.217c1.361-1.382 2.74-2.751 4.067-4.162 1.48-1.574 3.151-2.978 4.493-4.674.166-.21.377-.427.59-.578.914-.648 1.634-1.478 2.359-2.318.431-.5.91-.972 1.377-1.446l4.092-4.14 8.118-8.347c.73-.751 1.49-1.478 2.204-2.241 1.967-2.104 3.928-4.213 5.773-6.408l5.221-6.188c1.408-1.693 2.778-3.407 4.157-5.117 1.966-2.436 3.978-4.851 5.872-7.321 1.732-2.258 3.551-4.462 5.363-6.673.108-.132.215-.264.323-.395 5.209 4.997 10.513 9.92 15.914 14.759.426.375.852.75 1.275 1.123 9.009 7.959 18.402 15.557 28.187 22.726 7.822 5.722 15.96 11.106 24.439 15.975 1.502.843 3.003 1.687 4.535 2.476l4.615 2.344c6.447 3.237 13.066 6.184 19.857 8.714 2.629.936 5.25 1.906 7.927 2.715-.207.018-.415.033-.622.053-1.04.088-2.084.176-3.124.29zm191.527 3.621c-3.494 3.211-6.991 6.424-10.488 9.637-2.878 2.637-5.793 5.233-8.646 7.897-2.56 2.367-5.116 4.73-7.671 7.092-8.802 8.16-17.707 16.197-26.474 24.396-1.226 1.136-2.455 2.275-3.678 3.409-1.99 1.815-3.977 3.629-5.966 5.444-1.957-2.769-3.91-5.542-5.831-8.348-4.87-7.117-9.88-14.192-14.842-21.275-4.088-5.818-8.179-11.64-12.267-17.458l-13.113-18.806c-1.415-2.019-3.849-3.251-6.479-3.005l-.281.026-6.068.568c-9.084.726-18.188.763-27.209.012-2.12-.178-4.239-.399-6.361-.601-8.315-.986-16.532-2.684-24.582-5.002-2.288-.696-4.581-1.373-6.859-2.107l-3.397-1.169-1.699-.586-1.677-.656-3.365-1.318c-1.125-.433-2.22-.949-3.33-1.422-1.104-.49-2.218-.954-3.308-1.473l-3.25-1.6c-7.154-3.619-14.303-7.295-21.004-11.923-3.957-2.702-8.056-5.446-12.012-8.311-7.126-5.217-14.028-10.797-20.775-16.603-7.59-6.544-14.977-13.38-22.272-20.36l-7.187-6.893-3.572-3.481-.891-.872-.445-.436c-.143-.142-.321-.308-.391-.399-.363-.441-.804-.821-1.133-1.287-2.436-3.045-3.584-7.108-3.155-11.043.411-3.934 2.343-7.622 5.399-10.124 2.058-1.754 4.613-2.873 7.297-3.316 2.687-.44 5.502-.16 8.035.8l.04.017c.99.373 2.05.501 3.096.408.011.015.022.027.027.049.048.211.185.305.29.44.022.029.027.088-.008.184-.151.415-.048.508.119.523.078.007.139.038.185.088.068.073.1.192.175.256.281.24.584.452.86.698.295.262.568.553.853.827.151.146.313.279.463.428.123.122.213.288.359.379.13.082.237.196.359.288.422.318.748.764 1.201 1.04.063.039.125.079.176.133.168.175.326.363.496.535.175.176.384.305.52.535.209.354.501.6.768.879.219.23.459.431.674.666.295.322.57.671.865.994.286.314.582.615.88.914.07.07.172.099.251.157.313.227.613.472.939.681.186.12.422.172.62.276.199.104.413.189.556.365.24.293.759.21.906.628.087.246.335.288.509.424.315.245.625.496.945.734.361.267.719.537 1.098.78.249.159.552.247.798.41.421.28.815.594 1.224.891.692.503 1.383 1.005 2.08 1.501.13.093.319.108.421.238.201.254.422.48.709.621.55.27.893.816 1.557.935.276.049.503.166.807.178.073.003.096.076.154.101.132.058.178.231.377.2.333-.052.776-.258.891-.005.005.012.025.008.048-.004.236-.128.299-.016.395.049.088.058.201.077.414-.04.118-.064.181-.043.247-.029.08.016.134.067.202.099.21.098.451.157.626.301.201.165.508.18.849.152.242-.02.461-.001.577.148.121.158.33.195.489.299.044.029.149-.016.268-.095.518-.346.856-.429 1.093-.364.092.025.212.009.461-.216.232-.209.334-.235.402-.199.032.017.075.046.161-.04.332-.335.468-.353.67-.455.094-.345.094-.345.423-.974.035-.067.078-.143.098-.195.121-.315.232-.621.544-1.118.043-.068.063-.128.075-.171.089-.312.211-.662.25-.916.058-.377.063-.691.082-1.021.016-.276.002-.519.029-.81.041-.438-.003-.77-.078-1.064-.083-.324-.18-.63-.099-1.157.025-.157.025-.288-.001-.386-.176-.686-.422-1.282-.818-1.688-.035-.036-.063-.081-.094-.121-.248-.323-.474-.675-.751-.961-.251-.259-.557-.446-.838-.665-.024-.019-.054-.031-.063-.07-.074-.317-.302-.434-.485-.61-.151-.146-.327-.26-.476-.409-.092-.091-.14-.241-.234-.33-.305-.289-.623-.562-.936-.84-.221-.197-.425-.416-.669-.583-.482-.33-.989-.627-1.48-.945-.279-.181-.535-.393-.822-.563-.553-.328-1.121-.638-1.683-.953-.022-.013-.047-.019-.07-.029-.492-.215-1.004-.402-1.468-.654-.371-.201-.709-.447-1.041-.701-.117-.09-.308-.081-.434-.157-.264-.161-.505-.351-.761-.523-.205-.137-.386-.306-.637-.38-.214-.063-.426-.127-.526-.341-.032-.068-.112-.075-.18-.096-.228-.072-.481-.11-.685-.213-.278-.141-.478-.388-.843-.412-.058-.004-.086-.049-.126-.078-.106-.074-.209-.15-.314-.225-.594-.417-1.19-.832-1.783-1.252-.357-.252-.694-.528-1.063-.765-.29-.186-.618-.323-.923-.49-.12-.066-.214-.165-.338-.226-.23-.112-.482-.196-.709-.313-.244-.126-.468-.279-.704-.415-.188-.108-.362-.234-.576-.306-.238-.081-.325-.366-.674-.298-.043.008-.074-.007-.071-.058.011-.219-.136-.224-.287-.227-.09-.002-.149-.047-.213-.084-.187-.108-.364-.231-.557-.332-.386-.202-.781-.392-1.169-.59-.105-.053-.188-.137-.305-.173-.055-.017-.113-.029-.169-.045-.087-1.531-.672-3.045-1.777-4.274l-11.622-12.931-5.812-6.463-1.213-1.343-.258-.275-.183-.259-.379-.504c-.429-.719-.863-1.447-1.106-2.262-.338-1.006-.588-2.071-.604-3.157-.022-1.083.127-2.171.46-3.189.307-1.013.846-1.922 1.451-2.762.287-.436.67-.797 1.013-1.192.403-.332.762-.721 1.204-.995 1.659-1.248 3.745-1.864 5.856-1.94 2.122-.04 4.19.638 5.882 1.855.331.384.674.758 1.027 1.12l.043.047.146-.146.032.032c2.717 2.699 7.108 2.685 9.807-.032s2.685-7.108-.032-9.808l.146-.146c-.381-.385-.781-.751-1.189-1.109-1.253-1.77-1.91-3.946-1.843-6.154.075-2.764 1.248-5.399 3.272-7.299 1.216-1.2 2.788-1.99 4.474-2.423 1.692-.444 3.509-.377 5.229-.009.813.247 1.629.574 2.354 1.031.128.066.247.144.369.22.458.566.932 1.118 1.437 1.64l.268-.268.099.09c2.454 2.205 6.23 2.204 8.685-.09 2.595-2.425 2.732-6.495.307-9.09l.268-.268c-.534-.52-1.094-1.015-1.666-1.497-.197-.283-.4-.561-.584-.856-.84-1.423-1.416-3.06-1.562-4.807-.105-1.74.244-3.559 1.116-5.151.084-.152.184-.321.245-.479.62-1.561 1.93-2.911 3.382-3.875 1.336-.872 2.769-1.473 4.271-1.95.418-.115.876-.246 1.359-.265.24-.016.483-.063.726-.056.244.005.487.01.728.015 1.161.07 2.338.282 3.428.71.528.192 1.035.433 1.531.697.622.876 1.296 1.717 2.032 2.508l.609-.609.083.081c1.968 1.901 5.105 1.869 7.034-.081 1.944-1.965 1.927-5.134-.038-7.078l.609-.609c-.873-.91-1.832-1.742-2.852-2.499-.311-.611-.59-1.24-.793-1.9-1.133-4.009-.386-8.554 2.369-11.794 1.893-2.342 4.852-3.966 7.963-4.181 3.236-.242 6.541.625 9.059 2.649.354.29.712.607 1.1.878l.494.423c.501.314.998.606 1.459.861 4.114 2.274 8.311 5.002 12.545 7.98 1.652 1.162 3.27 2.237 4.644 2.832 1.278.553 2.528 1.363 3.932 2.373.101.073.21.151.321.231-.242.238-.487.472-.725.713l-6.036 6.229-3.454 3.517-1.639 1.72-.204.215-.271.301-.561.638c-.363.435-.758.839-1.074 1.313-1.379 1.803-2.432 3.829-3.259 5.92l-.157.495c-1.153 3.491-1.471 7.183-1.024 10.754.349 2.856 1.177 5.661 2.497 8.235.22.458.523.874.802 1.298.29.418.562.845.878 1.242.426.558.827 1.137 1.284 1.667l1.416 1.55 4.545 1.883-4.545-1.882c.52.479 1.047.952 1.581 1.416.652.532 1.349 1.017 2.035 1.507.724.432 1.455.861 2.217 1.21.665.27 1.325.537 1.98.804.672.227 1.336.467 1.996.746.426.151.89.219 1.338.303.749.161 1.511.216 2.269.274.755.083 1.514.062 2.269.077.515.021 1.029.008 1.543-.027.514-.032 1.03-.043 1.54-.107 1.018-.153 2.039-.306 3.003-.676.307-.108.633-.168.95-.25.816-.267 1.635-.537 2.427-.869 1.7-.705 3.293-1.655 4.755-2.765.03.146.06.292.085.44.031.155.023.34-.024.494-.22.673-.02 1.289.283 1.87.13.274.29.541.399.826.17.413.29.852.478 1.261.387.752.824 1.483 1.269 2.203.5.683.97 1.395 1.513 2.043l.639.738c.191.26.401.511.642.743.831.799 1.636 1.637 2.582 2.321.75.617 1.581 1.116 2.41 1.624.671.435 1.387.797 2.115 1.128.655.285 1.332.511 2.003.752 2.337.731 4.774 1.258 7.242 1.195.342-.02.685-.039 1.027-.044 1.118.016 2.232-.134 3.344-.281.624-.121 1.241-.267 1.857-.425.039.319.087.636.147.953.038.213.077.43.115.645.308 1.718.835 3.415 1.567 5.034.354.721.771 1.415 1.187 2.104.458.662.947 1.304 1.428 1.949.086.108.188.206.258.325.587.987 1.394 1.814 2.246 2.576.67.674 1.453 1.219 2.209 1.801.456.373.92.739 1.422 1.054 1.612 1.049 3.398 1.799 5.212 2.423 1.295.39 2.609.757 3.959.898 2.664.309 5.364.142 7.972-.424.735-.189 1.478-.35 2.202-.577.034-.012.069-.024.103-.036.038.196.095.391.173.583.103.25.18.511.235.775.074.389.153.779.27 1.159l.364 1.063c.132.35.298.687.449 1.031l.471 1.022c.168.335.362.657.543.987l.591 1.048.672.998c.229.33.451.666.692.988l.773.923.691.792v.001l1.094 1.048c.495.503 1.02.982 1.603 1.388l.768.557c.262.177.533.34.804.503 1.845 1.156 3.842 2.122 5.964 2.65.297.067.594.134.886.216.475.146.957.254 1.446.34.486.093.975.189 1.466.263 1.014.079 2.029.159 3.054.182.794.051 1.593.047 2.387-.055l1.193-.135 1.181-.232c.65-.124 1.294-.275 1.922-.491.629-.21 1.275-.378 1.885-.647.237-.096.474-.194.711-.29.213.941.426 1.882.643 2.844.295 1.184.55 2.421.876 3.681.919 3.8 1.619 7.646 2.461 11.514.139.647.244 1.344.345 2.014.363 2.567.684 5.142.975 7.73.119 1.105.235 2.174.106 3.01-.162 1.034-.027 2.441.16 3.821.475 3.691.957 7.378 1.343 11.101.087.812.174 1.632.262 2.453l.017.159c.133 1.186.757 2.311 1.815 3.044 1.97 1.366 3.945 2.75 5.754 4.173 4.669 3.671 9.526 7.187 14.29 10.775 4.768 3.591 9.624 7.128 14.457 10.675 1.9 1.395 3.919 2.719 5.745 4.13 2.971 2.298 6.033 4.48 9.064 6.704.648.476 1.35 1.033 1.846 1.507 2.137 2.049 4.68 3.883 7.37 5.7 1.247.842 2.5 1.724 3.728 2.617l5.363 3.96 10.705 7.681c-5.924 5.433-11.849 10.866-17.778 16.302zm-129.556-240.157.018.021.07.092zm103.281 17.503c-.046-.13-.069-.23-.047-.247.082-.062.121-.195.236-.2.11-.005.137-.156.14-.344.004-.266.035-.483.16-.543.11-.052.166-.198.246-.3.026-.034.065-.046.081-.096.013-.041.032-.076-.003-.197-.065-.218-.044-.292.001-.325.05-.037.13-.023.06-.265-.007-.024-.008-.04 0-.038.179.05.07-.384.057-.657-.008-.162.113-.104.161-.171.021-.029.072-.007.079-.059.029-.217.124-.322.175-.499.126-.424.519-.386.739-.647.115-.136.283-.178.469-.191.094-.006.118-.136.189-.183.383-.248.77-.489 1.158-.73.229-.142.468-.265.686-.426.127-.094.207-.27.332-.368.191-.15.397-.27.603-.392.183-.108.374-.203.561-.305.104-.056.149-.216.322-.148.293.113.272-.312.487-.332.129-.012.201-.124.285-.214s.135-.236.229-.309c.164-.129.35-.218.525-.328.045-.028.072-.087.124-.101.222-.061.447-.118.679-.161.239-.044.494-.061.732-.107.173-.034.326-.103.497-.142.207-.047.393-.132.647-.097.165.022.267-.063.398-.098.128-.034.266-.05.396-.081.04-.009.072-.033.102-.058.218-.186.542-.188.786-.33.071-.041.155-.058.219-.111.072-.058.191-.037.281-.063.111-.031.212-.079.321-.113.206-.064.421-.11.619-.187.185-.072.35-.181.531-.261.048-.021.131.019.185.008.036-.008.062-.036.072-.089.022-.115.091-.141.362.191.063.077.103.104.124.103.099-.005.172-.056.318.021.09.047.09-.066.152-.07.158-.008.306-.034.5.022s.332.014.588.177c.133.085.154-.034.199-.105.053-.085.074-.224.116-.329.015-.04.054-.039.218.198.133.191.165.195.198.199.077.009.158.026.234.034.02.002.044.009.043-.023 0-.19.128-.157.246-.144.078.009.213.124.395.325.151.167.294.318.446.485.026.029.074.1.14.189.126.283.1.316.109.403.008.084.014.164.021.248.02.024.043.054.056.067.032.03.064.056.148.214.036.067.049.112.072.166.065.13.131.26.199.394.192.29.148.124.294.324.123.201.123.24.138.294.13.454.122.68.126.925.004.344.004.678.054 1.098.056.46.047.816.064 1.212.012.278.028.565.024.816-.005.308-.033.579-.046.873-.014.313-.1.504-.19.688-.032.067-.095.083-.138.133-.161.18-.316.369-.479.545-.082.088-.177.152-.263.232-.029.028-.064.047-.072.112-.012.109-.026.215-.173.09-.034-.029-.047-.015-.044.021.022.292-.177.204-.248.337-.063.119-.16.18-.246.26-.108.101-.227.184-.329.297-.094.104-.168.245-.26.354-.049.058-.124.075-.176.128-.134.135-.249.303-.395.417-.185.145-.395.247-.59.375-.325.212-.646.429-.969.645-.058.038-.117.073-.174.111-.022.014-.055.01-.061.051-.041.256-.222.271-.336.4-.084.095-.126.261-.191.39-.019.038-.029.094-.077.081-.152-.04-.21.081-.267.205-.067.145-.194.188-.301.265-.133.097-.279.173-.405.282-.061.052-.068.197-.136.235-.195.109-.384.227-.546.392-.202.207-.364.483-.543.73-.009.011-.015.027-.025.036-.252.245-.5.498-.76.73-.135.12-.296.196-.438.305-.249.192-.484.406-.741.585-.13.09-.292.124-.44.182-.21.083-.416.171-.633.241-.067.022-.171-.022-.239-.003-.111.03-.2.098-.309.133-.131.041-.226.146-.446.032-.027-.013-.037.001-.052.009-.168.09-.315.215-.508.262-.212.052-.466.031-.702.041-.029.002-.062-.002-.088.005-.301.075-.722-.061-1.199-.295-.068-.034-.157-.103-.261-.204-.351-.339-.565-.43-.79-.541-.205-.102-.432-.245-.726-.508-.195-.174-.36-.294-.546-.451-.222-.189-.435-.359-.686-.602-.17-.164-.399-.44-.604-.67-.029-.033-.068-.079-.111-.146-.316-.493-.515-.737-.721-.994-.034-.042-.083-.114-.125-.175-.404-.576-.404-.576-.631-.828-.055-.202-.059-.312-.262-.733-.053-.108-.03-.125-.016-.139.029-.031.018-.12-.108-.401-.135-.303-.138-.4-.115-.454.065-.138.031-.431-.167-.995zm-66.887-66.66c.004-.036.058-.042.039-.091-.083-.202-.054-.34-.097-.519-.103-.431.257-.594.317-.93.031-.175.156-.296.31-.4.079-.053.034-.177.073-.253.208-.407.423-.809.638-1.212.127-.237.273-.463.382-.712.063-.146.044-.338.103-.485.09-.225.209-.432.326-.641.104-.186.222-.363.334-.544.062-.1.021-.261.204-.29.31-.048.08-.406.256-.531.106-.075.112-.208.139-.328.028-.12-.001-.272.044-.382.078-.193.195-.364.291-.546.025-.046.018-.11.056-.149.162-.164.328-.326.507-.479.185-.158.397-.3.581-.458.133-.116.231-.253.359-.371.157-.144.275-.311.512-.408.154-.063.2-.187.296-.283.094-.093.205-.177.302-.268.03-.028.046-.064.059-.102.096-.27.375-.434.516-.678.041-.071.105-.128.135-.205.033-.087.147-.127.213-.195.081-.082.144-.175.222-.258.146-.158.309-.305.442-.471.125-.155.212-.332.33-.492.031-.043.123-.049.164-.086.028-.025.036-.062.018-.113-.038-.11.009-.168.409-.016.093.035.141.039.159.027.083-.054.121-.134.286-.141.101-.004.044-.102.096-.136.133-.086.247-.182.444-.231.196-.048.294-.154.597-.141.158.007.117-.106.119-.191.004-.1-.047-.231-.064-.343-.007-.042.027-.061.288.062.211.099.24.087.27.074.071-.031.149-.057.22-.088.019-.008.042-.014.026-.042-.095-.164.032-.2.141-.247.072-.031.247.001.505.084.215.069.414.128.629.197.037.012.114.049.216.094.251.182.245.223.296.295.049.068.094.135.142.204.029.011.065.025.082.029.043.01.083.016.235.111.067.042.101.075.15.112.12.078.24.157.365.238.312.155.19.034.417.133.207.113.227.147.267.186.34.328.446.528.571.738.176.296.343.586.596.924.278.371.449.683.661 1.017.149.235.307.475.429.695.149.269.261.517.397.779.145.278.166.487.18.691.005.074-.04.119-.053.184-.049.236-.089.478-.142.712-.027.117-.077.22-.111.332-.012.039-.032.073-.006.133.044.101.085.199-.105.165-.045-.008-.047.011-.027.04.165.242-.051.265-.046.415.004.135-.049.236-.083.349-.043.141-.104.273-.136.421-.029.138-.024.296-.048.437-.013.075-.069.126-.088.199-.048.184-.065.387-.134.559-.088.218-.219.411-.324.62-.175.346-.345.695-.517 1.042-.031.062-.064.122-.095.183-.011.024-.043.036-.027.075.092.242-.057.346-.091.515-.025.124.021.289.03.433.002.043.021.096-.027.109-.152.041-.141.175-.129.311.015.159-.074.26-.128.381-.067.151-.155.289-.21.447-.027.075.04.204 0 .272-.114.191-.219.388-.276.612-.072.28-.074.6-.105.904-.002.014.001.031-.003.044-.096.338-.184.681-.293 1.012-.057.171-.158.317-.227.482-.119.29-.216.594-.349.877-.067.143-.191.253-.29.377-.14.176-.276.356-.427.525-.047.052-.159.066-.209.117-.081.081-.124.185-.202.269-.093.101-.123.24-.37.251-.03.001-.032.02-.04.034-.1.162-.165.344-.308.481-.158.151-.389.26-.587.387-.025.016-.054.029-.074.048-.223.216-.656.308-1.186.344-.076.005-.187-.011-.329-.047-.474-.118-.705-.09-.955-.074-.228.014-.497.004-.883-.077-.256-.053-.459-.074-.699-.117-.287-.053-.556-.094-.895-.179-.229-.058-.565-.182-.858-.278-.041-.014-.098-.034-.169-.071-.52-.269-.815-.381-1.121-.5-.05-.02-.128-.058-.196-.089-.638-.297-.638-.297-.96-.401-.149-.148-.207-.241-.594-.504-.1-.067-.088-.093-.084-.112.01-.041-.044-.113-.294-.294-.268-.195-.319-.277-.326-.335-.017-.15-.193-.387-.647-.776-.105-.09-.175-.165-.164-.191.039-.094.007-.229.104-.292.092-.059.04-.204-.051-.368-.13-.232-.211-.436-.133-.55.069-.1.045-.254.063-.383.006-.042.033-.072.022-.123-.009-.042-.01-.082-.101-.169-.165-.157-.184-.23-.161-.282.025-.057.101-.085-.081-.259-.018-.018-.027-.031-.019-.033.18-.046-.131-.368-.278-.597-.089-.14.044-.149.052-.231zm-91.533-29.299c-.002-.052-.039-.105-.026-.157.058-.222.121-.445.2-.668.081-.229.194-.458.273-.687.058-.167.074-.334.126-.501.063-.203.083-.407.24-.609.102-.131.079-.262.114-.393.035-.128.089-.256.128-.383.012-.039.007-.079 0-.118-.052-.282.108-.564.108-.846 0-.082.027-.164.014-.245-.015-.092.063-.183.086-.275.029-.112.037-.223.063-.335.047-.21.115-.42.147-.629.03-.197.018-.393.04-.591.006-.052.082-.104.099-.157.011-.036 0-.072-.041-.107-.088-.076-.077-.15.346-.219.098-.016.142-.037.152-.056.045-.088.038-.177.177-.265.086-.054-.013-.111.016-.166.072-.141.123-.282.269-.422s.178-.281.447-.42c.14-.072.048-.15.008-.225-.047-.088-.157-.176-.227-.265-.027-.033-.007-.067.281-.091.232-.019.252-.045.271-.071.046-.062.101-.124.147-.186.012-.016.029-.033.002-.049-.164-.095-.072-.189-.002-.285.047-.063.214-.122.479-.18.22-.048.422-.096.643-.144.038-.008.124-.014.234-.027.309.032.323.071.404.108.076.035.149.07.225.105.031-.005.069-.01.086-.016.042-.013.08-.028.26-.021.077.003.124.014.183.022.144.008.289.016.438.024.347-.021.181-.066.428-.093.236-.006.27.014.324.027.458.114.65.234.863.354.3.168.589.336.978.502.426.182.73.367 1.082.55.247.129.503.258.719.387.264.159.485.318.733.476.264.168.386.339.501.508.042.062.024.124.045.186.076.229.162.458.233.687.035.115.044.229.07.344.009.039.009.079.061.118.088.065.173.13-.009.195-.043.015-.036.033-.003.049.264.127.088.255.168.383.071.114.076.229.102.344.033.144.046.289.092.433.043.134.128.268.177.402.026.072.003.144.023.216.05.184.137.367.164.55.034.233.016.465.029.698.021.387.049.774.074 1.161.004.069.005.137.009.206.002.026-.019.053.013.079.201.163.124.328.179.492.04.12.163.24.243.36.024.036.066.072.031.108-.111.112-.035.222.044.334.092.131.065.263.08.393.018.164.01.328.041.492.015.079.137.157.135.235-.003.223.005.446.067.668.078.279.237.557.361.835.006.013.016.026.019.039.086.341.182.682.252 1.023.037.177.022.354.045.531.042.311.11.622.137.934.013.157-.039.315-.063.472-.034.223-.061.446-.107.669-.015.069-.106.137-.122.206-.029.111-.015.222-.04.334-.03.135.013.269-.195.403-.025.016-.018.033-.018.049-.007.19.029.38-.027.57-.062.21-.207.419-.315.629-.013.026-.033.052-.04.079-.085.299-.414.595-.855.89-.063.042-.167.084-.308.124-.469.135-.655.274-.864.413-.19.127-.428.252-.803.375-.248.081-.434.165-.664.247-.275.098-.528.197-.865.293-.227.065-.58.126-.883.188-.043.009-.102.019-.182.023-.585.027-.896.078-1.221.128-.053.008-.14.014-.214.021-.701.062-.701.062-1.032.132-.202-.053-.3-.106-.766-.139-.12-.009-.123-.036-.128-.055-.012-.041-.095-.076-.401-.108-.33-.034-.415-.08-.45-.128-.09-.121-.361-.239-.948-.348-.135-.025-.234-.056-.238-.083-.013-.101-.108-.202-.056-.305.05-.097-.067-.197-.229-.293-.228-.136-.4-.272-.39-.41.009-.121-.088-.242-.137-.363-.016-.04-.008-.079-.043-.118-.029-.032-.05-.066-.173-.096-.221-.053-.274-.108-.281-.164-.007-.062.045-.124-.199-.184-.025-.006-.039-.013-.033-.02.133-.13-.297-.253-.54-.378-.145-.074-.034-.15-.068-.225-.014-.033.03-.066-.012-.098-.173-.133-.217-.268-.344-.401-.305-.321-.074-.643-.191-.964-.06-.167-.013-.334.069-.501.042-.085-.059-.17-.063-.256-.024-.456-.039-.912-.054-1.368-.009-.269.005-.538-.025-.807-.018-.157-.131-.314-.153-.472-.034-.239-.035-.479-.038-.718-.002-.213.011-.425.017-.638.003-.117-.112-.237.032-.353.245-.197-.134-.392-.044-.588.054-.118-.007-.236-.043-.354s-.137-.235-.153-.353c-.029-.2-.013-.406-.02-.613zm-94.592 21.806c-.005-.099-.056-.172.021-.318.047-.09-.066-.09-.07-.152-.008-.158-.034-.305.021-.5.056-.194.014-.332.177-.587.085-.133-.033-.154-.106-.199-.085-.053-.224-.074-.328-.116-.04-.015-.039-.054.198-.219.191-.133.195-.164.199-.197.009-.077.026-.158.034-.235.002-.02.009-.043-.023-.043-.19 0-.157-.128-.144-.245.009-.079.124-.213.325-.395.167-.151.318-.294.485-.446.029-.026.1-.074.19-.14.283-.126.316-.1.403-.108.083-.008.164-.014.247-.021.024-.02.054-.043.067-.056.03-.032.056-.064.214-.148.069-.037.115-.05.172-.074.128-.065.256-.13.389-.197.29-.192.124-.148.324-.295.201-.122.241-.123.294-.138.454-.13.68-.122.924-.126.344-.005.678-.004 1.098-.054.46-.055.816-.047 1.212-.064.278-.012.565-.029.816-.024.308.005.579.033.873.046.313.014.504.1.688.19.067.033.083.095.132.138.18.161.369.316.545.479.088.082.153.177.233.263.027.029.047.064.112.071.109.013.215.026.09.174-.029.034-.015.047.022.044.292-.022.204.177.337.248.119.063.18.16.26.246.101.108.184.227.296.328.105.095.245.168.354.26.059.049.075.123.128.176.135.134.303.249.417.395.146.185.247.395.375.59.212.325.429.646.645.969.038.058.073.116.111.174.015.022.01.055.051.061.256.041.271.222.401.336.095.084.261.126.39.19.038.019.093.029.081.078-.04.152.081.21.205.267.145.067.188.195.266.301.097.133.173.279.282.406.052.061.197.067.235.136.109.194.226.384.392.545.207.202.483.364.73.543.011.009.027.015.036.025.245.252.498.5.73.76.121.135.196.296.305.437.192.249.406.485.585.741.09.13.124.292.182.44.083.21.171.416.241.633.022.067-.022.171-.003.24.03.111.099.2.132.309.041.131.146.226.032.446-.014.027.001.037.009.052.09.168.215.315.262.508.052.212.031.466.041.702.002.029-.002.062.005.088.075.301-.061.722-.295 1.198-.034.068-.103.157-.204.262-.339.351-.43.565-.541.79-.102.205-.245.433-.508.726-.174.195-.294.36-.451.546-.189.222-.359.435-.602.686-.165.17-.44.399-.67.604-.033.029-.079.068-.146.111-.493.316-.737.515-.994.721-.042.034-.114.083-.175.126-.576.404-.576.404-.828.631-.202.055-.312.058-.733.263-.108.052-.125.03-.139.016-.031-.029-.119-.018-.401.108-.303.135-.4.138-.454.115-.139-.06-.432-.027-.996.172-.13.046-.23.069-.247.047-.062-.082-.195-.121-.2-.236-.005-.109-.156-.137-.345-.14-.265-.004-.483-.035-.543-.16-.052-.11-.198-.166-.3-.246-.034-.026-.046-.065-.096-.081-.041-.013-.076-.032-.197.003-.218.065-.292.044-.325-.001-.037-.05-.023-.13-.265-.06-.024.007-.04.008-.038 0 .05-.179-.384-.07-.657-.057-.162.008-.104-.113-.171-.161-.029-.021-.007-.072-.059-.079-.217-.029-.322-.123-.499-.175-.424-.126-.386-.519-.647-.739-.136-.115-.178-.283-.191-.468-.006-.094-.136-.118-.183-.19-.248-.383-.489-.77-.73-1.158-.142-.229-.265-.468-.426-.686-.094-.127-.27-.207-.368-.332-.15-.19-.27-.397-.392-.603-.108-.183-.203-.374-.304-.561-.056-.103-.216-.149-.149-.321.114-.293-.312-.272-.332-.487-.012-.129-.124-.201-.215-.285-.09-.084-.236-.135-.309-.229-.128-.164-.218-.35-.328-.525-.028-.045-.087-.071-.101-.124-.061-.222-.118-.447-.161-.679-.044-.239-.061-.494-.107-.732-.034-.173-.103-.326-.142-.496-.047-.208-.132-.394-.097-.648.022-.164-.063-.266-.098-.397-.033-.128-.05-.266-.081-.396-.009-.04-.033-.072-.058-.102-.186-.218-.188-.542-.33-.786-.041-.071-.058-.155-.11-.22-.058-.072-.037-.19-.063-.281-.031-.111-.079-.212-.113-.321-.064-.205-.11-.421-.187-.618-.072-.186-.182-.35-.261-.531-.021-.048.018-.131.007-.185-.008-.037-.036-.062-.089-.072-.114-.022-.141-.092.191-.362.079-.071.106-.111.106-.133zm-70.744 70.833c-.031-.073.001-.247.084-.505.069-.215.128-.414.197-.629.012-.037.049-.115.094-.216.182-.251.223-.245.295-.296.068-.049.135-.094.204-.142.011-.03.026-.065.03-.082.01-.043.016-.083.111-.236.042-.066.075-.101.112-.15.078-.12.157-.241.238-.365.155-.311.033-.189.133-.417.113-.207.147-.227.186-.267.328-.34.528-.445.738-.57.295-.176.586-.343.924-.596.371-.278.683-.449 1.017-.661.235-.15.475-.307.695-.429.269-.149.517-.261.779-.397.278-.145.487-.166.691-.18.074-.005.119.041.183.054.236.049.478.089.712.142.117.027.22.077.332.111.039.012.073.032.133.006.101-.044.199-.085.165.106-.008.044.011.047.04.027.242-.165.265.051.415.046.135-.005.236.049.349.083.141.043.273.105.421.137.138.029.296.023.437.048.075.013.127.07.199.088.184.048.387.064.559.134.218.087.411.219.62.323.346.175.695.345 1.042.517.062.031.122.064.183.094.024.012.036.043.075.028.242-.093.345.057.515.091.124.025.29-.021.433-.03.043-.002.096-.021.109.027.041.152.175.141.311.128.159-.014.26.074.381.128.151.067.29.155.447.211.075.027.204-.04.272 0 .191.114.388.219.612.276.28.072.601.074.904.105.014.002.031 0 .044.004.338.096.681.184 1.012.293.172.056.317.158.482.226.291.12.594.217.877.349.143.067.253.191.377.29.176.14.356.275.525.427.052.047.066.16.117.209.082.081.185.124.269.201.101.093.24.123.252.37.001.03.019.032.033.04.162.1.344.165.481.308.15.158.26.389.386.587.016.025.029.054.048.074.216.223.308.656.344 1.186.005.075-.011.187-.046.328-.118.474-.09.705-.074.955.014.228.004.497-.076.883-.054.256-.074.459-.118.699-.052.287-.094.556-.179.895-.057.229-.181.565-.278.858-.013.041-.034.098-.071.169-.27.52-.381.815-.5 1.121-.019.05-.058.128-.089.196-.296.638-.296.638-.401.961-.147.149-.241.207-.504.594-.067.099-.093.088-.112.084-.041-.01-.113.044-.294.294-.194.268-.277.319-.335.326-.15.017-.387.193-.776.647-.09.105-.165.175-.191.164-.094-.04-.229-.007-.292-.104-.059-.092-.204-.04-.368.051-.232.13-.436.211-.55.132-.1-.069-.254-.045-.383-.063-.042-.006-.072-.033-.123-.022-.042.009-.082.01-.169.101-.157.165-.23.184-.282.162-.057-.025-.085-.101-.259.081-.017.018-.031.027-.033.018-.046-.18-.368.131-.597.278-.137.088-.146-.045-.228-.054-.036-.004-.042-.058-.091-.038-.202.083-.34.054-.519.097-.431.103-.594-.257-.93-.317-.175-.031-.296-.156-.4-.31-.053-.079-.177-.034-.253-.073-.407-.207-.809-.422-1.212-.637-.237-.127-.463-.273-.712-.382-.145-.063-.337-.044-.485-.103-.225-.09-.432-.209-.641-.326-.185-.104-.363-.223-.544-.334-.1-.062-.261-.021-.29-.204-.048-.31-.406-.08-.531-.256-.075-.106-.208-.112-.328-.139-.12-.028-.272.001-.382-.044-.193-.078-.364-.195-.546-.291-.046-.025-.111-.018-.149-.056-.164-.162-.326-.328-.479-.508-.158-.185-.3-.397-.458-.58-.116-.133-.253-.231-.371-.359-.144-.156-.311-.275-.408-.512-.063-.153-.187-.199-.283-.295-.093-.094-.177-.205-.268-.302-.028-.03-.064-.046-.102-.059-.27-.097-.434-.376-.678-.516-.071-.041-.128-.105-.205-.135-.087-.033-.127-.146-.195-.212-.082-.081-.175-.144-.258-.222-.158-.146-.306-.309-.472-.442-.155-.124-.332-.212-.492-.33-.043-.031-.049-.123-.086-.164-.025-.028-.062-.036-.113-.018-.11.038-.168-.009-.016-.409.035-.093.039-.141.027-.16-.054-.083-.134-.121-.141-.286-.004-.101-.102-.045-.136-.097-.086-.133-.182-.248-.231-.444-.048-.196-.154-.295-.141-.597.007-.158-.106-.117-.191-.12-.1-.003-.231.048-.343.064-.042.007-.061-.028.062-.288.099-.211.087-.24.074-.27-.031-.071-.057-.15-.088-.22-.008-.018-.014-.042-.042-.026-.166.096-.202-.032-.249-.14zm-20.224 101.269c-.21-.047-.419-.115-.629-.147-.197-.03-.394-.018-.591-.04-.052-.006-.104-.082-.157-.099-.036-.011-.072 0-.107.041-.076.088-.15.077-.218-.346-.016-.098-.037-.142-.056-.152-.088-.045-.177-.038-.265-.177-.054-.086-.111.013-.166-.016-.141-.072-.282-.123-.422-.268-.14-.146-.281-.178-.42-.447-.073-.14-.15-.048-.225-.008-.088.047-.176.157-.265.227-.033.027-.067.007-.09-.28-.02-.232-.045-.252-.072-.271-.062-.046-.124-.101-.186-.147-.016-.012-.033-.029-.049-.002-.095.164-.189.072-.284.002-.063-.047-.122-.214-.18-.478-.047-.22-.096-.422-.144-.643-.008-.038-.014-.124-.027-.234.032-.309.071-.323.108-.404.035-.076.07-.149.106-.225-.006-.031-.01-.068-.016-.086-.013-.042-.028-.08-.022-.259.003-.077.014-.123.022-.183.008-.144.016-.289.024-.438-.022-.347-.066-.181-.093-.428-.005-.236.014-.27.028-.324.114-.458.234-.65.353-.863.168-.3.336-.589.502-.978.182-.426.367-.73.551-1.082.129-.247.257-.503.387-.719.158-.264.317-.485.476-.733.169-.264.339-.386.509-.501.062-.042.124-.025.186-.045.229-.076.458-.162.687-.233.115-.035.229-.044.344-.07.039-.009.079-.009.118-.061.065-.088.13-.173.195.009.015.043.033.036.049.003.127-.264.256-.088.383-.168.115-.071.229-.076.344-.102.144-.034.288-.046.433-.093.134-.043.268-.128.402-.177.072-.026.144-.003.217-.023.183-.051.367-.138.55-.164.233-.034.465-.016.698-.029.387-.021.774-.049 1.161-.074.069-.004.137-.005.206-.009.026-.002.053.018.079-.013.164-.201.328-.124.492-.179.12-.04.24-.163.36-.243.036-.024.072-.066.108-.031.112.111.222.034.334-.044.13-.092.262-.066.393-.08.164-.018.328-.011.492-.041.079-.015.157-.137.236-.136.223.003.446-.004.668-.067.278-.078.557-.237.835-.361.013-.006.026-.016.039-.019.341-.086.682-.181 1.023-.252.177-.036.354-.021.531-.045.312-.042.623-.109.934-.136.157-.013.314.039.472.063.223.033.446.061.669.107.068.014.137.106.206.122.111.029.222.015.334.04.134.03.269-.013.402.195.016.025.033.018.049.018.19.006.381-.029.57.027.21.061.419.207.629.315.026.013.053.032.079.04.299.085.595.414.89.855.042.063.084.167.124.308.134.469.274.655.413.864.126.19.252.428.375.803.082.248.165.434.247.664.098.275.197.528.293.865.065.227.126.58.188.882.009.043.019.102.023.182.027.585.077.896.127 1.221.008.053.014.14.021.214.062.701.062.701.133 1.033-.053.202-.106.3-.139.766-.009.12-.036.123-.056.128-.04.012-.076.094-.108.401-.034.33-.08.415-.127.45-.121.09-.239.36-.348.948-.025.135-.056.234-.084.237-.101.013-.202.109-.304.056-.097-.05-.197.067-.293.228-.136.228-.272.401-.411.39-.121-.009-.242.088-.363.137-.039.016-.079.007-.118.043-.032.029-.066.05-.096.172-.053.222-.108.274-.164.281-.062.007-.124-.045-.184.199-.006.025-.013.039-.019.033-.13-.133-.253.297-.378.54-.075.145-.15.034-.225.067-.033.015-.066-.029-.098.012-.133.173-.267.217-.401.344-.321.305-.642.074-.963.191-.167.06-.334.013-.501-.069-.085-.042-.17.059-.255.063-.456.024-.912.038-1.368.054-.269.009-.538-.005-.807.025-.157.018-.314.131-.472.153-.24.034-.479.035-.718.038-.213.002-.426-.011-.638-.017-.118-.003-.237.112-.353-.032-.197-.245-.391.134-.587.044-.118-.054-.236.007-.354.043s-.236.137-.353.153c-.206.029-.413.013-.619.021-.053.002-.105.039-.157.026-.223-.059-.446-.121-.669-.2-.229-.081-.458-.194-.687-.274-.167-.057-.334-.073-.501-.126-.203-.063-.406-.083-.609-.24-.131-.102-.262-.079-.393-.114-.128-.035-.255-.089-.383-.128-.039-.012-.079-.008-.118 0-.282.052-.564-.108-.845-.108-.082 0-.164-.027-.245-.014-.092.015-.184-.063-.275-.086-.114-.027-.225-.036-.337-.062zm369.022-6.432c-.062-.701-.062-.701-.133-1.032.054-.202.105-.3.139-.766.009-.12.036-.123.056-.128.04-.012.076-.095.108-.401.034-.33.08-.415.127-.45.121-.09.239-.361.348-.948.025-.135.056-.234.084-.238.101-.013.202-.108.304-.056.097.05.197-.067.294-.229.136-.228.272-.4.41-.39.121.009.242-.088.363-.137.039-.016.079-.008.118-.043.032-.029.066-.05.095-.172.054-.222.108-.274.164-.281.062-.007.124.045.184-.199.006-.025.013-.039.019-.033.13.133.253-.297.378-.54.075-.145.15-.034.225-.068.033-.014.066.03.098-.011.133-.173.268-.217.401-.344.321-.305.642-.074.964-.191.167-.06.334-.013.501.069.085.042.17-.059.255-.063.456-.024.912-.039 1.368-.054.269-.009.538.005.807-.025.157-.018.314-.131.471-.153.24-.034.479-.035.718-.038.213-.002.426.011.638.017.118.003.237-.112.353.032.197.245.391-.134.587-.044.118.054.236-.007.354-.043s.235-.137.353-.153c.206-.029.413-.013.619-.021.052-.002.105-.039.157-.026.223.058.446.121.669.2.229.081.458.194.687.273.167.058.334.074.501.126.203.063.407.083.609.24.131.102.262.079.393.114.128.035.256.089.384.128.039.012.079.007.118 0 .282-.052.564.108.845.108.082 0 .164.027.245.014.092-.015.183.063.275.086.112.029.223.037.335.063.21.047.42.115.629.147.197.03.394.018.591.04.052.006.104.082.157.099.036.011.072 0 .107-.041.076-.088.15-.077.219.346.016.098.037.141.056.152.088.045.177.038.265.177.054.086.111-.013.166.016.141.072.282.123.422.269s.281.178.42.447c.073.14.15.048.225.008.088-.047.177-.157.265-.227.033-.027.067-.007.091.281.019.232.045.251.072.271.062.046.124.101.186.147.016.012.033.029.049.002.095-.164.189-.072.285-.002.063.047.122.214.18.479.048.22.096.422.144.643.009.038.014.124.027.234-.032.309-.071.323-.107.404-.035.076-.07.149-.106.225.005.031.01.069.016.086.013.042.028.08.021.26-.003.079-.014.125-.022.186-.008.143-.016.286-.024.435.021.347.066.181.093.428.006.236-.014.27-.027.324-.114.458-.234.65-.353.863-.168.3-.336.589-.503.978-.182.426-.367.73-.55 1.082-.129.247-.258.503-.387.719-.159.264-.318.485-.476.733-.168.264-.338.386-.508.501-.062.042-.124.025-.186.045-.229.076-.458.162-.687.233-.115.035-.229.044-.344.07-.04.009-.079.009-.118.061-.065.088-.13.173-.195-.009-.016-.043-.033-.036-.049-.003-.127.264-.255.088-.383.168-.114.071-.229.076-.344.102-.144.033-.289.046-.433.092-.134.043-.268.128-.402.177-.072.026-.144.003-.217.023-.183.05-.367.138-.55.164-.233.034-.465.016-.698.029-.387.021-.775.049-1.161.074-.069.004-.137.005-.206.009-.026.002-.053-.019-.079.013-.163.201-.327.124-.491.179-.12.04-.24.163-.36.243-.036.024-.072.066-.108.031-.112-.111-.222-.035-.334.044-.13.092-.262.065-.393.08-.164.018-.328.011-.492.041-.079.015-.157.137-.236.135-.223-.003-.446.005-.668.067-.279.078-.557.237-.835.361-.013.006-.026.016-.039.019-.341.086-.682.182-1.023.252-.177.037-.354.022-.531.045-.311.042-.623.109-.934.136-.157.013-.314-.039-.472-.063-.223-.034-.446-.061-.669-.107-.068-.015-.137-.105-.206-.122-.111-.029-.222-.015-.334-.04-.134-.03-.269.014-.402-.195-.016-.025-.033-.018-.049-.018-.19-.007-.381.029-.57-.027-.21-.062-.419-.207-.629-.315-.026-.013-.052-.032-.079-.04-.299-.085-.595-.414-.89-.855-.042-.063-.084-.167-.124-.308-.135-.469-.274-.655-.414-.864-.126-.19-.252-.428-.375-.803-.082-.248-.165-.434-.247-.664-.098-.275-.197-.528-.293-.865-.065-.227-.125-.58-.187-.882-.009-.043-.02-.102-.023-.182-.027-.585-.077-.896-.127-1.221-.012-.054-.018-.141-.025-.215z"/></svg>