<svg id="Layer_1" enable-background="new 0 0 500 500" viewBox="0 0 500 500" xmlns="http://www.w3.org/2000/svg"><path clip-rule="evenodd" d="m418.21 202.337c-.454 1.514.429 1.619-.458 2.959-.439.664-2.027 3.96-2.774 4.242l-1.518.391c-.237.306-.211-.178-.285 0l-2.032.614c-1.048.473-2.826-.152-4.047.726-.234.169-.166-.149-.514.056l-2.043.391c-1.424.428-.933.524-2.78.67-3.533.279-2.026-.156-4.962-.837-.928-.15-1.206-1.569-1.635-2.121-.472-.606-1.081-2.573-1.262-3.405l-.34-2.791.491-1.842c.345-.245.304-1.547.843-1.284.276.135.497-.726.798-.67.548.102.484-.314 1.077-.893.151.167.296-.335.435-.558.089-.167.179-.056.257-.056.537-.669 1.534-.692 2.25-.502.095 0 .195-.112.29-.112l2.484-.056c.448-.066.445-.348 2.093-.167.128 0 .274-.168.402 0 .234.299 1.582-.597 3.126-.112 3.651 1.136 2.919.924 6.72 1.507.221-.277.22.481.307.502 1.212.526 1.322 1.468 2.026.725.142 0-.007.726.396.726.017.056.034.056.05.056.244-.51.803.445.605 1.841zm-311.368 2.679c-.006 2.177.093 1.832-.843 4.187-.847 0-.695.661-1.608.837l-.446.503c-.067 0-.14-.056-.212.223-.005 0-.017.056-.017.056-.156-.167-.301.279-.441.558l-.38.056c-.566.809-1.687.616-2.171.503-.651-.152-4.768.546-5.381.279l-1.513.279c-1.507.288-4.02-1.315-6.096-1.228l-2.439-.391c-.197.187-.239-.464-.324-.558-.18-.201-.965-.164-1.485-.949-.248-.374-.598.717-.675-.056l-.357-.447c-.349.524-1.066-1.346-.491-2.065-.011-.056-.017-.112-.022-.112.046-1.585-.305-1.532.363-2.623 1.295-2.115 1.956-4.577 4.248-4.577.163-.181.296-.263.368-.056l3.589-.837 1.686-.056c.614-.142.54-.553 2.54-.67.095 0 .184-.167.274-.167 1.243 0 1.138-.338 2.997-.726 2.787-.357 3.021.244 4.131.391 2.715.178 2.563 1.706 3.215 2.512.768.948 1.42 3.714 1.49 5.134zm29.779 75.689c-.25 0 .158.773-.061.949-.327.261-.073 1.339-.073 1.34.022 0 .028 0 .011 0-.195 0 .034.446.123.726-.497.801.238.922-1.217 2.009-.781.746-1.54 2.181-3.204 3.628-.444-.074-.443 1.367-1.97 2.121-1.186.586-2.393.968-3.36 1.898l-1.998 1.284c-.108.18.03.365-.469 0-.232-.17-1.216.426-1.775.223-.422-.154.117.874-.474.391-.333-.272-.536-.112-.536-.112.139.617-1.602-.224-1.792-1.172-.034 0-.067 0-.084 0-1.063-1.212-1.292-.898-1.624-2.121-.281-1.033-1.634-4.043-1.083-4.968l.536-1.005c.17 0-.162-.323.195-.223.747-1.401.776-1.789 1.719-2.847 1.596-1.815.788-1.1 1.317-2.121.16-.307 1.333-1.675 1.714-2.847.165-.507 1.905-2.958 2.752-2.958.082-.025 2.172-1.886 3.628-.949.567.365 2.646.42 5.492 2.959l1.345 1.34.274.558c.538.617-.126.191.686 1.395zm1.245-154.113c.654 1.092-1.417 4.846-1.915 5.917-.079 0-1.981 2.735-2.562 2.735-.441.112-2.142 1.297-2.322.781-.09-.258-.788.157-1.016-.112-.351-.415-.965-.012-1.049-.112l-.335.056c0-.223-.424 0-.698.056l-.318-.167c-1.103 0-1.037-.431-1.462-.67-.179-.112-.274-.279-.346-.447l-2.506-2.065-1.334-1.34c.029-.315-1.502-.908-1.847-1.451-.995-1.566-1.223-2.96-2.601-4.354l-1.351-1.954c-.318 0 .181-.449.156-.614-.061-.417-.528-.91-.324-1.675.111-.414-.948.082-.418-.502.162-.167.162-.223.151-.223-.017-.112-.022-.223-.034-.279-.753 0 .4-1.842 1.105-1.842 1.197-1.232.893-1.336 2.16-1.675 1.414-.377 3.462-1.298 4.901-1.116l1.211.726c.583 0 .156.254.324.223.353-.066.853.478 1.183.67l1.194.614c1.111.774 1.11 1.515 2.763 1.954.276.046-.087.205.396.279.076.012 1.443 1.206 2.623 1.563 1.031.312 3.589 2.937 3.522 3.684 0 .056.017.056.028.056.503.559.392.176.687 1.228.011.001.017.056.034.056zm246.608 162.095c-.624.892.596.167-.106 1.228-.199.301-.682 1.172-1.206 1.172l-1.183 1.284-4.041 1.395c-1.203.237-1.452.382-2.484-.279-.615-.394-.686-.113-.575-.391.028 0 .011 0-.039 0-1.042.05-3.587-2.959-4.856-2.959-.243 0 .085-.207-.374-.279l-.743-.558c-.073-.056-.223 0-.273-.056-.556-.595-.807-.545-1.423-.781-1.048-.545-3.512-2.608-3.338-3.461.011-.056-.005-.056-.017-.056-1.396-2.625-.644-1.704-.195-3.796.319-1.487 2.683-5.066 4.008-5.861l2.149-1.06c.385.459 1.069-.012 1.245.223.329.439.941-.027 1.016.056h.324c-.011.167.407-.056.681-.167.781.601.96-.312 2.009 1.228.918 1.042 2.265 1.668 3.595 3.182-.027.264.927.524 1.608 1.228.284 0 1.62 3.582 2.506 4.242l1.133 1.786c.471 0-.061.5-.062.614-.001.336.491.878.262 1.619-.131.425.915-.166.379.447zm-21.451-156.513-.441-.837c.094-.357-.917-1.239-.341-1.507.276-.128-.161-.742.101-1.005.486-.486.027-.942.123-1.061.045-.056.134-.056 0-.335-.017 0-.017 0-.011 0 .206 0-.017-.446-.095-.726.417-.716.104-1.423 1.34-2.177l1.842-2.01c.037-.048.486-.994 1.328-1.619.101-.056.106-.279.313-.223.339.045.711-1.634 2.116-2.289.87-.405 3.247-1.557 3.779-2.288l1.915-1.228c.144-.206-.053-.426.486-.056.345.237.99-.502 1.853-.279.478.124-.119-.979.514-.391l.558.056c-.093-.621 1.492.247 1.73.893l1.412 1.507c.302.492 1.646 4.766 1.412 5.805l-.714 1.284c-.103 0 .022.438-.212.279-.045-.056-.05 0-.045 0l-1.005 1.842c-.987 1.685-1.857 1.749-2.305 3.405-.042.28-.205-.088-.301.391l-.62.781c-.045.112-.017.223-.078.335-.607.771-.346.108-.91 1.563l-2.082 2.623-.871.502c-.259.103-.217.446-.826.446-.669.742-2.127 1.156-2.981.726-.556-.28-1.83-.519-3.444-1.34l-3.031-2.233zm-84.737 167.677c.659-.112 1.306-.335 1.965-.503 3.977-.775 9.559-1.024 13.424-.335l6.045 1.172c0 4.035.744 10.573 1.429 14.513.263 1.514.961 8.613.664 9.656-.453 1.595 1.641 14.128 1.758 18.308.204 7.167 2.626 40.758 2.462 42.142-.393 3.314.285 6.907.564 10.382.134 1.674.207 3.349.346 4.968l3.645 35.109c.541 4.831 8.429 7.331 12.844 19.648l-21.674-.112-16.5-69.66-10.929-44.598-4.901-18.811c-2.002-7.818-13.365-7.451-14.853.558-.19 1.005-.374 2.01-.558 3.014-1.178 6.14-1.859 12.28-3.198 18.42-.787 3.572-1.323 7.368-1.976 11.052l-7.463 42.477c-.821 4.912-1.63 9.824-2.445 14.792l-7.379 42.142h-13.977c-2.702.056-5.42.112-8.11.112-1.222-.056-2.428-.056-3.645-.056-.287-3.668-.179-2.859 2.93-6.252.765-.837 1.524-1.73 2.211-2.623 1.395-1.842 2.551-3.628 3.611-5.414l1.178-4.577 2.919-18.364c.437-3.151 1.356-6.922 1.669-10.215.379-4.019.558-7.926 1.273-12.057.034-.223.056-.447.056-.614.014-3.295 1.019-7.101.977-11.108l1.68-18.42c.779-8.292.609-14.669 1.206-22.494.206-2.699.749-9.947.424-12.447-.469-3.517-.553-7.257-.503-11.164.029-4.432-.728-3.641-.686-7.479 0-.447.017-.949-.017-1.34 1.82-1.4 2.698-1.581 4.075-2.568 1.807-1.295 3.661-2.504 5.654-3.349 2.686-1.139 4.343-4.13 4.03-7.2l-2.171-16.578c.222.101.18-.103.318-.223.084-.056.195 0 .268-.056l4.259-2.344c2.033-.924 4.522-1.273 6.084-2.289.338-.219 1.268-1.106 1.73-1.172l2.484-1.116c.218-.112.396-.335.62-.447l2.741-1.228.296 29.974c.08 5.776 6.944 9.062 11.537 5.191.876-.726 1.674-1.563 2.596-2.177 2.683-1.952 5.77-3.292 9.013-4.24zm-72.613 151.656.039-.056c-.017 0-.033.056-.061.112zm.173-.39h-.006zm10.895-147.415c3.065-3.85 4.887-5.178 8.518-8.428-.19-1.563-.81-3.014-1.317-4.521-.307-.949-.357-1.954-.553-2.903l-1.485-6.531c-2.322-9.746-4.86-31.636-4.739-42.198l.653-15.517-3.628 8.931c-1.81 5.081-3.356 11.321-4.264 16.522-1.957 11.203-2.376 17.59-2.607 28.523-.024 1.608.403 2.889-.234 4.242-.398.844.111 15.592.078 17.415-.136 2.68 1.514 6.691.837 7.591-.589.785.452 5.438.558 6.363 1.883-1.883 1.805-3.063 2.674-3.851zm24.008-114.482.14-.391c.34.424 2.412-.081 2.93-.223l.865-.446c.529.098.653-.061 1.172-.279.106-.056.24 0 .346 0 1.25-.139 8.095-3.68 8.518-3.851 1.648-.626 1.784-.463 3.41-1.284-1.583 2.248-3.006 7.298-3.321 9.991-.736 6.279-.6 10.643-.564 17.192l.346 45.938c-1.182 0-1.581.35-1.836.391l-.882.056c-.207.056-.402.167-.614.224-.123 0-.279-.056-.402 0-2.16.775-.642-.085-3.684 1.395-2.842 1.383-3.632 2.587-5.029 3.181-.134.056-.218.223-.341.335l-2.132 1.34c-1.214 1.3-1.82 1.585-3.5 2.624l-1.714 1.228c-1.92-17.764-3.281-31.823-.642-49.845 1.463-9.991 1.577-9.875 4.052-18.699.256-.913 1.517-5.692 2.065-6.084l-.112-.112zm-45.196 70.219-2.69-3.182-3.639-5.191-3.198-3.237-4.583-5.47-4.527-5.861-.988-.782c-.134-.167-.14-.391-.363-.446-.391-.112-.927-.112-.982-.447-.606 0-.228-.446-.932-.446-.546 0-.909-1.191-1.959-1.563l-.709-.726c.625-.643 1.599-2.042 2.244-2.4 1.471-.818 5.65-4.595 6.341-5.247l4.075 7.256 5.308 4.745 5.872 3.74c.876.305 1.02.874 2.718.726l.614.223c.279-.112.603-.391.809-.335-.744 4.136-1.6 9.059-1.937 13.229-.156 1.73-.497 3.516-.396 5.303l-.179 1.172zm-35.232-44.934c4.587 8.023 3.475 16.932 14.016.391.227-.356.54-.54.206-.782-.703-.51-3.591-5.025-4.225-5.972-2.535-3.786-.416-5.349.815-8.54.928-2.407.744-6.062-.899-8.149-.573-.728-1.671-1.82-2.528-2.065-1.576-.451-.802-.643-3.204-.893-2.41-.251-4.884.644-6.386 2.623l-1.557 2.791c-1.473 3.319-.316 12.134.988 15.071zm184.26-167.676c-3.063-7.427-8.303-13.407-16.338-15.461-2.116-.541-5.92-.96-8.094-.726-2.716.293-2.14-.15-5.147.558-11.002 2.592-18.637 12.103-19.637 23.108-.131 1.439-.125 4.641.145 6.028.976 5.014 1.893 7.026 4.845 10.605 1.538 2.022.644 1.017 2.718 2.4-.404 1.644.102 2.751-.329 4.019l-.352 1.898c-2.233-.502-4.482.837-5.113 3.07-1.054 3.885-2.394 8.981-3.645 12.503-1.915 5.391-4.981 20.38-6.363 26.737l-4.99 20.597c-.047-.954-.785-2.063-.759-2.456.062-.928-.546-1.641-.994-2.791-4.357-11.206-14.549-17.378-26.374-16.02-5.073.583-2.427 1.178-2.434 1.451-.013.479-.663.484-.24.893.034.056.073.056.106.112l-1.563.558c.494.925 2.846 2.018 4.264 1.842.031-.002 1.783.425 1.887.893.195.882 2.551.423 3.567 1.451.185.188 6.26 4.814 6.201 5.917-.05.94.541.98 1.055 1.73 6.063 8.835 5.183 20.723-3.31 27.63-2.516 2.046-4.665 2.959-7.68 4.019-1.387.488-4.815 1.116-6.458 1.116l-3.572-.223-1.753-.614c-7.858-2.369-13.947-9.493-14.295-17.75-.017-.503-.195-1.005-.123-1.507.697-4.592.013-2.779 1.552-7.647l1.323-3.461c.195-.391.603-.67.742-1.116.113-.346.497-1.973 1.055-2.177.664-1.533 1.017-.87 1.284-1.954.241-.978 4.004-3.231 4.945-4.075 1.368-1.225 3.633-1.261 4.114-1.953 1.01-1.455 2.548-1.17 3.031-1.953.438-.711 1.028-.382 1.144-.614.229-.502.62-.67 1.027-.893-1.496-.925-1.793-2.825-4.231-3.405-2.483-.59-6.107-.734-8.574-.112-1.27.32-5.128 1.201-6.101 1.73-3.413 1.858-3.88 2.148-6.832 5.024-2.714 2.644-5.336 6.39-6.592 9.991-.53 1.518-.754 1.104-1.619 4.298-2.942 10.869-.883 21.333 6.252 30.253 3.225 4.033 7.387 7.184 12.079 9.266-3.163.106-4.773 2.153-6.765 4.298l-.29-.223c-.412 1.311-.147.564-1.105 1.73-.994 1.228-1.993 2.456-3.131 3.572l-3.935 5.359c-7.244 10.022-13.089 21.196-16.857 32.988l-1.535-1.34-2.791-1.507c-1.047-.157-2.814-1.888-3.031-1.954-.545-.164-.156-.344-.463-.391-.64-.098-.707-.614-1.139-.614-1.498-1.498-1.354-1.904-3.422-3.628l-1.312-1.228c-.179 0 .193-.335-.201-.335l-1.116-1.116c.44-3.012-1.526-5.074-3.159-7.759l-1.552-2.679c2.58-5.672 3.043-11.207.804-17.248-2.98-8.037-10.325-13.508-18.939-13.508-.547 0-1.088-.056-1.635-.056-1.836-.056-3.567.614-5.364.837-2.026.231-6.283 2.614-7.982 3.907-7.812 5.946-9.859 16.631-8.395 25.732l1.217 5.47c1.841 5.161 1.818 5.338 4.884 9.545.296.446.48.949.887 1.284.681.558 1.513.949 1.898 1.73.017.056.056.056.1.112.441.168.631.503.882.837.779 1.019.33-.077 1.881 1.619 1.126 1.231 2.674 1.974 3.466 3.461l8.149 15.294.887 1.395c.079.653.601 1.16.899 1.674.089.168.112.391.212.558 1.921 3.184 3.519 4.94 6.056 7.479l2.858 2.791c.134.168.363.224.513.391l2.227 2.288 2.037 1.563 3.957 3.963 4.03 3.126c.301.167.424.558.86.558.285 0-.245.164.458.447.487.196 2.614 2.246 4.203 2.512l2.501.223c0 10.096.941 16.778 3.5 26.681 1.289 4.989 5.731 19.265 7.295 19.145.726-.112 1.463-.279 2.138 0l2.947-.949c2.242-1.019 4.643-2.202 6.595-3.719-.897 3.061-.014 12.869-.148 15.552-.346 2.623-.709 5.247-1.139 7.815-1.299 7.642-2.105 17.509-3.701 24.672-.274 1.228-.513 2.567-.709 3.851-2.741 17.766-4.903 32.073-8.256 49.622l-3.405 18.085c-.475.991-3.053 4.024-4.069 5.079-5.73 5.953-7.023 9.545-6.095 18.476l.921 6.196c.748 3.468 3.738 5.973 7.485 5.973l38.302.167c3.729 0 7.033-2.679 7.686-6.531l13.134-77.14 4.761-29.416c9.446 35.612 18.039 71.185 27.256 106.779.653 2.512 2.975 4.41 5.721 4.354l27.183-.279 8.183-.056c3.037-.167 5.364-2.735 5.225-5.749-.814-17.538-14.648-28.748-14.903-29.304-.686-2.305-4.234-35.784-4.633-39.63-1.648-16.901-3.657-32.459-6.28-49.175l-5.704-33.1c-.586-3.014-1.144-6.084-1.887-8.986l.363.167c1.792.502 3.522 1.284 5.269 2.009 4.037 1.604 7.287 3.475 10.974 5.693 2.414 1.453 4.181 3.224 7.206 2.623 3.321-.614 5.509-3.796 4.89-7.089-4.254-22.736-9.907-58.2-11.549-82.052-.179-2.847-.352-5.693-.53-8.484l.067-10.27c.436-2.475.358-5.01.625-7.647l3.21-25.397 3.684-29.081 4.019-36.002c.115-.926 1.36-10.094.681-9.433-.407.614-.463 1.619-.91 2.009-.52-.744-.432-1.516-.815-.614-.045.112-.095.223-.162.279.177-1.636.783-3.097.798-3.461-2.429 3.193-2.473 2.13-3.517 6.363-.553 2.289-1.116 4.633-1.418 6.977-.144 1.185-1.424 6.789-1.943 7.479-.976 1.302-1.914 10.919-2.852 14.345-1.611 5.84-3.372 14.609-4.599 20.708-.425 2.112-1.939 10.891-2.456 12.001-1.035 2.219-1.181 5.505-1.635 8.094-1.825 10.389-5.178 32.363-4.728 43.873.062 2.344.084 4.689.234 7.033.597 9.25 1.174 18.459 2.305 27.686l1.434 12.615 4.075 29.528c-10.661-5.1-24.099-8.525-36.053-6.475-4.95.849-5.9 1.23-10.527 2.902l-.061-38.235c-.05-3.907-.106-7.87-.156-11.833l-.028-20.262c-.001-4.787-.437-21.514 1.066-25.341 1.076-2.738 3.871-5.831 5.85-7.926 1.418-1.502 9.373-10.161 10.488-12.392 5.522-11.044 8.545-20.655 10.7-32.43.435-2.376 1.396-5.566 1.703-8.038.402-3.182.564-6.308 1.323-9.545.044-.167.061-.335.061-.502.023-2.47 1.096-5.501 1.133-8.652.021-1.785 2.052-12.927 2.322-14.289.564-2.847.977-5.638 1.373-8.484 8.599 2.52 8.189.946 15.59 2.679 3.1.726 3.139.071 6.101.782.452.112 1.094.279 1.407.223 1.2-.056 2.523.223 3.974.391-2.311-1.017-1.889-1.281-2.59-1.73-.915-.503-1.887-1.061-2.071-1.674l-4.415-2.4c-4.231-2.028-9.693-4.124-14.139-6.028l2.813-3.628c1.627-2.925 1.877-1.734 3.555-6.028 1.443-3.691-2.262-6.249-3.622-8.763l-1.44-2.847c.089-1.274-1.035-1.902.262-6.921 1.388-5.372 6.161-9.481 12.28-8.54 1.623.25 4.87 1.078 6.626 2.958.72.726 1.328 1.507 1.848 2.4.016.081-1.906 14.3-1.736 15.182.076.425-.341.165-.251 1.395.072.987-1.157 7.417-.793 10.605l1.295 8.484c.293 1.198.709 5.496 1.423 5.358.328-.063.126-.772.96-.223.133.087.167.352.464.056.022 0 .067-.056.1-.056l.452 1.34c.123-.056.223-.112.268-.112.676-.689 1.976-1.437 1.736-3.293 0 0 .273-1.539.731-1.674.874-.258-.006-2.083.608-3.238 1.043-1.96 1.947-7.136 2.361-7.368.8-.448.476-1.22.625-1.786l3.489-17.359 1.63-7.089c.299-1.326.16-2.566-.429-3.905z" fill-rule="evenodd"/></svg>