<svg id="Layer_1" enable-background="new 0 0 500 500" viewBox="0 0 500 500" xmlns="http://www.w3.org/2000/svg"><path d="m423.651 132.956c-.628-9.936-8.263-20.098-19.029-19.404-1.084.171-6.842.134-5.035 1.728-.067.351-.509.711-.106.962-.41.209-.813.113-1.116.57 1.085 2.189 3.225 1.051 4.225 2.369.149.666 1.007.33 1.506.56 1.51.442 2.486 2.031 3.699 2.987.477.463 1.129 1.036 1.265 1.691.601 1.926 2.417 3.525 2.703 5.754 1.77 6.533-1.889 13.733-8.43 15.753-4.615 1.974-9.931 1.35-13.658-2.151-6.139-4.637-4.85-13.508-1.665-19.358-.02-.363.211-.51.405-.682.391-.377.314-1.149.914-1.417 1.6-1.263 3.061-2.895 5.125-3.35.554-.573 1.009-1.438 1.795-1.549.225-.076.437-.192.584-.519.173-.523.558-.292.804-.569.159-.475.439-.587.727-.805-2.11-3.083-3.082-3.755-7.017-4.003-6.119-.238-11.815 2.808-15.363 7.776-8.619 11.503-5.747 29.172 6.491 36.95-4.519 6.312-6.344 14.084-8.265 21.42-1.118 3.81-2.845 7.63-3.572 11.505-1.421 2.942-1.091 6.361.224 9.417-6.661-1.459-14.516-3.239-20.99-1.584.479.247 1.286.122 1.647.509-.457.544-1.5.582-.212.952-1.244.126-2.593.042-3.75.502 3.626 1.547 7.714 1.909 11.585 2.502 7.26 2.31 14.639 4.827 20.722 9.742 27.833 19.954 33.058 62.969 7.49 87.051 3.593-16.588-5.746-34.651-21.198-41.597 12.839-12.104 7.012-35.854-9.266-41.977-9.12-3.266-20.184-1.107-27.265 5.57-10.316 9.508-12.165 29.073.363 37.367-15.422 7.447-24.825 26.59-19.257 43.106-26.499-21.68-23.582-64.086.513-86.383 10.288-9.024 23.531-13.102 36.314-16.668-2.722-.656-4.894-2.597-7.697-2.714 6.716-8.592.261-21.931-1.404-31.474-1.688-4.631-1.851-9.846-3.628-14.478-.424-2.07-.855-4.615-2.38-6.342 10.733-4.019 18.942-14.699 17.534-26.458-.698-8.526-6.196-17.876-15.348-19.103-1.338-.459-10.709-.561-8.715 1.427-.068.351-.509.71-.106.961-.41.209-.813.113-1.116.57 1.086 2.188 3.225 1.052 4.225 2.369.149.667 1.007.33 1.506.561 1.51.441 2.485 2.031 3.699 2.987.477.463 1.129 1.036 1.265 1.691.602 1.926 2.417 3.525 2.703 5.754 1.769 6.533-1.889 13.733-8.43 15.753-4.615 1.973-9.931 1.351-13.657-2.151-6.14-4.636-4.85-13.509-1.665-19.358-.021-.363.211-.511.405-.682.391-.377.314-1.15.915-1.418 1.6-1.263 3.06-2.895 5.125-3.35.553-.574 1.009-1.439 1.795-1.549.226-.076.438-.192.584-.519.173-.523.558-.292.804-.569.159-.475.439-.587.727-.805-3.171-5.965-11.781-4.354-16.818-1.522-5.805 3.832-9.259 10.414-10.345 17.168-5.212-.344-10.202 1.454-15.024 3.037-3.924.94-7.845 1.702-11.513 3.172-5.62-28.979-34.575-52.505-64.151-48.101.479.247 1.286.122 1.647.509-.456.544-1.499.582-.211.952-1.245.126-2.593.042-3.751.502 3.626 1.547 7.714 1.909 11.585 2.502 7.26 2.31 14.638 4.828 20.722 9.742 27.833 19.954 33.058 62.969 7.49 87.051 3.594-16.588-5.746-34.651-21.198-41.597 12.839-12.104 7.012-35.854-9.266-41.977-9.12-3.266-20.184-1.106-27.266 5.57-10.315 9.508-12.165 29.073.363 37.367-15.422 7.446-24.826 26.591-19.257 43.106-26.499-21.68-23.582-64.087.513-86.383 10.288-9.024 23.531-13.101 36.314-16.668-16.694-7.888-39.039 2.04-51.142 14.639-2.39-2.805-6.215-4.062-9.335-5.552-1.436-.593-2.649-1.777-4.096-2.426-1.152-.413-1.96-.939-2.979-1.374 4.957-10.723 1.26-26.819-10.69-30.982-1.396-1.001-13.457-1.599-11.326.794-.068.351-.508.71-.106.962-.41.209-.813.113-1.116.57 1.086 2.189 3.225 1.051 4.225 2.369.149.666 1.007.33 1.506.56 1.51.441 2.485 2.031 3.699 2.987.477.463 1.129 1.036 1.265 1.691.602 1.926 2.417 3.525 2.703 5.753 1.769 6.533-1.888 13.732-8.43 15.753-4.615 1.973-9.931 1.35-13.658-2.151-6.139-4.636-4.85-13.508-1.665-19.358-.021-.363.21-.511.405-.682.391-.377.315-1.15.915-1.418 1.6-1.263 3.06-2.895 5.125-3.35.553-.574 1.009-1.438 1.795-1.549.226-.076.438-.192.584-.519.173-.523.558-.292.804-.569.159-.475.439-.587.727-.805-3.863-6.814-14.712-4.104-19.49.627-5.692 5.232-8.421 13.297-7.865 20.928 1.521 21.028 28.798 31.344 44.034 16.972 2.107 1.905 3.962 3.94 5.753 6.159 2.888 1.73 5.74 3.703 8.535 5.673-11.055 18.106-13.67 41.358-5.608 61.137-2.149 1.097-4.746.879-6.846 2.089-.973 1.033-2.373 1.227-3.577 2.02-1.889 1.689-5.347 1.928-6.021 4.512-4.455-4.622-12.142-6.14-18.066-3.931-.512.323.205.433.327.769-.068.354-.508.709-.106.961-.41.209-.813.113-1.116.57 1.086 2.189 3.225 1.052 4.225 2.369.149.667 1.007.33 1.506.561 1.51.441 2.485 2.031 3.699 2.987.477.463 1.129 1.036 1.265 1.691.603 1.926 2.416 3.525 2.704 5.754 1.769 6.533-1.889 13.733-8.43 15.753-4.615 1.973-9.931 1.35-13.657-2.151-6.139-4.636-4.85-13.508-1.665-19.358-.02-.363.211-.511.405-.682.392-.377.314-1.15.915-1.418 1.6-1.263 3.061-2.895 5.125-3.35.553-.574 1.009-1.438 1.795-1.549.226-.076.438-.192.584-.519.173-.523.558-.292.804-.569.159-.475.439-.587.727-.806-2.877-5.562-10.344-4.373-15.32-2.343-6.342 3.276-10.421 10.101-11.617 17.003-3.943 17.304 13.24 33.276 30.214 30.347.013 1.299.315 2.549.496 3.801-.121.409-.533.749-.19 1.06 1.042 3.515 1.748 7.195 2.814 10.721 1.336 7.404 3.436 14.518 5.865 21.568 2.47 6.287 3.819 13.055 6.869 19.02.971.57.994 1.549 1.777 2.158.799 1.226 1.339 2.683 2.237 3.895-33.529 8.249-52.382 46.795-44.137 79.234 10.692 46.913 70.058 68.506 108.211 39.081 3.009 3.407 4.855 7.827 7.741 11.365 2.532 2.296 4.708 5.102 7.148 7.634.773.697 1.231 1.753 2.209 2.296.407.198.83.347 1.096.712-18.217 23.921 11.055 53.932 35.577 37.581 14.711-8.307 16.02-33.314.35-41.113-1.244-1.511-15.219-2.446-12.877.179-.067.351-.509.71-.106.962-.41.209-.813.113-1.116.57 1.086 2.189 3.225 1.051 4.225 2.369.149.666 1.007.33 1.506.56 1.51.441 2.485 2.031 3.699 2.987.477.463 1.129 1.036 1.265 1.691.602 1.926 2.417 3.525 2.703 5.753 1.769 6.533-1.888 13.732-8.43 15.753-4.615 1.973-9.931 1.35-13.658-2.151-6.139-4.636-4.85-13.508-1.665-19.358-.021-.363.21-.511.405-.682.391-.377.315-1.15.915-1.418 1.6-1.263 3.06-2.895 5.125-3.35.553-.574 1.009-1.438 1.795-1.549.226-.076.438-.192.584-.519.173-.523.558-.292.804-.569.159-.475.439-.587.727-.805-.593-.6-1.21-1.475-1.724-2.38-2.56-2.001-6.37-1.887-9.41-1.145-1.862-6.077-7.474-10.108-12.04-14.028-2.878-2.85-5.699-5.7-8.813-8.142 9.174-9.021 15.817-20.678 18.503-33.285.2.25.531.103.609.423.126.772.547.194.938.554 4.364.872 8.568 2.134 12.794 3.532 4.468.375 8.888.993 13.409 1.556 1.841.305 3.394.561 5.234.13.591 16.854 19.319 28.483 34.907 23.108 17.428-5.949 24.166-28.294 10.814-41.682.063-.129.555-.476.709-.394.409.156.49.064.493-.09 1.087-1.406 2.563-2.655 3.631-4.122 1.567-1.596 3.551-2.851 4.748-4.779.295-.648.554-1.396 1.065-1.877 1.946-2.667 3.821-5.524 5.564-8.309 46.326 27.093 107.278-9.799 103.134-63.681-1.423-23.661-16.137-47.113-39.005-55.173-.209-1.395 1.471-1.882 1.826-3.111.307-.161.244-.557.594-.587.667.008.433-.282.576-.607 2.804-6.199 6.979-11.866 8.928-18.357 1.8-4.478 3.575-9.07 5.107-13.628-.022-.622.132-1.178.261-1.764-.176-.408-.327-.812-.171-1.097-.258-.345.109-.442-.024-.762 15.715 2.757 32.018-11.369 30.054-27.548zm-88.134 108.018c-.486-8.096 7.191-15.968 15.396-13.765 6.361.619 10.641 7.364 10.748 13.394.233 4.949-2.836 9.084-5.637 12.951-4.726-.849-9.668-1.051-14.385-.046-2.602-3.744-6.221-7.677-6.122-12.534zm-75.023-66.8c9.038-12.567 13.082-28.349 11.928-43.727.386.955 6.344-.209 7.776.12 2.761.405 5.466.095 8.055-.592 3.507-.627 7.701-.994 10.98-2.142 3.925 9.823 14.165 16.232 24.628 16.181-.098.684.193 1.505-.145 2.092-.387.257-.365.462-.245.658.414 2.905.472 5.937.909 8.86.099 7.168 1.092 14.146 2.746 21.092.884 4.243 1.075 8.669 2.734 12.626.526.431.881.972 1.02 1.479-.025.26.48.404.562.643.174 1.302 1.135 2.281 1.374 3.514-12.549 1.11-24.919 6.33-34.103 15.047-.39-.602-1.158-1.062-1.299-1.752.124-.452-.033-.604-.26-.685-2.307-2.08-4.42-4.484-6.757-6.563-4.622-5.431-9.904-9.962-15.384-14.454-4.504-2.979-8.004-7.903-13.092-9.565-.551.097-.582-.482-1.154-.325-.577-.047-1.017-.544-1.498-.84.413-.552.828-1.104 1.225-1.667zm-8.102 9.544c4.589 8.86 14.23 13.798 21.716 19.894 4.482 2.668 8.152 6.753 12.702 9.365 1.681 1.329 3.624 3.046 5.885 3.53-14.133 17.229-18.967 41.744-12.327 63.036-13.594 1.181-25.993 8.741-38.242 14.233-5.874 2.745-12.147 4.916-17.844 8.044-4.138 1.503-8.128 3.862-10.947 7.436-7.589-18.303-24.525-32.177-44.128-35.348 11.833-7.439 12.058-27.984 15.502-40.455.839-6.797 3.279-13.44 4.052-20.274.864-3.42 1.677-7.216.749-10.807 22.446 5 46.647-2.502 62.882-18.654zm-59.902-67.213c-.486-8.096 7.191-15.969 15.396-13.765 6.361.618 10.641 7.364 10.748 13.394.232 4.949-2.836 9.084-5.637 12.951-4.726-.849-9.668-1.051-14.385-.046-2.602-3.744-6.22-7.677-6.122-12.534zm-17.505 64.712c.676-.598-.03-1.586.054-2.36.259-3.384.629-6.97 1.077-10.291 1.012-6.174 2.822-12.583 7.292-17.449 9.178-9.565 24.886-11.92 36.127-4.672 11.506 7.659 13.851 22.415 14.666 35.137-17.883 10.968-41.781 11.723-59.457-.062.029-.112.086-.217.241-.303zm-4.803 206.223c-16.005 6.087-34.648 4.463-49.014-5.01.102-.314.682-.509.52-.905-.691-2.972.445-5.863.497-8.85.039-1.03-.002-2.252.355-3.199.446-.379.48-.774.414-1.198.014-1.475.407-3.174.692-4.618 3.032-12.925 15.811-20.926 28.661-20.65 21.613 1.48 27.475 21.05 28.318 39.482-3.291 2.025-6.818 3.663-10.443 4.948zm-31.263-71.203c.25-7.22 6.693-13.948 14.148-12.805 6.886.19 11.924 7.022 11.991 13.613.232 4.949-2.836 9.084-5.637 12.951-4.726-.85-9.668-1.051-14.385-.047-2.9-4.036-6.661-8.372-6.117-13.712zm66.793 32.834c-2.427 9.74-7.882 18.573-14.96 25.632 3.594-16.588-5.746-34.651-21.198-41.597 12.839-12.104 7.013-35.854-9.266-41.977-9.119-3.266-20.184-1.106-27.265 5.57-10.316 9.508-12.165 29.072.363 37.367-15.422 7.447-24.825 26.59-19.257 43.106-26.499-21.681-23.582-64.086.513-86.383 10.289-9.024 23.531-13.101 36.314-16.668-6.241-2.803-9.504-3.501-16.467-2.535 3.805-11.693-5.105-25.997-8.604-37.123-2.704-5.522-3.955-11.786-6.745-17.294-1.01-3.121-2.333-6.527-4.981-8.782 10.685-4.901 17.206-17.092 14.296-28.652 1.26-.214 2.388-.593 3.608-.969 2.463-.944 4.21-3.073 6.41-4.358 1.591-1.608 3.97-2.457 5.74-4.043 8.389 14.234 22.219 25.024 37.943 29.987-2.799 5.072-4.389 10.575-6.085 16.285-3.496 9.055-6.095 18.3-8.075 27.771-1.432 6.794-4.615 13.717-3.494 20.529-.495 1.89-.133 3.82-.632 5.686.216.598.888 1.335.722 1.891-.1.245.338.602.531.806-3.778-.232-8.448-1.197-11.852.125.479.247 1.286.122 1.647.509-.457.544-1.499.582-.212.952-1.244.127-2.593.042-3.75.502 3.625 1.544 7.714 1.911 11.585 2.502 6.669 2.21 13.574 4.31 19.287 8.712 19.603 13.431 30.056 39.229 23.884 62.449zm95.342-37.61c-3.188 2.25-4.31 6.286-6.23 9.48-.502.844-.855 1.657-1.175 2.599-1.39 2.048-2.839 4.198-3.665 6.496-.991 1.279-1.676 3.269-1.038 5.051-1.294-.63-11.972-1.007-9.906 1.194-.067.351-.508.71-.106.961-.41.209-.813.113-1.116.57 1.085 2.188 3.225 1.052 4.225 2.369.149.667 1.007.33 1.506.561 1.51.441 2.485 2.031 3.699 2.986.478.464 1.129 1.036 1.266 1.691.602 1.926 2.416 3.525 2.703 5.753 1.769 6.533-1.888 13.733-8.43 15.753-4.615 1.974-9.931 1.35-13.657-2.151-6.139-4.637-4.85-13.509-1.665-19.358-.02-.363.211-.51.405-.682.392-.377.314-1.15.915-1.417 1.6-1.263 3.061-2.895 5.125-3.35.553-.574 1.009-1.439 1.795-1.549.226-.076.438-.192.584-.519.173-.522.558-.292.804-.569.159-.475.439-.587.727-.805-.595-.6-1.209-1.475-1.724-2.38-2.147-1.748-5.385-1.803-8.038-1.459-6.887.627-12.539 5.82-15.115 12.089-6.082-2.575-12.947-2.378-19.367-2.422-4.947-.22-9.93-1.22-14.767-.424.777-8.979-.458-18.044-3.058-26.62 1.482-.793 3.42-.41 4.945-1.168.474.062.866-.343 1.296-.151.406.296.68.201.928.011 2.554-.938 5.205-1.806 7.822-2.619 8.531-3.004 17.403-5.106 25.569-8.926 7.77-3.366 15.979-5.951 23.346-10.001.529-.707 1.155-1.201 1.852-1.548.709-.739 1.639-1.35 2.661-1.724 4.082 8.452 9.833 16.091 16.964 22.201-.026.027-.034.067-.08.077zm65.731-.462c-16.005 6.087-34.647 4.462-49.014-5.01.103-.314.682-.509.521-.905-.691-2.972.445-5.863.497-8.85.039-1.03-.002-2.252.355-3.199.446-.379.48-.774.413-1.197.015-1.475.407-3.174.692-4.618 3.032-12.925 15.811-20.926 28.66-20.651 21.613 1.48 27.475 21.05 28.319 39.482-3.291 2.024-6.818 3.662-10.443 4.948z"/></svg>