<svg id="Layer_1" enable-background="new 0 0 53 53" height="512" viewBox="0 0 53 53" width="512" xmlns="http://www.w3.org/2000/svg"><g><path d="m10.3 45.6c0 1.7.9 3.4 2.2 4.4.7.5 1.4.9 2.2 1 .4.1.8.1 1.2.1.9 0 4.5-.1 10.5-.3-3.1-.1-6.2-.2-9.4-.3-.8 0-1.6 0-2.3-.2s-1.4-.5-1.9-1c-1.1-.9-1.8-2.4-1.7-3.8l.1-5.1c2.4.4 4.9.6 7.3.7 2.6.2 5.2.2 7.9.2 2.6 0 5.2-.1 7.9-.2 2.4-.1 4.9-.3 7.3-.7l.1 5.1c0 1.4-.6 2.9-1.7 3.8-.6.5-1.2.8-1.9 1s-1.5.2-2.3.2c-3.1.1-6.2.2-9.4.3 3.1.1 6.2.2 9.4.3.8 0 1.6.1 2.4-.1s1.6-.5 2.2-1.1c1.3-1 2.2-2.7 2.2-4.4l.4-18.7.2-18.7c0-1.8-.9-3.7-2.3-4.8-.7-.6-1.6-1-2.5-1.2-.4-.1-.9-.2-1.4-.2-14.5 0-9.5 0-10.5 0h-9.4-1.2c-.5 0-.9.1-1.4.2-.9.2-1.7.6-2.5 1.2-1.4 1.2-2.3 3-2.3 4.8l.3 18.8zm24.1-6c-2.6-.2-5.2-.2-7.9-.2-2.6 0-5.2.1-7.9.2-2.4.1-4.9.3-7.3.7l.2-13.4.1-15.8c2.3.3 4.6.5 6.9.7 2.6.2 5.2.2 7.9.2 2.6 0 5.2-.1 7.9-.2 2.3-.1 4.6-.3 6.9-.6l.1 15.8.2 13.5c-2.3-.5-4.7-.8-7.1-.9zm-21.1-34.8c.5-.4 1.1-.7 1.7-.8.3-.1.6-.1.9-.1h1.2 9.4 10.5c.3 0 .6 0 .9.1.6.1 1.2.4 1.7.8 1 .8 1.6 2 1.6 3.3v2.7c-2.3-.3-4.6-.5-6.9-.6-2.6-.2-5.2-.2-7.9-.2-2.6 0-5.2.1-7.9.2-2.3.1-4.6.3-6.9.7v-2.7c.1-1.3.7-2.6 1.7-3.4z"/><path d="m30.1 7.5c1.2-.1 2.4-.3 3.6-.6-1.2-.3-2.4-.5-3.6-.6-2.2-.2-4.9-.2-7.2 0-1.2.1-2.4.3-3.6.6 1.2.3 2.4.5 3.6.6 2.3.2 5 .2 7.2 0z"/><path d="m28.2 43.9c-.5-.4-1.2-.5-1.7-.3 1.1.3 1.6 1.3 1.5 2-.1.8-.8 1.3-1.5 1.3s-1.3-.5-1.5-1.3c-.1-.8.4-1.7 1.5-2-.5-.2-1.2 0-1.7.3-.5.4-.9 1-.9 1.7-.1.7.2 1.4.7 1.9s1.2.8 1.9.8 1.5-.3 1.9-.8c.5-.5.7-1.3.7-1.9 0-.7-.4-1.3-.9-1.7z"/></g></svg>