<svg id="Layer_1" enable-background="new 0 0 68 68" height="512" viewBox="0 0 68 68" width="512" xmlns="http://www.w3.org/2000/svg"><g id="_x31_40"><path d="m27.6088448 22.5434933h.1293945v9.5048809c0 .4140625.3359375.75.75.75 5.3866768 0 10.8788338.1801414 16.3447266.1430664.4033203-.0029297.7319336-.3242188.7441406-.7270508.0950851-3.0902004.0370483-6.2497387.1217651-9.6708965h.1531372c.6455574 0 .9904709-.7657928.5600586-1.2485352-2.925293-3.2871094-5.8334961-5.875001-9.2006836-8.8710947-.2861328-.2553711-.7192383-.2519531-1.003418.0053711-3.9931641 3.6362314-6.3852539 5.9511728-9.1420898 8.8471689-.4549389.4774723-.11409 1.2670899.5429688 1.2670899zm9.1103515-8.550294c2.684082 2.390626 5.0805664 4.546876 7.4311523 7.0502939h-14.7788085c2.1499023-2.2070312 4.2583008-4.227539 7.3476562-7.0502939zm-7.480957 8.550294h14.9605713c-.0819511 3.3326015-.0312767 5.9094658-.1011963 8.9018555-1.2937012.0056152-2.6123657-.0026245-3.9332275-.0161133.0612793-1.2572632.0846558-2.6296387-.3475342-3.921875-.4887695-1.4614258-1.7900391-2.9443359-3.4804688-2.7773438-1.5371094.159668-2.5756836 1.6533203-2.9228516 3.0629883-.2944336 1.1928101-.2182007 2.4163208-.1049194 3.5436401-1.3688354-.0179443-2.7311401-.0330811-4.0703735-.0372925z"/><path d="m37.734333 16.7851925c-1.0830269-.8062906-2.4935341-.3577995-2.9589844.9438477 0 0 0 0-.0004883 0-.2524414.7075195-.0556641 1.5166016.4775391 1.9672852.7392197.6246738 1.9703293.4630489 2.6582031-.1821289.8411942-.7871076.7369729-2.0477849-.1762695-2.729004z"/><path d="m37.3441963 41.0249367c9.0698242 0 16.4487305-7.378418 16.4487305-16.4482403s-7.3789063-16.4487314-16.4487305-16.4487314-16.4482422 7.3789063-16.4482422 16.4487305 7.378418 16.4482412 16.4482422 16.4482412zm0-31.3969717c8.2426758 0 14.9487305 6.7060556 14.9487305 14.9487314s-6.7060547 14.9482403-14.9487305 14.9482403-14.9482422-6.7055664-14.9482422-14.9482403 6.7055664-14.9487314 14.9482422-14.9487314z"/><path d="m28.249958 54.3867531c4.2821655 5.3597298 7.0711517 9.8012505 9.0110474 10.5918617.9450645 1.3972473 23.3897705 1.3083191 23.3897705-.0687866 0-1.1907768-13.0672455-1.1138191-15.8627319-1.0153847 2.2932739-1.2468262 3.8848877-3.487915 5.3625488-5.6577148 6.9562302-10.2147331 14.1014061-21.2427216 13.7398071-33.9536743-.1766357-6.2092285-2.0975342-11.5061045-6.5001221-15.8881845-3.5408478-3.5243378-8.9780884-4.8356485-13.3451538-5.7992554l.1824951.0028687c-6.1002159-1.5473458-14.4111195-.0594046-20.7672119 4.9415894-5.4335938 4.2763672-8.7924795 11.0263681-8.765624 17.6162109.0389185 9.429284 7.6834917 21.8823327 13.5551748 29.2304696zm-3.8618164-45.6679678c22.0335083-17.3409042 55.7756996 9.9401789 15.6889648 53.637207-.9658203 1.0512695-1.4995117 1.5166016-2.2314453 1.246582-1.3731766-.5073166-4.8232841-5.6469269-8.4238281-10.1523438-5.59338-6.99963-13.1900444-19.2515259-13.2270508-28.2998028-.0249023-6.1386727 3.1142579-12.4345721 8.1933594-16.4316424z"/><path d="m4.6532793 18.5908566 7.0185547 1.8759766c.4083662.1074638.8129549-.1374226.918457-.5307617.1069336-.4003906-.1308594-.8115234-.5307617-.918457l-7.0195313-1.8759766c-.3989258-.1049805-.8105469.1308594-.9179688.53125-.1069335.3999022.1308595.8110351.5312501.9179687z"/><path d="m6.6674395 11.9140978 5.3144531 3.1381836c.3595419.2113228.8176384.0897312 1.0273438-.2646484.2104492-.3564453.0922852-.8164063-.2646484-1.0273438l-5.3144531-3.1381836c-.3544922-.2084961-.8154297-.0917969-1.0273438.2646484-.2104493.3569336-.091797.8164063.2646484 1.0273438z"/><path d="m14.6049395 10.4521837c.2053671.3592119.6640825.4840918 1.0234375.2783203.359375-.2055664.4838858-.6635742.2783203-1.0234375l-2.9003906-5.0708008c-.2055664-.3588867-.6621094-.4838867-1.0234375-.2783203-.359375.2055664-.4838867.6635742-.2783203 1.0234375z"/></g></svg>