<svg id="Layer_1" enable-background="new 0 0 68 68" height="512" viewBox="0 0 68 68" width="512" xmlns="http://www.w3.org/2000/svg"><g id="_x35_0"><path d="m2.94 25.5c.42.86 1.34 2.36 2.24 3.82.49.79.94 1.52 1.25 2.06-.2.05-.4.1-.6.15-.11.03-.2.08-.29.15-.03 0-.07 0-.13.03-.08.03-.16.12-.24.21-.03.03-.07.08-.1.12-.4.48-.57 1.1-.59 1.7-.03.66.14 1.32.32 1.96.3 1.12.61 2.24.91 3.36.35 1.28.11 2.31 1.74 2.07 2.09 7.75 3.86 14.65 6.08 21.88.32 1.04.69 2.15 1.56 2.79 1.06.78 2.53.63 3.83.41 2.52-.43 5-1 7.46-1.68 12.56-2.84 24.97-6.36 37-10.52 1.25-.43 1.96-1.67 1.69-2.95-1.62-7.77-3.41-16.04-5.77-24.26.07-.02.14-.04.21-.05.4-.1.64-.5.55-.9-.28-1.18-.57-2.4-.87-3.62-.29-1.22-.59-2.43-.87-3.61-.05-.2-.17-.37-.34-.47s-.38-.14-.57-.08c-.62.16-1.26.32-1.89.48-.16-.01-.32.03-.45.11-7.79 1.99-16.02 4.17-24.01 6.29-4.76 1.26-9.51 2.52-14.19 3.74 11.82-5.51 25.06-11.28 36.47-17.52.57-.31.98-.86 1.09-1.5.04-.2.06-.38.06-.51-.01-.02-.03-.03-.05-.05-.01-.12-.03-.23-.09-.34-.54-.91-1.24-2.17-1.93-3.42-.68-1.23-1.35-2.45-1.88-3.34-.21-.35-.65-.47-1-.28-8.66 4.67-17.18 8.71-25.43 12.61-6.75 3.2-13.73 6.5-20.85 10.18-.35.17-.5.61-.32.98zm5.29 6.14c-.05-.16-.07-.34-.07-.55 0-1.26 1.02-2.29 2.28-2.29.76 0 1.46.37 1.88.98.16.24.28.49.34.75 0 .01.01.01.01.01s0 .01 0 .02c.04.16.07.35.07.54 0 .86-.5 1.66-1.28 2.04-.31.16-.65.24-1.02.24-1.03 0-1.94-.7-2.2-1.7 0 0 0-.01-.01-.01s.01-.02 0-.03zm17.3-12.41c.19-1.45.39-2.9.53-4.16 2.04-.97 4.11-1.95 6.18-2.95.01 2.27-.35 5.71-.6 7.6-1.95.92-3.92 1.83-5.91 2.76-.21.1-.44.2-.65.3.13-1.11.29-2.33.45-3.55zm15.67-4.14c.12-2.41.14-5.35-.05-7.34 1.72-.86 3.45-1.75 5.19-2.66-.08 1.73-.34 4.36-.76 7.74-1.46.77-2.92 1.52-4.38 2.26zm-1.55.78c-2.12 1.05-4.25 2.08-6.4 3.09.3-2.47.56-5.58.48-7.5 0-.02-.01-.03-.01-.05 1.98-.96 3.98-1.93 5.98-2.93.15 2.14.09 5.12-.05 7.39zm-10.93 11.23c-.69 2.22-1.43 4.45-2.23 6.63-2.17.57-4.34 1.13-6.52 1.7.71-2.14 1.32-4.31 1.83-6.5 2.29-.6 4.6-1.21 6.92-1.83zm-10.49 8.78c-2.37.61-4.74 1.22-7.1 1.82l.38-1c.3-.8.6-1.6.9-2.39 1.12-.67 1.83-1.9 1.83-3.22 0-.06 0-.12 0-.18 1.95-.51 3.93-1.03 5.91-1.55-.54 2.2-1.18 4.39-1.92 6.52zm-8.87 2.27c-.29.07-.58.15-.87.22l-1.55-5.58.12-.03c.63 1.27 1.93 2.11 3.39 2.11.05 0 .11-.02.16-.02-.17.44-.33.88-.5 1.32zm3.78-9.72c-.54-.55-1.24-.92-2-1.06l.82-5.54c1.53-.75 3.06-1.49 4.57-2.22-.09 2.38-.28 5.07-.53 7.25-.01.07.01.13.02.2-.96.45-1.92.9-2.88 1.37zm50.47 22.92c.11.54-.18 1.04-.72 1.23-14.45 5-29.45 9.09-44.59 12.15-.58.12-1.1-.17-1.27-.74-2.85-7.56-5.2-15.78-6.98-24.46 5.63-1.42 11.33-2.9 16.97-4.37h.01c.13 0 .25-.04.36-.1 2.16-.56 4.31-1.13 6.45-1.69 7.9-2.07 16.04-4.2 24.01-6.21 2.36 8.18 4.14 16.43 5.76 24.19zm-17.62-28.8c-.42 2.22-1 4.42-1.75 6.55-2.32.6-4.62 1.2-6.92 1.81l1.84-6.56c2.28-.61 4.56-1.21 6.83-1.8zm-.02 6.1c.7-2.13 1.24-4.31 1.62-6.52 2.28-.59 4.53-1.18 6.76-1.75l-2.07 6.64c-2.1.54-4.2 1.08-6.31 1.63zm11.77-6.09c.24.97.47 1.94.7 2.89-1.48.37-2.96.75-4.45 1.13l2.07-6.64c.33-.08.66-.17.99-.25.23.94.46 1.91.69 2.87zm-26.28 3.82c1.99-.53 4.01-1.06 6.02-1.59l-1.79 6.39c-.02.05-.01.11-.01.16-.73.19-1.48.39-2.21.58-1.73.45-3.48.91-5.24 1.37.76-2.14 1.49-4.3 2.15-6.46.02-.05.01-.11.02-.16.35-.1.7-.2 1.06-.29zm18.17-23c.45.79.97 1.73 1.5 2.68.55.99 1.1 1.99 1.58 2.82-1.83 1.08-3.67 2.1-5.5 3.09.32-2.65.64-5.76.66-7.66.58-.32 1.16-.61 1.76-.93zm-25.17 12.44c-.12 1.01-.27 2.11-.41 3.21-.19 1.46-.39 2.91-.53 4.17-.01.1 0 .2.03.29-1.98.92-3.97 1.86-5.98 2.81.23-2.17.41-4.7.48-6.95.01-.16-.05-.3-.13-.42 2.2-1.04 4.38-2.08 6.54-3.11zm-14.13 6.81-.69 4.7v.07c-1.15.25-2.1 1.04-2.6 2.08-.18-.3-.38-.61-.58-.94-.65-1.05-1.36-2.2-1.82-3.04 1.9-.99 3.8-1.94 5.69-2.87z"/><path d="m26.66 46.22c0 5.31 4.32 9.64 9.64 9.64 5.31 0 9.64-4.32 9.64-9.64s-4.32-9.64-9.64-9.64-9.64 4.32-9.64 9.64zm9.63-8.14c4.49 0 8.14 3.65 8.14 8.14s-3.65 8.14-8.14 8.14-8.14-3.65-8.14-8.14 3.66-8.14 8.14-8.14z"/><path d="m34.71 50.78c.1.27.34.47.63.5h.08c.26 0 .5-.13.64-.36.63-1.03 1.44-2.06 2.23-3.06.81-1.03 1.57-2.01 2.1-2.92.11-.2.13-.43.05-.65s-.25-.38-.47-.44c-1.11-.36-2.38-.65-3.6-.94-1.16-.27-2.35-.55-3.45-.88-.27-.09-.56-.01-.76.2-.2.2-.26.5-.17.77zm1.31-6.4c.89.21 1.75.41 2.55.63-.42.61-.93 1.26-1.46 1.93-.5.63-1 1.28-1.47 1.93l-1.75-5.01c.7.19 1.42.35 2.13.52z"/><path d="m47.71 40.09c.07 0 .15 0 .23-.01.73-.07 1.34-.48 1.62-1.09.29-.61.21-1.33-.2-1.94-.39-.57-.99-.91-1.62-.91-.12-.02-.25-.01-.37.04-.63.12-1.16.57-1.43 1.22-.28.68-.21 1.4.19 1.94.36.48.94.75 1.58.75zm-.38-2.12c.04-.1.1-.18.16-.23.12.02.24.02.35-.01.02-.01.05-.02.07-.02.07.04.14.11.2.19.11.16.14.34.08.46s-.22.21-.41.23-.37-.04-.45-.15c-.07-.11-.07-.29 0-.47z"/><path d="m53.56 37.99c.21 0 .42-.03.63-.09.7-.2 1.23-.71 1.42-1.36s0-1.36-.48-1.9c-.49-.55-1.18-.81-1.84-.69-.08.01-.16.04-.22.08-.08.01-.15.03-.23.06-.62.26-1.06.85-1.18 1.57s.11 1.42.61 1.86c.35.3.81.47 1.29.47zm-.14-2.53.06-.03c.02 0 .04 0 .06-.01.15-.03.33.06.47.21s.2.34.16.49c-.04.14-.19.27-.39.33s-.4.03-.51-.07-.16-.29-.13-.5.14-.36.28-.42z"/><path d="m47.95 46.92c.09.33.39.55.72.55.07 0 .13-.01.2-.03 2.81-.76 5.63-1.59 8.4-2.46.4-.12.61-.54.49-.94s-.54-.62-.94-.49c-2.75.86-5.55 1.68-8.34 2.44-.4.12-.64.54-.53.93z"/><path d="m23.14 45.04c-.14-.39-.57-.59-.96-.44-2.07.77-4.22 1.32-6.39 1.66-.41.06-.69.45-.63.85.06.37.38.64.74.64.04 0 .08 0 .11-.01 2.27-.35 4.52-.93 6.68-1.73.4-.15.6-.58.45-.97z"/><path d="m22.75 54.65-3.53 1.05c-.4.12-.62.54-.51.93.1.33.4.54.72.54.07 0 .14-.01.21-.03l3.53-1.05c.4-.12.62-.53.51-.93-.12-.41-.54-.63-.93-.51z"/><path d="m59.59 6.51c-.34-.23-.81-.15-1.04.2l-1.96 2.88c-.23.34-.15.81.2 1.04.13.09.28.13.42.13.24 0 .48-.11.62-.33l1.96-2.88c.23-.34.14-.8-.2-1.04z"/><path d="m59.17 13.63c.08 0 .16-.01.25-.04 1.33-.46 2.58-1.11 3.72-1.93.34-.24.41-.71.17-1.05s-.71-.41-1.05-.17c-1.02.73-2.15 1.32-3.34 1.73-.39.14-.6.56-.46.95.11.32.4.51.71.51z"/><path d="m59.94 17.15 4.05.78c.05.01.1.01.14.01.35 0 .67-.25.74-.61.08-.41-.19-.8-.59-.88l-4.05-.78c-.41-.08-.8.19-.88.59-.08.42.18.81.59.89z"/></g></svg>